<?xml version="1.0" standalone="no"?>
<!DOCTYPE svg PUBLIC "-//W3C//DTD SVG 1.1//EN" "http://www.w3.org/Graphics/SVG/1.1/DTD/svg11.dtd" >
<svg xmlns="http://www.w3.org/2000/svg" xmlns:xlink="http://www.w3.org/1999/xlink" version="1.1">
<metadata></metadata>
<defs>
<font id="exobolditalic" horiz-adv-x="1251" >
<font-face units-per-em="2048" ascent="1638" descent="-410" />
<missing-glyph horiz-adv-x="512" />
<glyph unicode="&#xfb01;" horiz-adv-x="1224" d="M94 868l29 185l178 34l22 116q30 190 162 296.5t343 110.5q93 1 252 -16.5t216 -42.5l-28 -170l-374 11q-37 1 -70.5 -3t-71.5 -19t-67.5 -40t-53.5 -69t-33 -103l-11 -71l708 -20l-169 -1067h-288l137 868h-424l-138 -868h-286l137 868h-170z" />
<glyph unicode="&#xfb02;" horiz-adv-x="1413" d="M167 868l30 183l179 36l17 89q20 128 65.5 215.5t113 133.5t142.5 64.5t173 18.5l596 -3l-186 -1173q-8 -50 -9 -85t2.5 -56.5t15 -36t23 -21t31.5 -14.5q112 -40 121 -40l-29 -179h-184q-72 0 -125.5 20t-92.5 65.5t-49.5 119.5t3.5 182l158 1002l-274 2 q-94 0 -144.5 -49.5t-70.5 -176.5l-10 -78h262l-35 -219h-263l-141 -868h-287l140 868h-172z" />
<glyph horiz-adv-x="0" />
<glyph unicode="&#xd;" horiz-adv-x="2048" />
<glyph unicode=" "  horiz-adv-x="512" />
<glyph unicode="&#x09;" horiz-adv-x="512" />
<glyph unicode="&#xa0;" horiz-adv-x="512" />
<glyph unicode="!" horiz-adv-x="555" d="M143 47l29 184q3 24 18.5 38t39.5 14h180q22 0 32 -14.5t7 -37.5l-30 -184q-6 -47 -53 -47h-180q-22 0 -34 13t-9 34zM218 405l147 1092h289l-202 -1092h-234z" />
<glyph unicode="&#x22;" horiz-adv-x="909" d="M328 1087l19 275l23 137h276l-22 -137l-64 -275h-232zM696 1087l21 275l23 137h276l-22 -137l-64 -275h-234z" />
<glyph unicode="#" horiz-adv-x="1476" d="M98 430l61 197h312l80 247h-314l64 197h319l144 428h197l-144 -428h252l142 428h196l-142 -428h352l-62 -197h-352l-81 -249h352l-58 -197h-366l-144 -428h-196l143 428l-253 2l-144 -430h-196l143 430h-305zM667 627l258 -2l81 249h-258z" />
<glyph unicode="$" horiz-adv-x="1165" d="M139 45l36 219q292 -18 475 -18q49 0 89 10t74.5 41t42.5 80l12 81q6 43 5 74t-29.5 48.5t-90.5 17.5h-187q-82 0 -144 22.5t-96.5 60.5t-56 82t-27 95t-5 90t6.5 76l18 130q13 85 44.5 148.5t73 102t99.5 62.5t115.5 33t131.5 11l28 177h175l-28 -179q186 -11 356 -57 l-35 -223q-278 19 -455 19q-102 2 -154 -27t-67 -119l-12 -73q-12 -78 16 -111.5t125 -33.5h192q72 0 127 -19.5t87.5 -54t53 -76.5t27 -91.5t5.5 -94t-8 -89.5l-16 -100q-15 -96 -51.5 -166t-81.5 -110t-107 -63.5t-118.5 -30t-125.5 -5.5l-26 -168h-175l27 172 q-112 6 -187 19t-159 38z" />
<glyph unicode="%" horiz-adv-x="1974" d="M219 999l39 250q21 133 91 191.5t227 58.5h207q273 0 229 -281l-40 -250q-21 -138 -91 -195.5t-225 -57.5h-207q-133 0 -192 76t-38 208zM423 0l1152 1499h205l-1145 -1499h-212zM425 1016q-9 -55 8 -78t75 -23h150q63 0 86.5 22.5t32.5 78.5l29 182q10 61 -6.5 80.5 t-76.5 19.5h-151q-60 0 -85 -20.5t-34 -79.5zM1202 282l38 250q21 135 91 195.5t226 60.5h208q270 0 229 -284l-37 -250q-21 -137 -92.5 -194t-227.5 -57h-208q-133 0 -190.5 73.5t-36.5 205.5zM1407 304q-9 -55 8 -77.5t75 -22.5h149q63 0 87 22.5t33 77.5l29 183 q10 61 -7 80.5t-77 19.5h-149q-60 0 -85.5 -20.5t-34.5 -79.5z" />
<glyph unicode="&#x26;" horiz-adv-x="1376" d="M122.5 474.5q39.5 151.5 202.5 273.5l185 141l-81 142q-62 115 -41.5 214t93.5 167t164 80q86 12 166 14t154 -6t131.5 -18.5t130.5 -27.5l-34 -206h-337q-64 0 -102 -9t-55.5 -32t-9 -62t42.5 -98l275 -478l278 240l85 -118l-144 -248l-95 -91l203 -352h-313l-112 194 l-154 -125q-55 -45 -133.5 -65.5t-160.5 -13.5t-160.5 53.5t-126.5 127.5q-91 152 -51.5 303.5zM408 325q43 -65 110.5 -75.5t138.5 46.5l125 107l-160 268l-133 -98q-163 -125 -81 -248z" />
<glyph unicode="'" horiz-adv-x="458" d="M280 1087l21 275l22 137h289l-23 -137l-63 -275h-246z" />
<glyph unicode="(" horiz-adv-x="772" d="M195.5 341q2.5 144 26.5 293q23 141 64.5 276t89.5 237.5t100.5 193.5t100.5 154t87 109t62 68l23 22h274q-17 -20 -45 -56.5t-104 -153.5t-140 -238t-130 -298.5t-95 -347.5q-31 -196 -26 -363.5t35.5 -303.5t65 -231.5t62.5 -147.5l28 -52h-267q-6 8 -17 24t-40 72.5 t-54 119t-51 164t-39 208.5t-10.5 251z" />
<glyph unicode=")" horiz-adv-x="774" d="M-37 -498q16 19 44 53.5t103.5 148.5t139.5 234.5t130 301t97 358.5q30 187 24 352t-36.5 301.5t-65 235t-61.5 153.5l-28 54h268q6 -9 16.5 -26t39.5 -76t53.5 -124t50.5 -167t39.5 -208.5t11.5 -246.5t-25 -282q-24 -148 -65 -287t-87 -242t-96.5 -193.5t-95.5 -151 t-81.5 -104.5t-58.5 -64l-21 -20h-296z" />
<glyph unicode="*" horiz-adv-x="874" d="M260 1159l18 116l292 48l-17 -174zM329 852l93 280l164 -42l-154 -272zM540 956l119 146l199 -184l-80 -93zM572 1474l116 40l99 -251l-172 -67zM675 1169l270 162l48 -97l-229 -198z" />
<glyph unicode="+" horiz-adv-x="989" d="M164 608l38 242h303l49 305h242l-49 -305h307l-38 -242h-307l-49 -305h-241l48 305h-303z" />
<glyph unicode="," horiz-adv-x="532" d="M114 -180l16 99q22 -1 36 3.5t21 14.5t9.5 16.5t4.5 17.5l5 29h-22q-23 0 -35 13t-8 38l27 178q9 56 61 56h172q47 0 40 -56l-40 -252q-7 -46 -27 -80t-46 -50.5t-55 -26.5t-57 -10t-51 1.5t-37 4.5z" />
<glyph unicode="-" horiz-adv-x="722" d="M124 473l38 242h643l-38 -242h-643z" />
<glyph unicode="." horiz-adv-x="536" d="M139 47l29 184q3 24 18.5 38t39.5 14h176q52 0 43 -52l-30 -184q-8 -47 -57 -47h-176q-22 0 -34 13t-9 34z" />
<glyph unicode="/" horiz-adv-x="933" d="M7 -147l848 1724h297l-848 -1724h-297z" />
<glyph unicode="0" horiz-adv-x="1288" d="M164 366l121 756q30 190 131.5 283.5t281.5 93.5h336q80 0 142.5 -20t100 -55t61.5 -81.5t27 -99.5t-4 -109l-122 -768q-30 -185 -126.5 -275.5t-271.5 -90.5h-336q-180 0 -274.5 94t-66.5 272zM455 368q0 -20 2.5 -34t9.5 -25.5t13.5 -19t18.5 -12.5t20.5 -7.5t23 -4 t23 -1.5h23.5h199q75 0 116.5 33.5t54.5 113.5l109 678q12 78 -15.5 112t-101.5 34h-215q-147 0 -170 -146l-107 -677q-4 -24 -4 -44z" />
<glyph unicode="1" horiz-adv-x="757" d="M242 1142l29 188q64 0 168 58.5t149 110.5h283l-236 -1499h-287l192 1204q-46 -32 -132 -47t-166 -15z" />
<glyph unicode="2" horiz-adv-x="1200" d="M77 0l41 252q80 49 177.5 114.5t223 159.5t227.5 183.5t177 183.5t86 161q16 106 -34.5 152.5t-183.5 46.5h-530l34 214q163 27 300.5 40t320.5 13q109 0 190 -40.5t125 -109.5t60.5 -155.5t3.5 -184.5q-8 -64 -39 -132t-73 -127t-101.5 -122.5t-113 -111.5 t-119.5 -100.5t-108.5 -84t-92.5 -66.5q-8 -5 -11.5 -8t-9.5 -7t-10 -7h550l-42 -264h-1048z" />
<glyph unicode="3" horiz-adv-x="1193" d="M65 43l35 209h520q108 0 164 29.5t69 110.5l10 65q4 24 4 43t-2 34t-10 26t-15 19t-21.5 13.5t-25 8.5t-31.5 5.5t-34 3.5t-39 2l-405 17l38 231l410 19q110 5 161.5 36t63.5 110l11 73q8 46 -3 75.5t-40 43t-59.5 18t-76.5 4.5h-547l32 207q89 29 205.5 43.5t228.5 14.5 t239 -1q160 -3 250 -110.5t64 -272.5l-18 -107q-19 -116 -71 -184.5t-131 -83.5q76 -28 102 -116t6 -212l-15 -87q-54 -344 -441 -344h-75.5h-80t-71.5 0.5t-77 2.5t-67 4.5t-72 7t-62 10t-66 14t-57 18.5z" />
<glyph unicode="4" horiz-adv-x="1269" d="M103 459l697 1040h320l-590 -900h363l55 342l92 157h222l-79 -499h150l-34 -222l-159 -50l-50 -323h-290l51 323h-700z" />
<glyph unicode="5" horiz-adv-x="1220" d="M125 40l36 225h578q147 0 170 146l21 132q24 151 -112 151h-189q-57 0 -96 -29.5t-49 -90.5h-273l192 925h912l-43 -264h-633l-70 -338q58 43 160 51q60 3 80.5 3t75.5 -2t56 -2q156 -8 229 -116.5t50 -272.5l-32 -230q-13 -81 -44.5 -142.5t-72.5 -97.5t-96 -58.5 t-108 -30.5t-117 -8q-206 -1 -321 7.5t-304 41.5z" />
<glyph unicode="6" horiz-adv-x="1245" d="M194 525.5q6 125.5 31 283.5q105 665 468 697q148 13 323.5 0t321.5 -41l-34 -218h-513q-52 0 -94.5 -25t-69.5 -61.5t-48.5 -91.5t-32 -100t-20.5 -102q167 41 421 43q70 0 124 -14.5t87.5 -42.5t55 -62.5t29.5 -78.5t8 -86t-7 -88l-36 -235q-15 -91 -50.5 -152.5 t-92.5 -93.5t-121 -45t-152 -13h-291q-59 0 -106 15.5t-88 51t-66.5 97t-39 149.5t-7.5 213.5zM473.5 455q0.5 -47 9.5 -81t25.5 -60.5t46 -40t69.5 -13.5h162q131 0 151 129l22 137q13 79 -8 105t-96 26h-363q-10 -60 -14.5 -107.5t-4 -94.5z" />
<glyph unicode="7" horiz-adv-x="1134" d="M242 1235l42 264h965l56 -132l-718 -1367h-313l656 1235h-688z" />
<glyph unicode="8" horiz-adv-x="1275" d="M163 247.5q-2 39.5 0 64.5t7 54l23 150q15 92 70 146.5t138 66.5q-164 74 -124 315l22 134q13 82 42 142.5t67 96t93 57t109.5 28.5t126.5 7h310q170 0 248.5 -97.5t50.5 -280.5l-18 -109q-3 -23 -14 -52.5t-32 -65t-60.5 -63.5t-89.5 -36q44 -11 72.5 -48t37 -81.5 t10.5 -92t-6 -79.5l-27 -176q-10 -66 -29.5 -117t-42 -85.5t-56 -58.5t-62.5 -37t-71.5 -20t-74 -8.5t-77.5 -1.5h-309q-76 0 -135 15t-94.5 38.5t-59 58t-33.5 65.5t-12 70.5zM462 376q-11 -69 17 -96t109 -27h193q137 0 155 123l22 142q10 62 -18 94.5t-91 32.5h-207 q-138 0 -158 -127zM562 1012q-6 -38 1 -64t25.5 -39.5t40 -18.5t50.5 -5h205q80 0 111 33t41 94l15 96q15 90 -12.5 119t-98.5 29h-193q-84 0 -120.5 -31t-49.5 -117z" />
<glyph unicode="9" horiz-adv-x="1243" d="M148 40l34 217h513q44 0 81 16.5t63.5 47t46.5 66t34.5 81.5t23.5 84.5t17 84.5q-167 -41 -422 -43q-70 0 -124 15.5t-87 44.5t-54.5 65.5t-29.5 81.5t-7.5 87.5t7.5 89.5l34 212q28 177 132 246.5t281 69.5h291q73 0 128.5 -24.5t98.5 -83.5t64 -152.5t19 -238.5 t-32 -334q-25 -157 -65 -276.5t-84.5 -191t-100.5 -118t-106.5 -65t-109.5 -23.5q-315 -27 -646 41zM528 978q-13 -79 7.5 -105t95.5 -26h363q12 72 16 127.5t0 108.5t-20 86.5t-48.5 54t-80.5 20.5h-161q-60 0 -99.5 -27.5t-51.5 -100.5z" />
<glyph unicode=":" horiz-adv-x="538" d="M139 47l29 184q3 24 18.5 38t39.5 14h176q52 0 43 -52l-30 -184q-8 -47 -57 -47h-176q-22 0 -34 13t-9 34zM267 853l29 184q7 51 58 51h176q51 0 42 -51l-29 -184q-8 -47 -58 -47h-176q-22 0 -33.5 12.5t-8.5 34.5z" />
<glyph unicode=";" horiz-adv-x="538" d="M114 -180l16 99q22 -1 36 3.5t21 14.5t9.5 16.5t4.5 17.5l5 29h-22q-22 0 -34.5 14.5t-8.5 36.5l27 178q4 25 20.5 40.5t40.5 15.5h172q47 0 40 -56l-40 -252q-7 -46 -27 -80t-46 -50.5t-55 -26.5t-57 -10t-51 1.5t-37 4.5zM270 854l28 184q7 51 57 51h177q52 0 43 -51 l-29 -184q-8 -47 -58 -47h-177q-22 0 -33 12.5t-8 34.5z" />
<glyph unicode="&#x3c;" horiz-adv-x="921" d="M170 589l42 265l815 296l-41 -265l-502 -170l446 -179l-42 -261z" />
<glyph unicode="=" horiz-adv-x="956" d="M100 378l39 242h874l-39 -242h-874zM168 817l39 242h875l-39 -242h-875z" />
<glyph unicode="&#x3e;" horiz-adv-x="921" d="M120 275l43 268l508 191l-454 160l42 256l720 -296l-40 -265z" />
<glyph unicode="?" horiz-adv-x="1110" d="M228 1251l34 210q170 33 297.5 46t288.5 6q106 0 187.5 -36t125.5 -95t61.5 -131.5t4.5 -149.5l-25 -173q-15 -109 -55 -181t-107.5 -110.5t-154.5 -50.5t-207 -2l-15 -90q-15 -91 -14 -95h-232l62 400q157 -3 235 0q179 7 204 167l17 110q15 95 -31.5 135t-165.5 40 h-510zM338 47l30 184q7 52 57 52h176q52 0 43 -52l-29 -184q-8 -47 -58 -47h-176q-22 0 -34 13t-9 34z" />
<glyph unicode="@" horiz-adv-x="1835" d="M97.5 -65.5q-2.5 67.5 6.5 140.5l157 992q35 217 163 313.5t359 96.5h746q107 0 181 -36t109 -100t46.5 -151.5t-6.5 -190.5l-99 -668q-8 -55 -22 -98.5t-43 -87.5t-70.5 -73t-107.5 -47.5t-152 -18.5h-189l-48 112q-100 -127 -274 -126q-189 2 -272.5 147.5t-38.5 442.5 q20 131 59 229.5t84.5 155.5t104.5 91.5t112 46t114 11.5q325 0 464 -134l-107 -745q54 0 82 11t49 51t33 122l90 601q6 43 6.5 76t-4 56.5t-15 40t-23.5 26t-33 15t-39.5 7t-47.5 1.5h-737q-56 0 -99 -15t-67.5 -36t-42 -53.5t-24.5 -58t-12 -59.5l-153 -970 q-9 -44 -4.5 -82.5t20.5 -67t56.5 -45t104.5 -16.5h791l-29 -175q-280 -55 -598 -55h-190q-98 0 -172.5 25.5t-118.5 69t-70.5 102.5t-29 126.5zM759.5 375q0.5 -72 35 -113t106.5 -40q87 1 147.5 31.5t107.5 102.5l79 512q-93 20 -226 20q-45 0 -79.5 -15t-66.5 -52 t-55 -106.5t-37 -171.5q-12 -96 -11.5 -168z" />
<glyph unicode="A" horiz-adv-x="1409" d="M70 0l743 1499h326l250 -1499h-294l-59 332h-486l-164 -332h-316zM665 586h343l-84 544z" />
<glyph unicode="B" horiz-adv-x="1226" d="M124 0l238 1499h608q90 0 159.5 -23.5t110.5 -64t66.5 -95t27.5 -116.5q1 -16 1 -32q0 -46 -5 -95q-16 -121 -85.5 -199.5t-171.5 -95.5q87 -14 141 -117q40 -75 40 -177q0 -37 -5 -78q-16 -119 -53 -198t-101.5 -125t-149 -64.5t-207.5 -18.5h-614zM452 253h315 q165 0 196 200q5 30 5 56q0 55 -21 95q-31 60 -116 60h-314zM556 906h303q77 0 124.5 44t59.5 125q4 28 4 51q0 56 -25 82q-36 38 -108 38h-304z" />
<glyph unicode="C" horiz-adv-x="1169" d="M182 539q2 116 23 250q30 188 73.5 316.5t116 224.5t180.5 141t259 45q278 0 512 -73l-36 -225q-232 33 -425 33h-22q-94 -1 -135 -14q-100 -34 -161 -183q-45 -114 -75 -304q-23 -126 -24 -219q0 -92 24 -152q46 -121 207 -127h46q162 0 418 17l-35 -224 q-109 -35 -230 -47q-103 -10 -250 -10h-52q-111 1 -193 43t-129.5 114.5t-69.5 174.5q-21 96 -22 205v14z" />
<glyph unicode="D" horiz-adv-x="1341" d="M124 0l238 1498q0 1 608 1q90 0 161.5 -25t118.5 -67.5t79.5 -103.5t48.5 -129t20 -148q2 -36 2 -72q0 -43 -4 -85q-6 -76 -18 -159q-60 -381 -207 -545.5t-420 -164.5h-627zM451 256h301q262 0 340 489q22 150 22 246q0 95 -28 151q-28 58 -72.5 81t-115.5 23h-290z" />
<glyph unicode="E" horiz-adv-x="1146" d="M162 308l141 891q12 74 39 128.5t62 87.5t82 53q46 20 92 26q40 6 86 5h15q502 -15 632 -33l-38 -237h-570q-37 0 -61.5 -9t-36.5 -28t-17 -35t-9 -42l-36 -230l579 -21l-39 -236l-584 -19l-39 -239q-6 -38 0.5 -61t26.5 -32t35.5 -11t44.5 -2h5h550l-39 -235 q-53 -7 -208.5 -16t-284.5 -14l-130 -5h-21q-36 0 -70 5q-44 7 -88 28.5t-74 56.5q-29 34 -43 92q-7 31 -8 66q0 31 6 66z" />
<glyph unicode="F" horiz-adv-x="1148" d="M119 0l185 1177q12 74 39 131t62.5 93t81.5 59q45 24 93 32q42 8 91 7h11q502 -15 632 -33l-37 -237h-570q-37 0 -61.5 -9t-37 -28t-17.5 -35t-9 -42l-36 -234l579 -22l-36 -236l-588 -19l-95 -604h-287z" />
<glyph unicode="G" horiz-adv-x="1255" d="M187 413q-3 46 -3 91q0 50 4 99q6 95 25 197q23 126 48 219.5t60.5 177.5t80.5 140t106.5 98t141.5 61t181 19h20q151 0 256 -14q112 -15 273 -57l-35 -220q-286 37 -484 38q-45 0 -77.5 -5.5t-70 -23t-65.5 -52.5t-56 -90t-50.5 -140.5t-39.5 -199.5q-24 -145 -24 -248 q0 -15 1 -29q4 -110 53 -163.5t151 -53.5q40 0 82 10.5t73.5 25.5t58 30t39.5 25l14 11l45 262h-211l29 181q130 51 367 51q64 0 138 -6l-135 -847h-207l-62 108q-112 -112 -327 -120h-17q-89 0 -157 28q-75 31 -120 90t-72.5 135.5t-33.5 171.5z" />
<glyph unicode="H" horiz-adv-x="1304" d="M129 0l238 1499h286l-102 -642h514l102 642h287l-237 -1499h-287l94 593h-514l-94 -593h-287z" />
<glyph unicode="I" horiz-adv-x="524" d="M134 0l237 1499h287l-238 -1499h-286z" />
<glyph unicode="J" horiz-adv-x="729" d="M61 48l39 223q65 -6 116 -6q23 0 42 1q66 4 108 50t58 147l164 1036h287l-185 -1161q-7 -45 -15 -80t-24.5 -80t-46 -81.5t-69.5 -59.5q-82 -47 -219 -47h-26q-156 5 -229 58z" />
<glyph unicode="K" horiz-adv-x="1269" d="M124 0l238 1499h275l-99 -627h114l473 627h347l-572 -772l334 -727h-327l-269 620h-139l-97 -620h-278z" />
<glyph unicode="L" horiz-adv-x="1083" d="M169 292l193 1207h286l-180 -1128q-2 -16 -2 -29t2 -23t5 -18t9.5 -14t12 -10t14.5 -6.5t15.5 -4t17.5 -2t17 -0.5h18h3h514l-42 -264h-617q-64 0 -116 16t-91 49.5t-55 91.5q-9 33 -9 72q0 30 5 63z" />
<glyph unicode="M" horiz-adv-x="1693" d="M100 0l370 1499h393l90 -1024l408 1024h402l-97 -1499h-283l71 1001l-405 -1001h-326l-92 1001l-242 -1001h-289z" />
<glyph unicode="N" horiz-adv-x="1370" d="M124 0l238 1499h287l426 -974l153 974h287l-238 -1499h-283l-429 963l-152 -963h-289z" />
<glyph unicode="O" horiz-adv-x="1363" d="M187 510q2 114 25 257q23 148 57 262t71 192t90.5 132.5t101.5 84.5t120 46.5t130 20.5t145 4q82 0 145 -8t125.5 -29.5t105.5 -58.5t77 -98t48 -143q13 -72 13 -171v-28q-2 -116 -25 -262q-17 -109 -40 -199t-49.5 -159t-61 -122.5t-69 -91.5t-81 -65t-89 -43t-99 -24.5 t-106.5 -11.5t-117 -3q-82 0 -144.5 7t-125.5 27.5t-106 55.5t-78 93.5t-50 139.5q-13 71 -13 168v27zM476 561q-3 -35 -3 -66q-1 -35 3 -63q6 -56 23 -88.5t51.5 -53t77.5 -27.5t109 -7q91 0 149.5 18.5t107 71.5t80 147t55.5 246q15 87 21 155q5 52 4 96v25q-2 52 -9 89.5 t-24.5 63t-37 40.5t-51.5 23.5t-62.5 11t-75.5 2.5q-47 0 -78 -2t-66.5 -10t-58.5 -22.5t-49 -39.5t-44 -62t-36.5 -89.5t-33.5 -121.5t-29 -159q-17 -105 -23 -178z" />
<glyph unicode="P" horiz-adv-x="1222" d="M119 0l237 1499h627q50 0 95 -9.5t90.5 -32.5t78.5 -60t58 -92t29 -130q1 -19 1 -39q0 -60 -9 -133q-20 -134 -61 -227.5t-91 -135.5t-110 -66q-52 -21 -102 -22h-14q-36 2 -71 3q-20 0 -40 -1h-3q-59 2 -192.5 17.5t-141.5 20.5l-95 -592h-286zM533 807h317 q74 0 120.5 49.5t66.5 176.5q5 44 5 77q0 16 -2 30q-4 42 -24 65t-42.5 31t-53.5 8h-317z" />
<glyph unicode="Q" horiz-adv-x="1368" d="M191 544q5 103 25 229q23 148 57 261.5t70.5 191.5t90.5 131.5t101.5 83t120 45t129.5 19.5t145 4q82 0 145 -8t125.5 -30.5t105.5 -60t77.5 -98.5t48.5 -144q13 -74 13 -172v-28q-2 -116 -25 -262q-17 -109 -40 -198.5t-49 -158t-61 -122t-69.5 -91t-81 -64t-88.5 -42 t-99.5 -24t-106.5 -11.5t-117 -3q-71 0 -127 5.5t-113.5 20.5t-99 41.5t-79 67t-59 100t-32.5 136.5q-9 54 -9 120q0 29 2 61zM479 561q-3 -35 -3 -66q0 -34 4 -63q6 -55 22.5 -88t51 -53.5t77.5 -27.5t109 -7q91 0 149.5 18.5t107.5 71.5t80.5 147t55.5 246q14 87 21 155 q4 53 4 96v25q-2 52 -9 89.5t-24.5 63t-37 40.5t-51.5 23.5t-62.5 11t-75.5 2.5q-54 0 -88.5 -3t-73.5 -14t-64 -32t-52 -57.5t-46 -91t-37.5 -130.5t-34.5 -178q-17 -105 -23 -178zM600 -68h163q35 -82 159 -82q69 0 165 25l-36 -232q-54 -11 -109 -12h-10q-50 0 -98 9 q-53 9 -98 32.5t-78 58t-48 86.5q-12 37 -12 81q0 16 2 34z" />
<glyph unicode="R" horiz-adv-x="1234" d="M119 0l237 1499h634q87 0 154 -27.5t115 -85t65 -154.5q8 -48 8 -105t-8 -123q-10 -77 -29 -140t-40 -104t-50 -72.5t-52 -48t-53 -28t-46 -15t-38 -6.5l213 -590h-324l-176 574l-230 17l-94 -591h-286zM536 815h312q83 0 129 50.5t58 166.5q4 41 4 74q-1 34 -5 58 q-10 46 -36 63t-77 17h-316z" />
<glyph unicode="S" horiz-adv-x="1185" d="M145 44l35 225q176 -21 506 -21q185 0 206 129l13 81q4 26 4 47q1 37 -13 59q-22 34 -106 34h-207q-74 0 -132.5 16t-95 42t-61.5 62.5t-36.5 72t-15.5 77.5q-3 30 -3 54q1 9 1 17q2 30 6 61l21 156q13 89 45.5 154.5t74 103.5t101 60.5t116.5 29.5t132 7h35 q141 0 275 -14q150 -16 248 -45l-36 -224q-85 6 -256.5 12.5t-229.5 6.5h-33q-23 -1 -39 -1q-28 -2 -55.5 -9.5t-44 -23.5t-29 -43.5t-19.5 -67.5l-12 -73q-4 -29 -4 -50.5t3.5 -37t13 -26t20 -16.5t29 -9.5t36 -4.5t43.5 -1h211q69 0 123 -18t86.5 -48t56 -70t30.5 -84 q8 -44 10 -90q1 -11 0 -22q0 -34 -6 -65l-12 -134q-6 -73 -27.5 -131t-49.5 -96t-70 -65.5t-80 -42t-90 -22.5t-88 -10t-85 -2q-360 0 -545 60z" />
<glyph unicode="T" horiz-adv-x="1204" d="M250 1235l42 264h1108l-42 -264h-417l-195 -1235h-287l195 1235h-404z" />
<glyph unicode="U" horiz-adv-x="1337" d="M206 453.5q0 98.5 19 219.5l133 826h287l-136 -860q-15 -95 -15 -165q0 -90 24 -136q44 -84 205 -84q159 0 231 88.5t105 296.5l136 860h289l-130 -894q-23 -147 -66 -254.5t-99.5 -176.5t-136 -110.5t-166.5 -57.5t-201 -16q-70 0 -126.5 7.5t-113.5 27t-98 52t-74.5 85 t-50 123t-16.5 169z" />
<glyph unicode="V" horiz-adv-x="1402" d="M285 1499h301l151 -1121l525 1121h319l-732 -1499h-332z" />
<glyph unicode="W" horiz-adv-x="2068" d="M285 1499h299l154 -1108l490 1108h307l-192 -415l104 -699l496 1114h304l-687 -1499h-322l-96 616l-285 -616h-340z" />
<glyph unicode="X" horiz-adv-x="1316" d="M67 0l554 767l-323 732h314l206 -508l365 508h324l-569 -785l315 -714h-314l-197 488l-351 -488h-324z" />
<glyph unicode="Y" horiz-adv-x="1343" d="M285 1499h309l172 -716l428 716h328l-657 -1034l-74 -465h-287l74 465z" />
<glyph unicode="Z" horiz-adv-x="1140" d="M55 0l42 264l834 971h-681l42 264h1033l-43 -264l-812 -971h660l-43 -264h-1032z" />
<glyph unicode="[" horiz-adv-x="684" d="M118.5 -149q1.5 46 9.5 93l222 1373q20 120 62 191.5t127.5 110t223.5 38.5h164l-38 -242h-107q-63 0 -100.5 -35t-52.5 -126l-214 -1332q-17 -105 5 -141.5t91 -36.5h113l-38 -242h-182q-70 0 -123 20.5t-84 56.5t-50 79.5t-24.5 95t-4 97.5z" />
<glyph unicode="\" horiz-adv-x="919" d="M279 1577h286l303 -1724h-286z" />
<glyph unicode="]" horiz-adv-x="677" d="M-37 -498l38 242h108q63 0 100.5 35.5t52.5 126.5l211 1331q17 105 -6 141.5t-93 36.5h-108l39 242h169q65 0 117 -17.5t84 -47.5t54.5 -70.5t30 -87.5t9 -98t-7.5 -101l-207 -1391q-9 -62 -23.5 -109t-44 -92.5t-72 -75t-109.5 -47.5t-155 -18h-187z" />
<glyph unicode="^" horiz-adv-x="786" d="M250 1087l264 279h213l154 -279h-188l-83 132l-134 -132h-226z" />
<glyph unicode="_" horiz-adv-x="1378" d="M50 -2l38 242h1299l-38 -242h-1299z" />
<glyph unicode="`" horiz-adv-x="505" d="M247 1371h243l159 -284h-186z" />
<glyph unicode="a" horiz-adv-x="1110" d="M137 322q-2 26 -2 53q0 101 23 233q18 94 46 169t59 125.5t72.5 88t79 58.5t86 34.5t85.5 18t85 6.5q24 1 48 1q113 -1 238 -27q151 -32 223 -101l-143 -979h-221l-44 112q-41 -51 -136.5 -88.5t-192.5 -37.5q-83 0 -146 33.5t-107.5 108t-52.5 192.5zM423 380 q2 -72 32.5 -110.5t92.5 -38.5q83 0 139 25.5t110 77.5l78 524q-49 17 -111 23q-23 2 -43 2q-35 0 -64 -6q-34 -7 -55 -14.5t-49.5 -28t-47.5 -52.5t-37.5 -89.5t-30.5 -136.5q-14 -92 -14 -160v-16z" />
<glyph unicode="b" horiz-adv-x="1138" d="M94 0l254 1608h284l-89 -575q78 33 170.5 52t163.5 19q90 0 151.5 -33.5t93.5 -87.5q30 -53 42 -135q8 -59 8 -119v-47q-4 -84 -22 -188q-21 -130 -52.5 -220.5t-82.5 -158.5t-127 -99q-69 -28 -163 -28h-18q-90 3 -174.5 39.5t-134.5 82.5l-69 -110h-235zM428 300 q94 -67 244 -67q78 0 121.5 70t70.5 247q18 111 18 182q0 45 -7 73q-19 74 -102 74q-146 0 -259 -41z" />
<glyph unicode="c" horiz-adv-x="1007" d="M146 310q-2 30 -2 63q0 91 17 206q16 98 38.5 176t48 132.5t58 94.5t64.5 63.5t73 37t78.5 18t84.5 4.5q97 0 243 -17t248 -49l-28 -178q-194 14 -376 14q-29 0 -46 -1t-39.5 -5.5t-35.5 -14t-29.5 -25.5t-28 -40.5t-24 -59.5t-23 -82t-21.5 -108q-14 -83 -16 -139 q0 -12 -1 -23q1 -41 7 -69q8 -36 29.5 -56t50 -27t73.5 -7q84 0 183 5t156 9l57 5l-28 -180q-117 -42 -230 -56q-99 -12 -245 -12h-43q-80 1 -140 34t-102.5 104t-50.5 183z" />
<glyph unicode="d" horiz-adv-x="1126" d="M144 358q-2 25 -2 51q0 84 18 175q17 98 37.5 170.5t55 141.5t80.5 112.5t115 69.5t157 26q72 0 162 -19t156 -52l92 575h285l-255 -1608h-236l-34 110q-68 -49 -158 -85.5t-178 -36.5q-95 0 -162 49t-96.5 131t-36.5 190zM446 302q23 -70 97 -69q148 0 263 67l85 538 q-99 41 -248 41q-35 0 -61 -12.5t-51 -47t-45.5 -101t-36.5 -168.5q-14 -94 -14 -158q0 -57 11 -90z" />
<glyph unicode="e" horiz-adv-x="1079" d="M162 614q17 90 35 153t47 122.5t68 97t95.5 66.5t132 42t174.5 13q74 0 136 -8t119.5 -30t96.5 -56q38 -34 58 -90q16 -45 17 -101q0 -14 -1 -28q-6 -102 -45 -178t-96 -118t-127.5 -67t-139.5 -31q-46 -4 -90 -4q-22 0 -43 1q-64 3 -106.5 11t-61.5 16q-7 -46 -7 -80 q0 -59 21 -85q34 -42 144 -44q24 -1 51 -1q70 -1 162 7q128 10 232 28l-34 -205q-210 -63 -449 -63q-58 0 -119 4q-296 14 -296 380q0 108 26 248zM455 615q7 -1 20 -3t51 -4q25 -1 49 -1h24q35 1 78.5 9.5t77 23.5t59.5 44.5t33 70.5q3 19 3 34q0 45 -28 64q-36 25 -122 25 h-7q-40 0 -72 -9.5t-53.5 -17.5t-40 -34.5t-27 -36.5t-20 -50.5t-13 -49t-10.5 -56.5q-1 -6 -2 -9z" />
<glyph unicode="f" horiz-adv-x="827" d="M167 868l30 183l179 36l23 145q33 209 122.5 293t272.5 84q68 0 138.5 -14t112.5 -35l-27 -171l-185 2q-26 0 -45 -3.5t-33.5 -9.5t-25.5 -21t-18 -28.5t-14 -42.5t-11 -52.5t-11 -68.5l-12 -78h262l-35 -219h-263l-141 -868h-287l140 868h-172z" />
<glyph unicode="g" horiz-adv-x="1138" d="M40 -508l30 191h460q80 0 135 49.5t70 144.5l32 199q-128 -78 -283 -78q-117 0 -193 44t-108 124t-37 192q-1 19 -1 39q0 96 20 209q42 265 163.5 383t314.5 118q153 0 319 -19.5t248 -42.5l-190 -1202q-34 -213 -158 -317q-103 -87 -265 -87q-34 0 -71 4zM433 346 q9 -106 96 -121q15 -2 33 -2q69 0 116.5 9t118.5 36l99 619h-221q-39 0 -71.5 -14.5t-55 -42.5t-39 -57t-28 -69.5t-17 -67t-11.5 -61.5q-21 -140 -21 -206q0 -13 1 -23z" />
<glyph unicode="h" horiz-adv-x="1126" d="M94 0l254 1603h285l-100 -631q52 34 79.5 50t77.5 40t101.5 34t110.5 10q273 0 273 -271q0 -51 -10 -111l-115 -724h-287l115 728q4 24 4 44q0 104 -100 104q-82 0 -142.5 -21.5t-135.5 -73.5l-124 -781h-286z" />
<glyph unicode="i" horiz-adv-x="462" d="M88 0l172 1087h287l-172 -1087h-287zM274 1248l28 182q7 51 57 51h215q39 0 39 -38q0 -6 -1 -13l-28 -182q-6 -47 -54 -47h-215q-22 0 -33 12.5t-8 34.5z" />
<glyph unicode="j" horiz-adv-x="497" d="M19 -553l260 1640h287l-174 -1095q-25 -166 -60.5 -297t-101.5 -248h-211zM291 1248l30 182q7 51 57 51h215q22 0 32 -14t7 -37l-30 -182q-6 -47 -54 -47h-215q-22 0 -33.5 12.5t-8.5 34.5z" />
<glyph unicode="k" horiz-adv-x="1085" d="M94 0l254 1602h286l-145 -910q128 47 248.5 158.5t156.5 236.5h306q-27 -96 -75.5 -180.5t-106 -145t-111.5 -102.5t-106 -69l333 -590h-320l-276 499l-78 -2l-80 -497h-286z" />
<glyph unicode="l" horiz-adv-x="628" d="M151 387l192 1217h287l-185 -1172q-8 -50 -9 -85t2.5 -56.5t15 -36t23 -21t31.5 -14.5q111 -40 120 -40l-29 -179h-184q-155 0 -225 94q-49 65 -48 181q0 51 9 112z" />
<glyph unicode="m" horiz-adv-x="1792" d="M94 0l172 1087h230l38 -117q8 5 34.5 22t36 23t33.5 20t36.5 19.5t35.5 15.5t41 14t42 9.5t49 7.5t52 2q98 0 164 -40t90 -108q103 68 202 108t217 40q86 0 145 -29t88 -80q28 -52 37 -122q3 -26 4 -54q0 -47 -10 -98l-115 -720h-286l115 725q4 22 4 42q1 44 -19 69 q-28 37 -82 37q-87 0 -151.5 -19.5t-127.5 -66.5q0 -4 -4.5 -34t-5.5 -35l-115 -718h-286l114 725q4 22 4 42q0 44 -20 69q-28 37 -81 37q-82 0 -138.5 -21t-132.5 -73l-124 -779h-286z" />
<glyph unicode="n" horiz-adv-x="1126" d="M94 0l172 1087h230l38 -115q59 38 82 51.5t75 38.5t102 34.5t109 9.5q273 0 273 -271q0 -51 -10 -111l-115 -724h-287l115 728q4 24 4 44q0 104 -100 104q-82 0 -142.5 -21.5t-135.5 -73.5l-124 -781h-286z" />
<glyph unicode="o" horiz-adv-x="1140" d="M159 557q21 135 53 227.5t76 155.5t110.5 97.5t147.5 49t196 14.5q269 -1 364 -145q62 -95 63 -261q0 -88 -18 -195q-20 -124 -49 -208.5t-71.5 -144.5t-107 -93.5t-146.5 -48.5t-198 -15q-273 0 -369 136q-65 92 -66 257q0 78 15 174zM430 390v-12q0 -48 8 -78 q8 -34 33 -51.5t55 -23t80 -5.5q45 0 71.5 3t54.5 13.5t45 30t34 54.5t29 84.5t24 122.5q14 88 18 146q1 20 2 39q0 33 -4 59q-6 40 -29 61t-55.5 29.5t-86.5 8.5q-45 0 -75.5 -4.5t-57.5 -18.5t-44.5 -36.5t-34 -62.5t-28 -92t-24.5 -129q-14 -82 -15 -138z" />
<glyph unicode="p" horiz-adv-x="1138" d="M7 -553l260 1597q104 25 261 39t306 14q107 0 180.5 -46.5t107.5 -127t44 -189.5q2 -32 2 -66q0 -80 -15 -167q-39 -265 -149.5 -392.5t-327.5 -127.5q-77 0 -155 19t-130 59l-99 -612h-285zM422 251q78 -46 173 -46q27 0 56 4q43 3 72.5 17.5t57.5 51t48.5 103.5 t37.5 171q14 78 14 138q0 59 -13 102q-28 86 -117 86h-226z" />
<glyph unicode="q" horiz-adv-x="1132" d="M144 336q-1 21 -1 42q0 94 20 205q44 277 164 399t321 122q153 0 315 -19t244 -42l-252 -1596h-287l97 612q-129 -79 -286 -79q-115 0 -189.5 43.5t-107 122.5t-38.5 190zM429.5 334.5q0.5 -25.5 4.5 -40t10.5 -31.5t17 -26t24.5 -17t32.5 -11.5t42.5 -3.5q69 0 116 9 t118 36l100 635h-226q-45 0 -81 -23t-58 -55t-39 -81.5t-24.5 -85t-15.5 -83.5q-6 -41 -9.5 -66t-7.5 -58.5t-4.5 -53t0 -45z" />
<glyph unicode="r" horiz-adv-x="854" d="M94 0l172 1087h241l23 -137q180 149 336 149q87 0 119 -13l-43 -277q-48 5 -156 5q-98 0 -166 -24.5t-130 -96.5l-110 -693h-286z" />
<glyph unicode="s" horiz-adv-x="1042" d="M114 44l29 179h512q73 0 84 69l10 56q6 36 -7.5 53.5t-55.5 17.5h-243q-149 1 -221 81q-54 60 -54 161q0 34 6 72l16 99q22 135 99 202.5t230 67.5q486 0 571 -55l-28 -181h-492q-50 0 -70.5 -20t-25.5 -55l-9 -53q-2 -13 -2.5 -23.5t2 -18t4.5 -12.5t8 -8.5t9.5 -5.5 t12 -2.5t12.5 -0.5h14h13h251q99 0 162 -43.5t83 -110.5q12 -40 13 -85q0 -31 -6 -64l-18 -125q-10 -64 -34.5 -111.5t-54.5 -74.5t-70.5 -42.5t-75.5 -20.5t-77 -5q-517 0 -597 59z" />
<glyph unicode="t" horiz-adv-x="770" d="M157 870l25 160l185 60l97 303h238l-48 -303h243l-35 -220h-243l-69 -437q-8 -51 -9 -86.5t2.5 -57t14.5 -36t22.5 -21t31.5 -14.5q112 -40 121 -40l-28 -179h-198q-143 1 -212 95q-48 65 -48 180q0 52 10 114l76 482h-176z" />
<glyph unicode="u" horiz-adv-x="1124" d="M125 242q1 57 10 122l115 723h286l-115 -728q-4 -28 -4 -50q1 -44 17 -65q26 -32 84 -32q83 0 143 21.5t135 72.5l123 781h287l-173 -1087h-230l-37 116q-99 -69 -176.5 -101.5t-190.5 -32.5q-74 0 -128 19t-84 53q-31 35 -47 83q-16 45 -15 99v6z" />
<glyph unicode="v" horiz-adv-x="1093" d="M171 1087h303l118 -768l260 542q53 107 65 229h264q8 -38 8 -78q0 -113 -65 -241l-396 -771h-349z" />
<glyph unicode="w" horiz-adv-x="1695" d="M171 1087h300l116 -763l260 534q54 110 66 229h259q9 -39 9 -80q0 -83 -36 -170l-34 -78l82 -430l266 532q54 110 66 229h260q8 -39 8 -79q0 -41 -9 -85q-18 -84 -56 -155l-413 -771h-317l-79 418l-201 -418h-339z" />
<glyph unicode="x" horiz-adv-x="1171" d="M38 0l462 562l-290 525h340l152 -325l257 325h349l-466 -575l282 -512h-331l-153 314l-249 -314h-353z" />
<glyph unicode="y" horiz-adv-x="1153" d="M172 1087h298l68 -760q7 -75 104 -80l275 614q38 88 52 229h266q9 -40 9 -83q0 -111 -58 -239l-350 -767q-45 -98 -95.5 -180t-98 -139t-100.5 -102.5t-97.5 -73.5t-94 -48.5t-85.5 -30.5t-77 -17v202q66 35 121 79.5t97 96.5t73 101t63 111q-121 0 -195.5 68t-89.5 209z " />
<glyph unicode="z" horiz-adv-x="968" d="M78 2l35 239l580 605h-510l36 241h878l-36 -241l-557 -602h459l-38 -242h-847z" />
<glyph unicode="{" horiz-adv-x="655" d="M120 517l35 216q28 2 43.5 3.5t40.5 7.5t39 15.5t27 28t17 44.5l76 478q29 181 149.5 264t350.5 83l-38 -242q-86 1 -130.5 -47.5t-65.5 -181.5l-57 -371q-28 -174 -229 -197q87 -16 132.5 -67t32.5 -127l-73 -453q-21 -132 7.5 -186.5t116.5 -51.5l-37 -231 q-97 0 -170 21.5t-117.5 60t-71 92t-29 116.5t6.5 134l76 473q9 56 -30 89.5t-102 28.5z" />
<glyph unicode="|" horiz-adv-x="505" d="M109 -147l272 1724h242l-273 -1724h-241z" />
<glyph unicode="}" horiz-adv-x="651" d="M-37 -498l37 231q85 -1 130 48.5t63 164.5l71 442q26 155 225 193q-89 9 -133.5 59t-29.5 139l60 382q23 150 -4.5 203.5t-115.5 50.5l39 242q92 0 163.5 -23.5t114 -65t68.5 -97t28.5 -120t-6.5 -133.5l-59 -418q-8 -57 32 -87t102 -31l-35 -216q-149 4 -166 -99 l-85 -511q-32 -193 -146 -273.5t-353 -80.5z" />
<glyph unicode="~" horiz-adv-x="856" d="M266 1201q37 35 60 54t59.5 44t73.5 36.5t77 11.5q46 0 105.5 -36t99.5 -36q90 -2 205 82l30 -122q-40 -41 -70.5 -67.5t-83.5 -53.5t-102 -27q-46 0 -113.5 36t-106.5 36q-17 0 -32 -1.5t-31 -6t-26 -7.5t-28.5 -12t-25.5 -12.5t-29.5 -16t-29.5 -16.5z" />
<glyph unicode="&#xa1;" horiz-adv-x="565" d="M46 -552l206 1092h235l-142 -1092h-299zM259 719l28 179q6 43 57 47h174q19 -2 31.5 -17t9.5 -36l-28 -173q-9 -49 -51 -54h-182q-45 2 -39 54z" />
<glyph unicode="&#xa2;" horiz-adv-x="993" d="M131.5 310q-8.5 111 14.5 269q17 100 39.5 178t48 133t59 94t66 62t75.5 35.5t81.5 16t89.5 2.5l33 198h177l-34 -205q174 -18 302 -60l-29 -178q-194 14 -376 14q-30 0 -46 -1t-39.5 -5t-36 -12.5t-30 -24.5t-28 -40t-23.5 -58.5t-23.5 -81t-21.5 -107.5 q-14 -83 -16 -139.5t6 -92.5t29.5 -55.5t50.5 -26.5t74 -7q84 0 183 5t156 9l57 5l-28 -180q-137 -63 -341 -68l-27 -184h-177l28 184q-81 1 -141.5 34.5t-102 104.5t-50 182z" />
<glyph unicode="&#xa3;" horiz-adv-x="1191" d="M78 0l35 222l143 42l60 378h-136l23 149l143 46l31 186q15 97 40.5 171t54 124.5t74 84.5t85 53t103 29t112.5 12t129 2q52 0 145 -8.5t160 -16.5l67 -8l-35 -229h-380q-75 0 -117.5 -7.5t-75.5 -31.5t-49.5 -67t-28.5 -117l-28 -177l448 -35l-25 -160h-453l-60 -378h614 l-43 -264h-1036z" />
<glyph unicode="&#xa4;" horiz-adv-x="919" d="M142 368l113 98q-39 88 -26 172q14 94 67 165l-84 95l115 100l79 -92q91 58 192 58q108 0 182 -57l112 98l91 -103l-118 -102q35 -79 21 -169q-17 -111 -86 -192l84 -98l-114 -102l-91 104q-69 -40 -169 -40q-96 0 -170 54l-109 -96zM392 637q-11 -70 29.5 -120 t108.5 -51q78 -1 129.5 46.5t65.5 120.5q14 68 -27.5 119.5t-114.5 50.5q-75 -1 -127 -48.5t-64 -117.5z" />
<glyph unicode="&#xa5;" horiz-adv-x="1298" d="M244 285l26 166h282l11 74h-281l28 166h206l-249 808h310l168 -672l417 672h342l-554 -808h234l-27 -166h-307l-11 -74h306l-26 -166h-305l-41 -285h-286l41 285h-284z" />
<glyph unicode="&#xa6;" horiz-adv-x="507" d="M109 -147l106 671h242l-107 -671h-241zM271 879l110 698h242l-111 -698h-241z" />
<glyph unicode="&#xa7;" horiz-adv-x="1105" d="M163 23l32 202h487q46 0 69.5 12.5t30.5 51.5l12 81q7 39 -10 53t-64 14h-249q-143 0 -220.5 70t-55.5 205l11 70q6 39 13 64t23.5 57.5t48 55t77.5 36.5q-119 68 -91 236l14 98q38 277 335 277q130 0 312 -11.5t255 -27.5l-31 -203h-494q-42 0 -64 -17t-29 -56l-11 -71 q-5 -34 13.5 -53t57.5 -19h252q153 0 225 -70.5t52 -198.5l-12 -71q-25 -176 -154 -209q35 -8 56.5 -34.5t27.5 -62.5t6 -66t-5 -61l-17 -116q-14 -87 -43 -143.5t-75 -84.5t-94 -37.5t-118 -9.5q-143 0 -324 11t-249 28zM489 750q-8 -51 11 -66.5t69 -15.5h176q43 0 66 10 t30.5 26t12.5 48l13 77q4 28 3 47.5t-21.5 30.5t-64.5 11h-176q-57 0 -77 -19.5t-29 -73.5z" />
<glyph unicode="&#xa8;" horiz-adv-x="915" d="M266 1192q7 49 48.5 84t91.5 35t79 -35t22 -84q-8 -50 -49 -85.5t-90 -35.5t-79.5 35.5t-22.5 85.5zM788 1192q7 49 48.5 84t91.5 35t79 -35t22 -84q-8 -50 -49 -85.5t-90 -35.5t-79.5 35.5t-22.5 85.5z" />
<glyph unicode="&#xa9;" horiz-adv-x="1632" d="M185 597.5q1 88.5 15 178.5q19 124 47 223.5t78 196t117.5 160.5t168 103.5t227.5 39.5h465q85 0 151 -25t109.5 -67t72 -103t42 -127.5t15.5 -146.5t-4 -154.5t-19 -155.5q-56 -352 -207 -536t-383 -184h-464q-95 0 -171 33t-124.5 91t-80.5 133t-44 163.5t-11 177z M372.5 532.5q5.5 -104.5 31.5 -184t84.5 -126t143.5 -46.5h459q67 0 125.5 32t110 99.5t92 180.5t64.5 266q10 62 16 110t9 110t-1.5 108t-18.5 94t-38.5 78t-66 49.5t-97.5 19.5h-474q-58 0 -107 -14t-99 -52.5t-89.5 -101t-73.5 -164t-55 -237.5q-21 -117 -15.5 -221.5z M562.5 550.5q-8.5 88.5 9.5 216.5q20 126 55 211.5t83.5 131.5t102.5 65t124 19q74 0 182 -13t185 -36l-23 -152q-176 25 -326 25q-83 0 -127.5 -62t-69.5 -215q-21 -133 6.5 -198.5t112.5 -65.5q154 0 340 33l-23 -152q-148 -57 -388 -57q-63 0 -112.5 25t-86 80.5t-45 144 z" />
<glyph unicode="&#xaa;" horiz-adv-x="745" d="M131 538l21 141h658l-22 -141h-657zM190 987q-9 78 10 186q16 86 47 148.5t64 95.5t80 52.5t79.5 24.5t79.5 7q89 4 199 -18.5t157 -68.5l-95 -646h-146l-32 99q-28 -47 -97.5 -77.5t-136.5 -30.5q-49 0 -92 24t-75.5 75t-41.5 129zM398 1142q-31 -195 76 -195 q103 0 176 83l42 289q-34 12 -81.5 16t-77.5 -3q-24 -6 -40.5 -14.5t-37 -27.5t-35 -56t-22.5 -92z" />
<glyph unicode="&#xab;" horiz-adv-x="1183" d="M192 725l488 416l134 -157l-322 -277l237 -277l-172 -131zM633 725l488 416l134 -157l-323 -277l238 -277l-172 -131z" />
<glyph unicode="&#xac;" horiz-adv-x="1009" d="M145 490l37 231h874q-9 -58 -31.5 -197.5t-31.5 -197.5h-230l26 164h-644z" />
<glyph unicode="&#xad;" horiz-adv-x="722" d="M115 473l38 242h643l-38 -242h-643z" />
<glyph unicode="&#xae;" horiz-adv-x="1632" d="M185 597.5q1 88.5 15 178.5q19 124 47 223.5t78 196t117.5 160.5t168 103.5t227.5 39.5h465q85 0 151 -25t109.5 -67t72 -103t42 -127.5t15.5 -146.5t-4 -154.5t-19 -155.5q-56 -352 -207 -536t-383 -184h-464q-95 0 -171 33t-124.5 91t-80.5 133t-44 163.5t-11 177z M372.5 532.5q5.5 -104.5 31.5 -184t84.5 -126t143.5 -46.5h459q67 0 125.5 32t110 99.5t92 180.5t64.5 266q10 62 16 110t9 110t-1.5 108t-18.5 94t-38.5 78t-66 49.5t-97.5 19.5h-474q-58 0 -107 -14t-99 -52.5t-89.5 -101t-73.5 -164t-55 -237.5q-21 -117 -15.5 -221.5z M552 313l139 875h374q51 0 93 -12.5t79 -41.5t53 -86.5t5 -138.5q-8 -58 -23.5 -102.5t-33.5 -70.5t-45.5 -45t-48.5 -27.5t-52 -17.5l126 -333h-203l-119 326l-101 25l-56 -351h-187zM816 799h154q79 0 103 20t35 93q10 65 -14.5 82.5t-89.5 17.5h-154z" />
<glyph unicode="&#xaf;" horiz-adv-x="751" d="M250 1087l26 163h598l-26 -163h-598z" />
<glyph unicode="&#xb0;" horiz-adv-x="563" d="M278 1294q4 87 67.5 147t150.5 60t144.5 -60t53.5 -147t-66.5 -145t-149.5 -58t-145.5 58t-54.5 145zM396 1294q-1 -37 24.5 -63t63.5 -26q37 0 63.5 25.5t28.5 63.5t-22.5 65t-61.5 27q-38 0 -66.5 -27.5t-29.5 -64.5z" />
<glyph unicode="&#xb1;" horiz-adv-x="1024" d="M110 144l38 242h852l-38 -242h-852zM213 781l37 242h303l48 305h242l-48 -305h307l-37 -242h-308l-49 -305h-242l50 305h-303z" />
<glyph unicode="&#xb2;" horiz-adv-x="815" d="M138 728l31 195q48 30 73.5 46.5t89.5 59.5t105 73.5t97.5 76.5t91 81.5t62 75.5t32.5 72q10 66 -20.5 91t-117.5 25h-325q-1 0 1.5 17t6.5 41.5l8 49t7 41.5l3 17q83 14 126 20.5t119 12.5t160 6q74 0 130.5 -29.5t86 -76t40.5 -101t2 -108.5q-7 -49 -27 -97t-51.5 -91 t-61.5 -78.5t-71.5 -72t-67 -58t-63 -50t-45.5 -34.5h309l-33 -205h-698z" />
<glyph unicode="&#xb3;" horiz-adv-x="833" d="M141 759l28 163l327 1q74 0 110 18t43 66l4 26q8 51 -21.5 70.5t-95.5 21.5l-252 9l28 179l256 10q73 3 107 21t41 63l2 25q9 47 -20 65t-99 18h-346l25 162q87 30 189.5 37t254.5 4q117 -1 178 -76t43 -185l-10 -61q-12 -75 -49 -122t-94 -59q54 -21 74 -79.5t8 -132.5 l-9 -49q-19 -119 -94 -177.5t-215 -57.5h-46h-47.5t-43 0.5t-45 1t-40.5 2t-42.5 3.5t-38 5t-39.5 7t-35 9.5t-36 11.5z" />
<glyph unicode="&#xb4;" horiz-adv-x="497" d="M203 1087l230 284h251l-295 -284h-186z" />
<glyph unicode="&#xb5;" horiz-adv-x="1202" d="M52 -553l145 917l115 723h287l-116 -728q-23 -147 97 -147q83 0 143 21.5t135 72.5l124 781h287l-172 -1087h-231l-38 116q-13 -7 -53 -29.5t-57.5 -31t-49.5 -23.5t-60 -22.5t-58 -11.5q-61 -8 -122 10l-89 -561h-287z" />
<glyph unicode="&#xb6;" horiz-adv-x="1179" d="M220 958q-2 45 3 89l28 190q12 77 45.5 130t85 81t108 39.5t128.5 11.5h770l-34 -212h-107l-204 -1287h-208l205 1291h-136l-292 -1844h-208l207 1315q-2 -1 -14.5 -7t-25.5 -12t-35 -11t-44 -5q-66 0 -118 19.5t-82 51.5t-50 73.5t-22 86.5zM435 983.5q6 -24.5 25 -34 t34.5 -12t41.5 -2.5h102l58 359h-100q-75 0 -103.5 -27t-38.5 -95l-19 -126q-6 -38 0 -62.5z" />
<glyph unicode="&#xb7;" horiz-adv-x="536" d="M241 696l29 184q7 51 58 51h176q52 0 43 -51l-30 -184q-8 -47 -57 -47h-176q-22 0 -34 13t-9 34z" />
<glyph unicode="&#xb8;" horiz-adv-x="497" d="M20 -366l20 124l95 30q43 18 58 45t25 91h194q-25 -160 -85 -225t-191 -65h-116z" />
<glyph unicode="&#xb9;" horiz-adv-x="571" d="M224 1442l24 151q51 0 132.5 44t112.5 80h217l-157 -989h-221l123 760q-58 -46 -231 -46z" />
<glyph unicode="&#xba;" horiz-adv-x="788" d="M158 540l21 142h661l-22 -142h-660zM232 1143q17 109 45.5 178t77 111t113.5 58t164 16q183 1 253.5 -92.5t36.5 -308.5q-21 -135 -64 -207.5t-121.5 -103.5t-215.5 -31q-182 0 -251 92.5t-38 287.5zM433 1039q0 -34 5.5 -53.5t23.5 -29t35.5 -12t50.5 -2.5q29 0 44.5 1 t34.5 6t29.5 16.5t22 32t19.5 51.5t15 76q9 59 11 93t-1.5 58t-19.5 34t-36 13.5t-58 3.5q-46 0 -70 -5t-44.5 -26.5t-31.5 -60t-22 -110.5q-8 -52 -8 -86z" />
<glyph unicode="&#xbb;" horiz-adv-x="1179" d="M149 459l326 284l-226 259l164 139l359 -421l-483 -421zM594 459l326 284l-228 259l165 139l360 -421l-483 -421z" />
<glyph unicode="&#xbc;" horiz-adv-x="1980" d="M224 1237l24 152q52 0 133.5 44t111.5 79h217l-157 -989h-221l123 760q-58 -46 -231 -46zM393 0l1091 1577h215l-1091 -1577h-215zM1150 295l460 690h241l-375 -575h224l33 210l66 102h166l-50 -312h99l-27 -174l-108 -35l-28 -200h-215l31 199h-474z" />
<glyph unicode="&#xbd;" horiz-adv-x="2076" d="M224 1237l24 152q52 0 133.5 44t111.5 79h217l-157 -989h-221l123 760q-58 -46 -231 -46zM382 0l1091 1577h215l-1091 -1577h-215zM1319 -1l31 195q48 30 73.5 46.5t89.5 59.5t105 73.5t97.5 76.5t91 81.5t62 75.5t32.5 72q10 66 -20 91t-117 25h-325q-1 0 1.5 17t6 41.5 t7.5 49t7 41.5l3 17q83 14 126 20.5t119 12.5t160 6q74 0 130.5 -29.5t86 -76t40.5 -101t2 -108.5q-7 -49 -27 -97t-51.5 -91t-61.5 -78.5t-71.5 -72t-67 -58t-63 -50t-45.5 -34.5h309l-33 -205h-698z" />
<glyph unicode="&#xbe;" horiz-adv-x="2209" d="M141 554l28 164l327 1q74 0 110 17.5t43 65.5l4 27q8 51 -21 70t-96 21l-252 9l28 179l256 10q73 3 107 21.5t41 63.5l2 24q9 47 -20 65t-99 18h-346l25 162q87 30 191 37.5t253 4.5q117 -1 178 -76t43 -185l-10 -62q-12 -75 -49 -122t-94 -59q54 -21 74 -79.5t8 -132.5 l-9 -48q-19 -119 -94 -178t-215 -58h-46h-47.5t-43 0.5t-45 1t-40.5 2t-42.5 3.5t-38 5t-39.5 7t-35 9.5t-36 11.5zM598 0l1092 1577h215l-1092 -1577h-215zM1332 295l461 690h240l-376 -575h225l33 210l66 102h166l-50 -312h98l-26 -174l-108 -35l-28 -200h-216l32 199 h-475z" />
<glyph unicode="&#xbf;" horiz-adv-x="1105" d="M32 -224.5q-6 51.5 4 101.5l24 150q34 213 160 293t364 60l16 90q15 91 14 95h232l-63 -400q-157 3 -235 0q-178 -7 -203 -167l-18 -110q-15 -95 31.5 -135t165.5 -40h510l-33 -210q-172 -33 -299.5 -46.5t-287.5 -6.5q-72 0 -133 17.5t-103.5 48.5t-75.5 72.5 t-48.5 88.5t-21.5 98.5zM623 732l29 185q7 47 56 47h178q22 0 33.5 -12.5t8.5 -34.5l-29 -185q-7 -51 -57 -51h-178q-49 0 -41 51z" />
<glyph unicode="&#xc0;" horiz-adv-x="1409" d="M70 0l743 1499h326l250 -1499h-294l-59 332h-486l-164 -332h-316zM665 586h343l-84 544zM688 1916h244l158 -284h-186z" />
<glyph unicode="&#xc1;" horiz-adv-x="1409" d="M70 0l743 1499h326l250 -1499h-294l-59 332h-486l-164 -332h-316zM665 586h343l-84 544zM904 1632l230 284h251l-295 -284h-186z" />
<glyph unicode="&#xc2;" horiz-adv-x="1409" d="M70 0l743 1499h326l250 -1499h-294l-59 332h-486l-164 -332h-316zM665 586h343l-84 544zM682 1632l264 278h213l155 -278h-185l-88 134l-148 -134h-211z" />
<glyph unicode="&#xc3;" horiz-adv-x="1409" d="M70 0l743 1499h326l250 -1499h-294l-59 332h-486l-164 -332h-316zM664 1746q152 142 270 142q51 -2 111 -36.5t93 -34.5q46 -2 110.5 24t94.5 52l30 -122q-48 -42 -78 -66t-81.5 -48t-96.5 -24q-42 0 -80.5 18t-72 35.5t-65.5 17.5q-40 0 -77.5 -11.5t-59 -22.5 t-67.5 -38zM665 586h343l-84 544z" />
<glyph unicode="&#xc4;" horiz-adv-x="1409" d="M70 0l743 1499h326l250 -1499h-294l-59 332h-486l-164 -332h-316zM636 1754q7 49 48.5 84t91.5 35t79 -35t22 -84q-8 -50 -49 -86t-90 -36t-79.5 36t-22.5 86zM665 586h343l-84 544zM1158 1754q7 49 48.5 84t91.5 35t79 -35t22 -84q-8 -50 -49 -86t-90 -36t-79.5 36 t-22.5 86z" />
<glyph unicode="&#xc5;" horiz-adv-x="1409" d="M70 0l743 1499h326l250 -1499h-294l-59 332h-486l-164 -332h-316zM665 586h343l-84 544zM793 1702q7 87 72.5 147t152.5 60t142.5 -60t48.5 -147q-7 -88 -71.5 -147.5t-150.5 -59.5q-87 0 -144 60t-50 147zM913 1702q-4 -36 20 -61.5t61 -25.5t64 25t31 62t-19 63t-60 26 t-65 -26t-32 -63z" />
<glyph unicode="&#xc6;" horiz-adv-x="2080" d="M47 0l766 1178q51 78 106 135.5t108.5 91.5t110.5 56t112.5 29t114.5 10t116 -1q507 -15 635 -33l-37 -238h-573q-37 0 -60.5 -8.5t-35.5 -28t-16.5 -33.5t-9.5 -42l-38 -240l580 -21l-36 -236l-589 -20l-37 -231q-2 -16 -2.5 -29t2 -23t5.5 -18t9.5 -13.5t11.5 -9.5 t14.5 -6.5t15 -4t17 -2t17 -0.5h17.5h5h550l-39 -235q-52 -7 -207 -16t-284 -14l-128 -5q-45 -3 -89.5 3t-89.5 23.5t-76.5 46t-47 77t-6.5 109.5l22 149h-351l-263 -400h-320zM791 653h231l79 480z" />
<glyph unicode="&#xc7;" horiz-adv-x="1169" d="M182.5 539q1.5 116 22.5 250q30 188 73.5 316.5t116 224.5t180.5 141t259 45q278 0 512 -73l-36 -225q-245 35 -447 33q-94 -1 -134 -14q-100 -33 -160 -182q-45 -114 -75 -305q-28 -166 -20.5 -275.5t61.5 -164t164 -58.5q170 -3 464 17l-35 -224q-109 -36 -230 -47.5 t-302 -9.5q-111 1 -193 43t-129.5 114.5t-70 175t-21 218.5zM360 -364l20 123l95 30q43 15 58.5 43t25.5 93h193q-25 -159 -85 -224t-191 -65h-116z" />
<glyph unicode="&#xc8;" horiz-adv-x="1146" d="M162 308l141 891q12 74 39 128.5t62 87.5t81.5 52.5t92.5 26t101 5.5q502 -15 632 -33l-38 -237h-570q-37 0 -61.5 -9t-36.5 -28t-17 -35t-9 -42l-36 -230l579 -21l-39 -236l-584 -19l-39 -239q-6 -38 0.5 -61t26.5 -32t35.5 -11t44.5 -2h5h550l-39 -235 q-53 -7 -208.5 -16t-284.5 -14l-130 -5q-47 -2 -91 5t-88 28.5t-74 56t-43.5 92.5t-1.5 132zM562 1906h244l158 -284h-186z" />
<glyph unicode="&#xc9;" horiz-adv-x="1146" d="M162 308l141 891q12 74 39 128.5t62 87.5t81.5 52.5t92.5 26t101 5.5q502 -15 632 -33l-38 -237h-570q-37 0 -61.5 -9t-36.5 -28t-17 -35t-9 -42l-36 -230l579 -21l-39 -236l-584 -19l-39 -239q-6 -38 0.5 -61t26.5 -32t35.5 -11t44.5 -2h5h550l-39 -235 q-53 -7 -208.5 -16t-284.5 -14l-130 -5q-47 -2 -91 5t-88 28.5t-74 56t-43.5 92.5t-1.5 132zM781 1622l231 284h251l-295 -284h-187z" />
<glyph unicode="&#xca;" horiz-adv-x="1146" d="M162 308l141 891q12 74 39 128.5t62 87.5t81.5 52.5t92.5 26t101 5.5q502 -15 632 -33l-38 -237h-570q-37 0 -61.5 -9t-36.5 -28t-17 -35t-9 -42l-36 -230l579 -21l-39 -236l-584 -19l-39 -239q-6 -38 0.5 -61t26.5 -32t35.5 -11t44.5 -2h5h550l-39 -235 q-53 -7 -208.5 -16t-284.5 -14l-130 -5q-47 -2 -91 5t-88 28.5t-74 56t-43.5 92.5t-1.5 132zM563 1622l265 278h213l154 -278h-188l-83 131l-134 -131h-227z" />
<glyph unicode="&#xcb;" horiz-adv-x="1146" d="M162 308l141 891q12 74 39 128.5t62 87.5t81.5 52.5t92.5 26t101 5.5q502 -15 632 -33l-38 -237h-570q-37 0 -61.5 -9t-36.5 -28t-17 -35t-9 -42l-36 -230l579 -21l-39 -236l-584 -19l-39 -239q-6 -38 0.5 -61t26.5 -32t35.5 -11t44.5 -2h5h550l-39 -235 q-53 -7 -208.5 -16t-284.5 -14l-130 -5q-47 -2 -91 5t-88 28.5t-74 56t-43.5 92.5t-1.5 132zM494 1726q7 49 48.5 84.5t91.5 35.5q49 0 79 -35t22 -85t-49 -85.5t-90 -35.5t-79.5 35.5t-22.5 85.5zM1017 1726q7 49 48.5 84.5t91.5 35.5q49 0 78.5 -35t21.5 -85t-49 -85.5 t-90 -35.5t-79 35.5t-22 85.5z" />
<glyph unicode="&#xcc;" horiz-adv-x="524" d="M134 0l237 1499h287l-238 -1499h-286zM227 1916h244l158 -284h-186z" />
<glyph unicode="&#xcd;" horiz-adv-x="524" d="M134 0l237 1499h287l-238 -1499h-286zM443 1632l230 284h251l-295 -284h-186z" />
<glyph unicode="&#xce;" horiz-adv-x="524" d="M134 0l237 1499h287l-238 -1499h-286zM220 1632l264 278h213l154 -278h-185l-87 134l-148 -134h-211z" />
<glyph unicode="&#xcf;" horiz-adv-x="524" d="M134 0l237 1499h287l-238 -1499h-286zM174 1754q7 49 48.5 84t91.5 35t79 -35t22 -84q-8 -50 -49.5 -86t-90.5 -36t-79 36t-22 86zM696 1754q7 49 48.5 84t91.5 35t79 -35t22 -84q-8 -50 -49 -86t-90 -36t-79.5 36t-22.5 86z" />
<glyph unicode="&#xd0;" horiz-adv-x="1335" d="M101 697l22 133h133l105 668q0 1 615 1q90 0 161 -26t117.5 -69.5t78.5 -106t47 -131t18.5 -149t-2 -154.5t-18.5 -153q-61 -369 -205 -539.5t-412 -170.5h-638l111 697h-133zM451 256h306q255 0 333 489q21 146 22.5 242.5t-24 154t-67 81t-107.5 23.5h-307l-65 -416 h229l-22 -133h-228z" />
<glyph unicode="&#xd1;" horiz-adv-x="1370" d="M124 0l238 1499h287l426 -974l153 974h287l-238 -1499h-283l-429 963l-152 -963h-289zM619 1741q152 142 270 142q51 -2 111.5 -36.5t93.5 -34.5q46 -2 109.5 24.5t94.5 52.5l30 -122q-48 -42 -78 -66t-81.5 -48t-96.5 -24q-42 0 -80.5 18t-72 35t-65.5 17q-40 0 -77 -11 t-59 -22.5t-67 -37.5z" />
<glyph unicode="&#xd2;" horiz-adv-x="1363" d="M187 509.5q2 113.5 25 257.5q23 148 57 262t71 192t90.5 132.5t101.5 84.5t120 46.5t130 20.5t145 4q82 0 145 -8t125.5 -29.5t105.5 -58.5t77 -98t48.5 -143.5t12.5 -198.5t-25 -262q-17 -109 -40 -199t-49.5 -159t-61 -122.5t-69 -91.5t-81 -65t-89 -43t-99 -24.5 t-106.5 -11.5t-117 -3q-82 0 -144.5 7t-125.5 27.5t-106 55.5t-78 93.5t-50 139.5t-13 194.5zM476 561q-6 -73 0.5 -128.5t23 -88.5t51 -53.5t77.5 -27.5t109 -7q91 0 149.5 18.5t107 71.5t80 147t55.5 246q14 87 20.5 155.5t4.5 120.5t-9 89.5t-24.5 63t-37 40.5 t-51.5 23.5t-62.5 11t-75.5 2.5q-47 0 -78 -2t-66.5 -10t-58.5 -22.5t-49 -39.5t-44 -62t-36.5 -89.5t-33.5 -121.5t-29 -159q-17 -105 -23 -178zM637 1916h244l158 -284h-186z" />
<glyph unicode="&#xd3;" horiz-adv-x="1363" d="M187 509.5q2 113.5 25 257.5q23 148 57 262t71 192t90.5 132.5t101.5 84.5t120 46.5t130 20.5t145 4q82 0 145 -8t125.5 -29.5t105.5 -58.5t77 -98t48.5 -143.5t12.5 -198.5t-25 -262q-17 -109 -40 -199t-49.5 -159t-61 -122.5t-69 -91.5t-81 -65t-89 -43t-99 -24.5 t-106.5 -11.5t-117 -3q-82 0 -144.5 7t-125.5 27.5t-106 55.5t-78 93.5t-50 139.5t-13 194.5zM476 561q-6 -73 0.5 -128.5t23 -88.5t51 -53.5t77.5 -27.5t109 -7q91 0 149.5 18.5t107 71.5t80 147t55.5 246q14 87 20.5 155.5t4.5 120.5t-9 89.5t-24.5 63t-37 40.5 t-51.5 23.5t-62.5 11t-75.5 2.5q-47 0 -78 -2t-66.5 -10t-58.5 -22.5t-49 -39.5t-44 -62t-36.5 -89.5t-33.5 -121.5t-29 -159q-17 -105 -23 -178zM853 1632l231 284h250l-295 -284h-186z" />
<glyph unicode="&#xd4;" horiz-adv-x="1363" d="M187 509.5q2 113.5 25 257.5q23 148 57 262t71 192t90.5 132.5t101.5 84.5t120 46.5t130 20.5t145 4q82 0 145 -8t125.5 -29.5t105.5 -58.5t77 -98t48.5 -143.5t12.5 -198.5t-25 -262q-17 -109 -40 -199t-49.5 -159t-61 -122.5t-69 -91.5t-81 -65t-89 -43t-99 -24.5 t-106.5 -11.5t-117 -3q-82 0 -144.5 7t-125.5 27.5t-106 55.5t-78 93.5t-50 139.5t-13 194.5zM476 561q-6 -73 0.5 -128.5t23 -88.5t51 -53.5t77.5 -27.5t109 -7q91 0 149.5 18.5t107 71.5t80 147t55.5 246q14 87 20.5 155.5t4.5 120.5t-9 89.5t-24.5 63t-37 40.5 t-51.5 23.5t-62.5 11t-75.5 2.5q-47 0 -78 -2t-66.5 -10t-58.5 -22.5t-49 -39.5t-44 -62t-36.5 -89.5t-33.5 -121.5t-29 -159q-17 -105 -23 -178zM631 1632l264 278h213l155 -278h-185l-88 134l-148 -134h-211z" />
<glyph unicode="&#xd5;" horiz-adv-x="1363" d="M187 509.5q2 113.5 25 257.5q23 148 57 262t71 192t90.5 132.5t101.5 84.5t120 46.5t130 20.5t145 4q82 0 145 -8t125.5 -29.5t105.5 -58.5t77 -98t48.5 -143.5t12.5 -198.5t-25 -262q-17 -109 -40 -199t-49.5 -159t-61 -122.5t-69 -91.5t-81 -65t-89 -43t-99 -24.5 t-106.5 -11.5t-117 -3q-82 0 -144.5 7t-125.5 27.5t-106 55.5t-78 93.5t-50 139.5t-13 194.5zM476 561q-6 -73 0.5 -128.5t23 -88.5t51 -53.5t77.5 -27.5t109 -7q91 0 149.5 18.5t107 71.5t80 147t55.5 246q14 87 20.5 155.5t4.5 120.5t-9 89.5t-24.5 63t-37 40.5 t-51.5 23.5t-62.5 11t-75.5 2.5q-47 0 -78 -2t-66.5 -10t-58.5 -22.5t-49 -39.5t-44 -62t-36.5 -89.5t-33.5 -121.5t-29 -159q-17 -105 -23 -178zM611 1746q152 142 271 142q51 -2 111 -36.5t93 -34.5q46 -2 110.5 24t94.5 52l30 -122q-48 -42 -78 -66t-81.5 -48t-96.5 -24 q-42 0 -80.5 18t-72 35.5t-65.5 17.5q-40 0 -77.5 -11.5t-59 -22.5t-67.5 -38z" />
<glyph unicode="&#xd6;" horiz-adv-x="1363" d="M187 509.5q2 113.5 25 257.5q23 148 57 262t71 192t90.5 132.5t101.5 84.5t120 46.5t130 20.5t145 4q82 0 145 -8t125.5 -29.5t105.5 -58.5t77 -98t48.5 -143.5t12.5 -198.5t-25 -262q-17 -109 -40 -199t-49.5 -159t-61 -122.5t-69 -91.5t-81 -65t-89 -43t-99 -24.5 t-106.5 -11.5t-117 -3q-82 0 -144.5 7t-125.5 27.5t-106 55.5t-78 93.5t-50 139.5t-13 194.5zM476 561q-6 -73 0.5 -128.5t23 -88.5t51 -53.5t77.5 -27.5t109 -7q91 0 149.5 18.5t107 71.5t80 147t55.5 246q14 87 20.5 155.5t4.5 120.5t-9 89.5t-24.5 63t-37 40.5 t-51.5 23.5t-62.5 11t-75.5 2.5q-47 0 -78 -2t-66.5 -10t-58.5 -22.5t-49 -39.5t-44 -62t-36.5 -89.5t-33.5 -121.5t-29 -159q-17 -105 -23 -178zM585 1754q7 49 48.5 84t91.5 35t79 -35t22 -84q-8 -50 -49 -86t-90 -36t-79.5 36t-22.5 86zM1107 1754q7 49 48.5 84t91.5 35 t79 -35t22 -84q-8 -50 -49 -86t-90 -36t-79.5 36t-22.5 86z" />
<glyph unicode="&#xd7;" horiz-adv-x="944" d="M168 515l247 214l-178 214l185 164l180 -214l264 225l144 -173l-265 -228l182 -216l-185 -153l-177 209l-250 -221z" />
<glyph unicode="&#xd8;" horiz-adv-x="1363" d="M87 0l150 177q-44 85 -52.5 235.5t23.5 360.5q23 148 57 261.5t71 191.5t91 131.5t101.5 83t120.5 45t130 19.5t145 4q125 0 214.5 -17t152.5 -63l58 70h153l-131 -156q52 -87 63.5 -246t-22.5 -391q-17 -109 -40 -198.5t-49 -158.5t-61 -122.5t-69.5 -91t-80.5 -64 t-88 -42t-99.5 -24t-107 -11t-116.5 -2.5q-137 0 -232 18.5t-159 72.5l-70 -83h-153zM482 463l611 736q-30 28 -78 37t-125 9q-47 0 -78 -2t-66.5 -10t-58.5 -22.5t-49 -39.5t-44 -62t-36.5 -89.5t-33.5 -121.5t-29 -159q-30 -189 -13 -276zM514 322q29 -37 81.5 -51.5 t138.5 -14.5q91 0 149.5 18.5t107 71.5t79.5 147t55 246q36 237 15 336z" />
<glyph unicode="&#xd9;" horiz-adv-x="1337" d="M206 453.5q0 98.5 19 219.5l133 826h287l-136 -860q-35 -216 9.5 -300.5t204.5 -84.5q159 0 231 88.5t105 296.5l136 860h289l-130 -894q-23 -147 -66 -254.5t-99.5 -176.5t-136 -110.5t-166.5 -57.5t-201 -16q-70 0 -126.5 7.5t-113.5 27t-98 52t-74.5 85t-50 123 t-16.5 169zM633 1916h243l159 -284h-186z" />
<glyph unicode="&#xda;" horiz-adv-x="1337" d="M206 453.5q0 98.5 19 219.5l133 826h287l-136 -860q-35 -216 9.5 -300.5t204.5 -84.5q159 0 231 88.5t105 296.5l136 860h289l-130 -894q-23 -147 -66 -254.5t-99.5 -176.5t-136 -110.5t-166.5 -57.5t-201 -16q-70 0 -126.5 7.5t-113.5 27t-98 52t-74.5 85t-50 123 t-16.5 169zM849 1632l230 284h251l-295 -284h-186z" />
<glyph unicode="&#xdb;" horiz-adv-x="1337" d="M206 453.5q0 98.5 19 219.5l133 826h287l-136 -860q-35 -216 9.5 -300.5t204.5 -84.5q159 0 231 88.5t105 296.5l136 860h289l-130 -894q-23 -147 -66 -254.5t-99.5 -176.5t-136 -110.5t-166.5 -57.5t-201 -16q-70 0 -126.5 7.5t-113.5 27t-98 52t-74.5 85t-50 123 t-16.5 169zM626 1632l265 278h213l154 -278h-185l-87 134l-148 -134h-212z" />
<glyph unicode="&#xdc;" horiz-adv-x="1337" d="M206 453.5q0 98.5 19 219.5l133 826h287l-136 -860q-35 -216 9.5 -300.5t204.5 -84.5q159 0 231 88.5t105 296.5l136 860h289l-130 -894q-23 -147 -66 -254.5t-99.5 -176.5t-136 -110.5t-166.5 -57.5t-201 -16q-70 0 -126.5 7.5t-113.5 27t-98 52t-74.5 85t-50 123 t-16.5 169zM581 1754q7 49 48.5 84t91.5 35q49 0 78.5 -34.5t21.5 -84.5t-49 -86t-90 -36t-79 36t-22 86zM1103 1754q7 49 48.5 84t91.5 35t79 -35t22 -84q-8 -50 -49 -86t-90 -36t-79.5 36t-22.5 86z" />
<glyph unicode="&#xdd;" horiz-adv-x="1343" d="M285 1499h309l172 -716l428 716h328l-657 -1034l-74 -465h-287l74 465zM831 1632l231 284h251l-295 -284h-187z" />
<glyph unicode="&#xde;" horiz-adv-x="1116" d="M94 0q39 249 117.5 746.5t117.5 746.5h287l-45 -289h302q39 0 75.5 -8t76 -27.5t68 -52t51.5 -83t26.5 -119.5t-6.5 -161q-12 -88 -34.5 -157.5t-47 -115t-61 -78.5t-67 -50t-74 -27t-72.5 -12t-73 -3h-94.5t-101 10t-102.5 30l-57 -350h-286zM470 563h212q48 0 75 6 t52 26.5t39.5 61t25.5 109.5q5 33 5.5 59t-4.5 44.5t-11.5 32.5t-18.5 22.5t-22 14t-26 8t-27 3t-28 0.5h-212z" />
<glyph unicode="&#xdf;" horiz-adv-x="1171" d="M94 0l184 1159q15 93 52.5 169.5t102.5 139t168 97t236 34.5q122 0 212.5 -27.5t141 -74.5t76 -107.5t22 -127.5t-24.5 -134t-60.5 -127.5t-90.5 -107.5q-23 -20 -73 -51t-75.5 -58.5t-32.5 -67.5q-5 -28 9 -50.5t40 -38.5t58 -32t63.5 -36.5t56 -47t35.5 -68.5t3 -95 l-10 -63q-14 -88 -53.5 -150.5t-97 -93.5t-116 -44t-126.5 -13q-23 0 -44 0.5t-42 2.5t-36.5 3.5t-36.5 5t-30.5 4.5t-31 6t-26 5.5t-27 6t-23.5 5.5l30 202q158 -11 232 -11q53 0 93.5 28.5t50.5 86.5l7 41q4 29 -9.5 50.5t-38.5 36.5t-55.5 29t-60.5 33t-54 43t-35 63.5 t-3 90.5q15 103 60 158.5t165 131.5q98 70 113 173q13 95 -31 127t-145 32q-118 0 -180.5 -60.5t-87.5 -219.5l-168 -1058h-286z" />
<glyph unicode="&#xe0;" horiz-adv-x="1110" d="M137 322q-8 118 21 286q18 94 46 169t59 125.5t72.5 88t79 58.5t86 34.5t85.5 18t85 6.5q135 7 286 -25.5t223 -101.5l-143 -979h-221l-44 112q-41 -51 -136.5 -88.5t-192.5 -37.5q-83 0 -146 33.5t-107.5 108t-52.5 192.5zM413 1516h244l158 -283h-186zM423 380 q2 -72 32.5 -110.5t92.5 -38.5q83 0 139 25.5t110 77.5l78 524q-49 17 -110.5 23t-107.5 -4q-34 -7 -55 -14.5t-49.5 -28t-47.5 -52.5t-37.5 -89.5t-30.5 -136.5q-16 -104 -14 -176z" />
<glyph unicode="&#xe1;" horiz-adv-x="1110" d="M137 322q-8 118 21 286q18 94 46 169t59 125.5t72.5 88t79 58.5t86 34.5t85.5 18t85 6.5q135 7 286 -25.5t223 -101.5l-143 -979h-221l-44 112q-41 -51 -136.5 -88.5t-192.5 -37.5q-83 0 -146 33.5t-107.5 108t-52.5 192.5zM423 380q2 -72 32.5 -110.5t92.5 -38.5 q83 0 139 25.5t110 77.5l78 524q-49 17 -110.5 23t-107.5 -4q-34 -7 -55 -14.5t-49.5 -28t-47.5 -52.5t-37.5 -89.5t-30.5 -136.5q-16 -104 -14 -176zM638 1233l231 283h251l-295 -283h-187z" />
<glyph unicode="&#xe2;" horiz-adv-x="1110" d="M137 322q-8 118 21 286q18 94 46 169t59 125.5t72.5 88t79 58.5t86 34.5t85.5 18t85 6.5q135 7 286 -25.5t223 -101.5l-143 -979h-221l-44 112q-41 -51 -136.5 -88.5t-192.5 -37.5q-83 0 -146 33.5t-107.5 108t-52.5 192.5zM407 1233l265 277h213l154 -277h-185l-88 134 l-148 -134h-211zM423 380q2 -72 32.5 -110.5t92.5 -38.5q83 0 139 25.5t110 77.5l78 524q-49 17 -110.5 23t-107.5 -4q-34 -7 -55 -14.5t-49.5 -28t-47.5 -52.5t-37.5 -89.5t-30.5 -136.5q-16 -104 -14 -176z" />
<glyph unicode="&#xe3;" horiz-adv-x="1110" d="M137 322q-8 118 21 286q18 94 46 169t59 125.5t72.5 88t79 58.5t86 34.5t85.5 18t85 6.5q135 7 286 -25.5t223 -101.5l-143 -979h-221l-44 112q-41 -51 -136.5 -88.5t-192.5 -37.5q-83 0 -146 33.5t-107.5 108t-52.5 192.5zM395 1346q152 142 270 142q51 -2 111.5 -36.5 t93.5 -34.5q46 -2 110.5 24.5t94.5 52.5l29 -122q-48 -42 -78 -66t-81.5 -48t-96.5 -24q-42 0 -80.5 18t-71.5 35t-65 17q-40 0 -77 -11t-59.5 -22.5t-67.5 -37.5zM423 380q2 -72 32.5 -110.5t92.5 -38.5q83 0 139 25.5t110 77.5l78 524q-49 17 -110.5 23t-107.5 -4 q-34 -7 -55 -14.5t-49.5 -28t-47.5 -52.5t-37.5 -89.5t-30.5 -136.5q-16 -104 -14 -176z" />
<glyph unicode="&#xe4;" horiz-adv-x="1110" d="M137 322q-8 118 21 286q18 94 46 169t59 125.5t72.5 88t79 58.5t86 34.5t85.5 18t85 6.5q135 7 286 -25.5t223 -101.5l-143 -979h-221l-44 112q-41 -51 -136.5 -88.5t-192.5 -37.5q-83 0 -146 33.5t-107.5 108t-52.5 192.5zM360 1354q7 49 48.5 84t91.5 35t79 -35t22 -84 q-8 -50 -49 -85.5t-90 -35.5t-79.5 35.5t-22.5 85.5zM423 380q2 -72 32.5 -110.5t92.5 -38.5q83 0 139 25.5t110 77.5l78 524q-49 17 -110.5 23t-107.5 -4q-34 -7 -55 -14.5t-49.5 -28t-47.5 -52.5t-37.5 -89.5t-30.5 -136.5q-16 -104 -14 -176zM882 1354q7 49 48.5 84 t91.5 35t79 -35t22 -84q-8 -50 -49 -85.5t-90 -35.5t-79.5 35.5t-22.5 85.5z" />
<glyph unicode="&#xe5;" horiz-adv-x="1110" d="M137 322q-8 118 21 286q18 94 46 169t59 125.5t72.5 88t79 58.5t86 34.5t85.5 18t85 6.5q135 7 286 -25.5t223 -101.5l-143 -979h-221l-44 112q-41 -51 -136.5 -88.5t-192.5 -37.5q-83 0 -146 33.5t-107.5 108t-52.5 192.5zM423 380q2 -72 32.5 -110.5t92.5 -38.5 q83 0 139 25.5t110 77.5l78 524q-49 17 -110.5 23t-107.5 -4q-34 -7 -55 -14.5t-49.5 -28t-47.5 -52.5t-37.5 -89.5t-30.5 -136.5q-16 -104 -14 -176zM557 1439q7 87 72.5 147.5t152.5 60.5t142.5 -60.5t48.5 -147.5q-7 -88 -71.5 -147t-150.5 -59q-87 0 -144 59.5 t-50 146.5zM677 1439q-4 -36 20 -61.5t61 -25.5t64 25t31 62t-19 63t-60 26t-65 -26t-32 -63z" />
<glyph unicode="&#xe6;" horiz-adv-x="1738" d="M100.5 255.5q-32.5 139.5 11.5 356.5q15 75 35 138t42 109.5t50 83.5t54 62t60.5 43.5t61.5 29t65 17t64.5 9t65.5 4.5q90 6 205 -11t190 -53q115 63 298 64q75 0 138 -8t123 -30t100.5 -56.5t63 -90t17.5 -128.5q-6 -102 -45 -178t-95.5 -118t-127 -67t-139 -31 t-132.5 -3t-106.5 11t-61.5 16q-20 -123 14 -165.5t144 -43.5q175 -9 433 34l-35 -205q-259 -77 -555 -59q-176 9 -247 142q-60 -69 -176 -105.5t-218 -36.5q-112 0 -188.5 65t-109 204.5zM375.5 377q-0.5 -72 29.5 -110.5t96 -38.5q74 -1 144 20.5t99 56.5q-10 127 23 309 q31 160 71 241q-54 17 -118 23.5t-109 -1.5q-33 -7 -54.5 -14.5t-49.5 -29t-47 -53.5t-37.5 -90t-30.5 -137q-16 -104 -16.5 -176zM1061 615q7 -1 20 -3t51 -4t73 -1t78.5 9.5t77 23.5t59.5 44.5t33 70.5q13 72 -24.5 98t-129.5 25q-40 0 -72 -9.5t-53.5 -17.5t-40 -34.5 t-27 -36.5t-20 -50.5t-13 -49t-10.5 -56.5q-1 -6 -2 -9z" />
<glyph unicode="&#xe7;" horiz-adv-x="1009" d="M148 309.5q-9 111.5 15 269.5q16 98 38.5 175.5t48 132t58 93.5t64.5 62t73.5 36.5t78 17.5t84.5 4q293 0 491 -67l-28 -178q-194 14 -376 14q-30 0 -46 -1t-39.5 -5t-36 -12.5t-30 -24.5t-28 -40t-23.5 -58.5t-23.5 -81t-21.5 -107.5q-14 -83 -16 -139.5t6 -92.5 t29.5 -55.5t50.5 -26.5t74 -7q84 0 183 5t156 9l57 5l-28 -180q-41 -20 -89 -33.5t-81 -20.5t-92.5 -10.5t-80.5 -4t-92.5 0t-82.5 0.5q-80 0 -140.5 33.5t-102 104.5t-50.5 182.5zM263 -367l19 123l96 31q43 18 58 45t25 91h193q-25 -160 -85 -225t-190 -65h-116z" />
<glyph unicode="&#xe8;" horiz-adv-x="1079" d="M162 614q17 90 35 153t47 122.5t68 97t95.5 66.5t132 42t174.5 13q74 0 136 -8t119.5 -30t96 -56.5t59 -90t15.5 -128.5q-6 -102 -45 -178t-96 -118t-127.5 -67t-139.5 -31t-133 -3t-106.5 11t-61.5 16q-20 -123 14 -165.5t144 -43.5q86 -4 213.5 6.5t231.5 27.5 l-34 -205q-261 -78 -568 -59q-384 18 -270 628zM428 1514h244l158 -283h-186zM455 615q7 -1 20 -3t51 -4t73 -1t78.5 9.5t77 23.5t59.5 44.5t33 70.5q13 72 -24.5 98t-129.5 25q-40 0 -72 -9.5t-53.5 -17.5t-40 -34.5t-27 -36.5t-20 -50.5t-13 -49t-10.5 -56.5q-1 -6 -2 -9z " />
<glyph unicode="&#xe9;" horiz-adv-x="1079" d="M162 614q17 90 35 153t47 122.5t68 97t95.5 66.5t132 42t174.5 13q74 0 136 -8t119.5 -30t96 -56.5t59 -90t15.5 -128.5q-6 -102 -45 -178t-96 -118t-127.5 -67t-139.5 -31t-133 -3t-106.5 11t-61.5 16q-20 -123 14 -165.5t144 -43.5q86 -4 213.5 6.5t231.5 27.5 l-34 -205q-261 -78 -568 -59q-384 18 -270 628zM455 615q7 -1 20 -3t51 -4t73 -1t78.5 9.5t77 23.5t59.5 44.5t33 70.5q13 72 -24.5 98t-129.5 25q-40 0 -72 -9.5t-53.5 -17.5t-40 -34.5t-27 -36.5t-20 -50.5t-13 -49t-10.5 -56.5q-1 -6 -2 -9zM644 1231l230 283h251 l-295 -283h-186z" />
<glyph unicode="&#xea;" horiz-adv-x="1079" d="M162 614q17 90 35 153t47 122.5t68 97t95.5 66.5t132 42t174.5 13q74 0 136 -8t119.5 -30t96 -56.5t59 -90t15.5 -128.5q-6 -102 -45 -178t-96 -118t-127.5 -67t-139.5 -31t-133 -3t-106.5 11t-61.5 16q-20 -123 14 -165.5t144 -43.5q86 -4 213.5 6.5t231.5 27.5 l-34 -205q-261 -78 -568 -59q-384 18 -270 628zM422 1231l264 277h213l154 -277h-185l-87 134l-148 -134h-211zM455 615q7 -1 20 -3t51 -4t73 -1t78.5 9.5t77 23.5t59.5 44.5t33 70.5q13 72 -24.5 98t-129.5 25q-40 0 -72 -9.5t-53.5 -17.5t-40 -34.5t-27 -36.5t-20 -50.5 t-13 -49t-10.5 -56.5q-1 -6 -2 -9z" />
<glyph unicode="&#xeb;" horiz-adv-x="1079" d="M162 614q17 90 35 153t47 122.5t68 97t95.5 66.5t132 42t174.5 13q74 0 136 -8t119.5 -30t96 -56.5t59 -90t15.5 -128.5q-6 -102 -45 -178t-96 -118t-127.5 -67t-139.5 -31t-133 -3t-106.5 11t-61.5 16q-20 -123 14 -165.5t144 -43.5q86 -4 213.5 6.5t231.5 27.5 l-34 -205q-261 -78 -568 -59q-384 18 -270 628zM375 1352q7 49 48.5 84t91.5 35q49 0 78.5 -34.5t21.5 -84.5t-49 -85.5t-90 -35.5t-79 35.5t-22 85.5zM455 615q7 -1 20 -3t51 -4t73 -1t78.5 9.5t77 23.5t59.5 44.5t33 70.5q13 72 -24.5 98t-129.5 25q-40 0 -72 -9.5 t-53.5 -17.5t-40 -34.5t-27 -36.5t-20 -50.5t-13 -49t-10.5 -56.5q-1 -6 -2 -9zM897 1352q7 49 48.5 84t91.5 35t79 -35t22 -84q-8 -50 -49 -85.5t-90 -35.5t-79.5 35.5t-22.5 85.5z" />
<glyph unicode="&#xec;" horiz-adv-x="462" d="M78 0l172 1087h287l-172 -1087h-287zM104 1508h243l159 -284h-187z" />
<glyph unicode="&#xed;" horiz-adv-x="462" d="M78 0l172 1087h287l-172 -1087h-287zM317 1224l231 284h251l-295 -284h-187z" />
<glyph unicode="&#xee;" horiz-adv-x="462" d="M78 0l172 1087h287l-172 -1087h-287zM93 1224l265 277h213l154 -277h-185l-87 134l-148 -134h-212z" />
<glyph unicode="&#xef;" horiz-adv-x="462" d="M44 1345q7 49 48.5 84.5t91.5 35.5q49 0 79 -35t22 -85t-49 -85.5t-90 -35.5t-79.5 35.5t-22.5 85.5zM78 0l172 1087h287l-172 -1087h-287zM566 1345q7 49 48.5 84.5t91.5 35.5q49 0 79 -35t22 -85t-49 -85.5t-90 -35.5t-79.5 35.5t-22.5 85.5z" />
<glyph unicode="&#xf0;" horiz-adv-x="1103" d="M128 337q-7 103 16 224q46 277 154 401.5t313 124.5h117q120 0 152 -19q-18 124 -86 198l-250 -109l-40 118l157 67q-87 33 -252 27l37 235q338 0 506 -124l202 89l41 -119l-149 -63q181 -250 81 -886q-23 -142 -63.5 -240t-100.5 -155t-132.5 -81.5t-168.5 -24.5h-224 q-103 0 -172 42t-100 117t-38 178zM415 395.5q-1 -53.5 13 -82t37 -38.5t62 -9h129q39 0 64 8.5t48.5 36t40.5 81.5t31 143q22 116 19 180t-28 86t-88 22h-123q-53 0 -85.5 -21.5t-59 -84.5t-45.5 -182q-14 -86 -15 -139.5z" />
<glyph unicode="&#xf1;" horiz-adv-x="1126" d="M94 0l172 1087h230l38 -115q59 38 82 51.5t75 38.5t102 34.5t109 9.5q324 0 263 -382l-115 -724h-287l115 728q23 148 -96 148q-82 0 -142.5 -21.5t-135.5 -73.5l-124 -781h-286zM429 1342q152 142 270 142q51 -2 111.5 -36t93.5 -34q46 -2 110.5 24t94.5 52l29 -122 q-36 -32 -57.5 -49.5t-57.5 -42t-70.5 -35.5t-69.5 -11q-42 0 -80.5 18t-72 35t-65.5 17q-40 0 -77 -11t-59.5 -22.5t-67.5 -37.5z" />
<glyph unicode="&#xf2;" horiz-adv-x="1140" d="M159 557q21 135 53 227.5t76 155.5t110.5 97.5t147.5 49t196 14.5q269 0 364 -144.5t45 -456.5q-20 -124 -49 -208.5t-71.5 -144.5t-107 -93.5t-146.5 -48.5t-198 -15q-273 0 -369.5 135.5t-50.5 431.5zM430 389.5q-1 -55.5 7.5 -89.5t33.5 -51.5t55 -23t80 -5.5 q45 0 71.5 3t54.5 13.5t45 30t34 54.5t29 84.5t24 122.5q15 89 18.5 146.5t-3 98t-29 61t-55 29t-86.5 8.5q-45 0 -75.5 -4.5t-57.5 -18.5t-44.5 -36.5t-34 -62.5t-28 -92t-24.5 -129q-14 -83 -15 -138.5zM440 1508h244l158 -284h-186z" />
<glyph unicode="&#xf3;" horiz-adv-x="1140" d="M159 557q21 135 53 227.5t76 155.5t110.5 97.5t147.5 49t196 14.5q269 0 364 -144.5t45 -456.5q-20 -124 -49 -208.5t-71.5 -144.5t-107 -93.5t-146.5 -48.5t-198 -15q-273 0 -369.5 135.5t-50.5 431.5zM430 389.5q-1 -55.5 7.5 -89.5t33.5 -51.5t55 -23t80 -5.5 q45 0 71.5 3t54.5 13.5t45 30t34 54.5t29 84.5t24 122.5q15 89 18.5 146.5t-3 98t-29 61t-55 29t-86.5 8.5q-45 0 -75.5 -4.5t-57.5 -18.5t-44.5 -36.5t-34 -62.5t-28 -92t-24.5 -129q-14 -83 -15 -138.5zM663 1224l230 284h251l-295 -284h-186z" />
<glyph unicode="&#xf4;" horiz-adv-x="1140" d="M159 557q21 135 53 227.5t76 155.5t110.5 97.5t147.5 49t196 14.5q269 0 364 -144.5t45 -456.5q-20 -124 -49 -208.5t-71.5 -144.5t-107 -93.5t-146.5 -48.5t-198 -15q-273 0 -369.5 135.5t-50.5 431.5zM429 1224l265 277h213l154 -277h-185l-87 134l-148 -134h-212z M430 389.5q-1 -55.5 7.5 -89.5t33.5 -51.5t55 -23t80 -5.5q45 0 71.5 3t54.5 13.5t45 30t34 54.5t29 84.5t24 122.5q15 89 18.5 146.5t-3 98t-29 61t-55 29t-86.5 8.5q-45 0 -75.5 -4.5t-57.5 -18.5t-44.5 -36.5t-34 -62.5t-28 -92t-24.5 -129q-14 -83 -15 -138.5z" />
<glyph unicode="&#xf5;" horiz-adv-x="1140" d="M159 557q21 135 53 227.5t76 155.5t110.5 97.5t147.5 49t196 14.5q269 0 364 -144.5t45 -456.5q-20 -124 -49 -208.5t-71.5 -144.5t-107 -93.5t-146.5 -48.5t-198 -15q-273 0 -369.5 135.5t-50.5 431.5zM416 1337q153 143 270 143q51 -2 111.5 -36.5t93.5 -34.5 q46 -2 110 24t94 52l30 -122q-48 -42 -78 -66t-81.5 -48t-96.5 -24q-42 0 -80.5 18t-72 35.5t-65.5 17.5q-40 0 -77.5 -11.5t-58 -22.5t-67.5 -38zM430 389.5q-1 -55.5 7.5 -89.5t33.5 -51.5t55 -23t80 -5.5q45 0 71.5 3t54.5 13.5t45 30t34 54.5t29 84.5t24 122.5 q15 89 18.5 146.5t-3 98t-29 61t-55 29t-86.5 8.5q-45 0 -75.5 -4.5t-57.5 -18.5t-44.5 -36.5t-34 -62.5t-28 -92t-24.5 -129q-14 -83 -15 -138.5z" />
<glyph unicode="&#xf6;" horiz-adv-x="1140" d="M159 557q21 135 53 227.5t76 155.5t110.5 97.5t147.5 49t196 14.5q269 0 364 -144.5t45 -456.5q-20 -124 -49 -208.5t-71.5 -144.5t-107 -93.5t-146.5 -48.5t-198 -15q-273 0 -369.5 135.5t-50.5 431.5zM392 1345q7 49 48.5 84.5t91.5 35.5q49 0 78.5 -35t21.5 -85 t-49 -85.5t-90 -35.5t-79 35.5t-22 85.5zM430 389.5q-1 -55.5 7.5 -89.5t33.5 -51.5t55 -23t80 -5.5q45 0 71.5 3t54.5 13.5t45 30t34 54.5t29 84.5t24 122.5q15 89 18.5 146.5t-3 98t-29 61t-55 29t-86.5 8.5q-45 0 -75.5 -4.5t-57.5 -18.5t-44.5 -36.5t-34 -62.5t-28 -92 t-24.5 -129q-14 -83 -15 -138.5zM914 1345q7 49 48.5 84.5t91.5 35.5q49 0 79 -35t22 -85q-7 -49 -48.5 -85t-91.5 -36q-49 0 -79 35.5t-22 85.5z" />
<glyph unicode="&#xf7;" horiz-adv-x="1017" d="M172 602l38 242h865l-39 -242h-864zM430 317l23 137q7 51 57 51h151q49 0 41 -51l-23 -137q-7 -47 -55 -47h-151q-22 0 -34 13t-9 34zM536 979l21 137q7 51 57 51h151q49 0 41 -51l-21 -137q-7 -47 -57 -47h-151q-22 0 -33 12.5t-8 34.5z" />
<glyph unicode="&#xf8;" horiz-adv-x="1144" d="M56 0l135 141q-75 128 -29 413q21 135 53 227.5t76 155.5t110.5 97.5t147.5 49t196 14.5q195 0 297 -65l51 54h158l-131 -136q41 -68 50 -187.5t-16 -262.5q-25 -154 -63.5 -250t-107 -156t-162.5 -82.5t-240 -22.5q-211 0 -315 70l-57 -60h-153zM446 401l399 430 q-32 36 -134 36q-68 0 -106.5 -10.5t-70 -48t-49.5 -101t-37 -179.5q-13 -87 -2 -127zM464 262q19 -25 53 -33.5t92 -8.5q45 0 71.5 3t54.5 13.5t44.5 30t33.5 54.5t29.5 84.5t24.5 122.5q20 119 3 168z" />
<glyph unicode="&#xf9;" horiz-adv-x="1124" d="M125 242q1 57 10 122l115 723h286l-115 -728q-13 -83 12.5 -115t84.5 -32q83 0 143 21.5t135 72.5l123 781h287l-173 -1087h-230l-37 116q-99 -69 -176.5 -101.5t-190.5 -32.5q-74 0 -128 19t-84 53.5t-46.5 82.5t-15.5 105zM440 1508h244l159 -284h-187z" />
<glyph unicode="&#xfa;" horiz-adv-x="1124" d="M125 242q1 57 10 122l115 723h286l-115 -728q-13 -83 12.5 -115t84.5 -32q83 0 143 21.5t135 72.5l123 781h287l-173 -1087h-230l-37 116q-99 -69 -176.5 -101.5t-190.5 -32.5q-74 0 -128 19t-84 53.5t-46.5 82.5t-15.5 105zM656 1224l231 284h251l-295 -284h-187z" />
<glyph unicode="&#xfb;" horiz-adv-x="1124" d="M125 242q1 57 10 122l115 723h286l-115 -728q-13 -83 12.5 -115t84.5 -32q83 0 143 21.5t135 72.5l123 781h287l-173 -1087h-230l-37 116q-99 -69 -176.5 -101.5t-190.5 -32.5q-74 0 -128 19t-84 53.5t-46.5 82.5t-15.5 105zM434 1224l265 277h213l154 -277h-185l-88 134 l-148 -134h-211z" />
<glyph unicode="&#xfc;" horiz-adv-x="1124" d="M125 242q1 57 10 122l115 723h286l-115 -728q-13 -83 12.5 -115t84.5 -32q83 0 143 21.5t135 72.5l123 781h287l-173 -1087h-230l-37 116q-99 -69 -176.5 -101.5t-190.5 -32.5q-74 0 -128 19t-84 53.5t-46.5 82.5t-15.5 105zM387 1345q7 49 48.5 84.5t91.5 35.5 q49 0 79 -35t22 -85t-49 -85.5t-90 -35.5t-79.5 35.5t-22.5 85.5zM909 1345q7 49 48.5 84.5t91.5 35.5q49 0 79 -35t22 -85t-49 -85.5t-90 -35.5t-79.5 35.5t-22.5 85.5z" />
<glyph unicode="&#xfd;" horiz-adv-x="1153" d="M172 1087h298l68 -760q7 -75 104 -80l275 614q38 88 52 229h266q31 -144 -49 -322l-350 -767q-45 -98 -95.5 -180t-98 -139t-100.5 -102.5t-97.5 -73.5t-94 -48.5t-85.5 -30.5t-77 -17v202q66 35 121 79.5t97 96.5t73 101t63 111q-121 0 -195.5 68t-89.5 209zM643 1216 l231 284h251l-296 -284h-186z" />
<glyph unicode="&#xfe;" horiz-adv-x="1134" d="M22 -553l342 2155h286l-101 -633q68 49 164 87.5t184 38.5q89 0 151 -45.5t91.5 -124t37 -185t-13.5 -228.5q-11 -67 -21.5 -118.5t-29 -110.5t-40.5 -101.5t-55.5 -83.5t-75 -67t-98.5 -41.5t-125 -15.5q-75 0 -163 19.5t-152 54.5l-95 -601h-286zM434 239 q80 -34 240 -40q35 0 62 13t54 47.5t48.5 102.5t36.5 169q25 172 0 248t-94 72q-141 -6 -262 -72z" />
<glyph unicode="&#xff;" horiz-adv-x="1153" d="M172 1087h298l68 -760q7 -75 104 -80l275 614q38 88 52 229h266q31 -144 -49 -322l-350 -767q-45 -98 -95.5 -180t-98 -139t-100.5 -102.5t-97.5 -73.5t-94 -48.5t-85.5 -30.5t-77 -17v202q66 35 121 79.5t97 96.5t73 101t63 111q-121 0 -195.5 68t-89.5 209zM378 1315 q7 49 48.5 84t91.5 35q49 0 78.5 -34.5t21.5 -84.5t-49 -86t-90 -36t-79 36t-22 86zM900 1315q7 49 48.5 84t91.5 35t79 -35t22 -84q-8 -50 -49 -86t-90 -36t-79.5 36t-22.5 86z" />
<glyph unicode="&#x152;" horiz-adv-x="2125" d="M153 509.5q2 113.5 25 257.5q23 148 57 262t71 192t90.5 132.5t101.5 84.5t120 46.5t130 20.5t145 4q134 0 227.5 -25t154.5 -90q86 116 279 105q503 -15 633 -33l-37 -237h-571q-37 0 -61.5 -9t-37 -28t-17.5 -35t-9 -42l-35 -230l578 -21l-36 -236l-586 -19l-38 -239 q-3 -16 -3 -29.5t3 -23.5t5 -18t10 -13.5t11.5 -9.5t15 -6t15.5 -3.5t18 -2t17 -0.5h18h550l-37 -235q-53 -7 -208.5 -16t-285.5 -14l-129 -5q-69 -4 -135 20t-105 77q-80 -59 -180.5 -79t-245.5 -20q-82 0 -144.5 7t-126 27.5t-106.5 55.5t-78 93.5t-50 139.5t-13 194.5z M442 561q-6 -73 0.5 -128.5t23 -88.5t51 -53.5t77.5 -27.5t109 -7q91 0 149.5 18.5t107.5 71.5t80.5 147t55.5 246q16 100 21.5 175t2.5 129.5t-18 91t-34 58.5t-53.5 33.5t-68.5 15t-86 3.5q-47 0 -78 -2t-66.5 -10t-58.5 -22.5t-49 -39.5t-44 -62t-36.5 -89.5 t-33.5 -121.5t-29 -159q-17 -105 -23 -178z" />
<glyph unicode="&#x153;" horiz-adv-x="1787" d="M146 559q21 135 53 227.5t76 155t111 97t147 48.5t196 14q225 0 319 -109q118 115 380 116q74 0 136 -8t119.5 -30t96 -56.5t59 -90t15.5 -128.5q-6 -102 -45 -178t-96 -118t-127.5 -67t-139.5 -31t-133 -3t-106.5 11t-61.5 16q-20 -123 14 -166t144 -43q239 0 445 34 l-35 -205q-261 -78 -567 -59q-141 4 -204 97q-116 -93 -376 -93q-273 0 -369.5 136.5t-50.5 432.5zM417 389.5q-1 -55.5 7.5 -89.5t33.5 -51.5t55 -23t80 -5.5q45 0 71.5 3t54.5 13.5t45 30t34 54.5t29 84.5t24 122.5q15 89 18.5 146.5t-3 98t-29 61t-55 29t-86.5 8.5 q-45 0 -75.5 -4.5t-57.5 -18.5t-44.5 -36.5t-34 -62.5t-28 -92t-24.5 -129q-14 -83 -15 -138.5zM1168 615q7 -1 20 -3t51 -4t73 -1t78.5 9.5t77 23.5t59.5 44.5t33 70.5q13 72 -24 98t-129 25q-55 -1 -95.5 -16t-63.5 -36t-39.5 -58.5t-23.5 -67.5t-16 -78q-1 -5 -1 -7z" />
<glyph unicode="&#x178;" horiz-adv-x="1343" d="M245 1499h310l172 -716l427 716h328l-657 -1034l-74 -465h-287l74 465zM522 1749q7 49 48.5 84t91.5 35t79 -35t22 -84q-8 -50 -49 -85.5t-90 -35.5t-79.5 35.5t-22.5 85.5zM1045 1749q7 49 48.5 84t91.5 35q49 0 78.5 -34.5t21.5 -84.5t-49 -85.5t-90 -35.5t-79 35.5 t-22 85.5z" />
<glyph unicode="&#x2c6;" horiz-adv-x="649" d="M103 1087l264 278h213l154 -278h-185l-87 134l-148 -134h-211z" />
<glyph unicode="&#x2dc;" horiz-adv-x="862" d="M250 1201q152 142 270 142q51 -2 111 -36.5t93 -34.5q46 -2 110.5 24.5t94.5 52.5l30 -122q-36 -32 -57.5 -49.5t-58 -42t-71 -36t-69.5 -11.5q-42 0 -80.5 18t-72 35.5t-65.5 17.5q-40 0 -77.5 -11.5t-59 -22.5t-67.5 -38z" />
<glyph unicode="&#x338;" horiz-adv-x="1286" d="M164 388l116 757q56 354 441 354h336q80 0 140 -22t93.5 -59.5t53.5 -87.5t20.5 -105.5t-6.5 -113.5l-119 -768q-28 -178 -134 -260.5t-287 -82.5h-336q-174 0 -260 102.5t-58 285.5zM470 457l532 769q-25 9 -51 9h-215q-147 0 -170 -146l-86 -542q-13 -74 -10 -90z M507 277q26 -13 83 -13h199q75 0 117 33.5t55 113.5l89 561q4 20 6 50.5t-2 44.5z" />
<glyph unicode="&#x2000;" horiz-adv-x="958" />
<glyph unicode="&#x2001;" horiz-adv-x="1916" />
<glyph unicode="&#x2002;" horiz-adv-x="958" />
<glyph unicode="&#x2003;" horiz-adv-x="1916" />
<glyph unicode="&#x2004;" horiz-adv-x="638" />
<glyph unicode="&#x2005;" horiz-adv-x="479" />
<glyph unicode="&#x2006;" horiz-adv-x="319" />
<glyph unicode="&#x2007;" horiz-adv-x="319" />
<glyph unicode="&#x2008;" horiz-adv-x="239" />
<glyph unicode="&#x2009;" horiz-adv-x="383" />
<glyph unicode="&#x200a;" horiz-adv-x="106" />
<glyph unicode="&#x2010;" horiz-adv-x="722" d="M124 473l38 242h643l-38 -242h-643z" />
<glyph unicode="&#x2011;" horiz-adv-x="722" d="M124 473l38 242h643l-38 -242h-643z" />
<glyph unicode="&#x2012;" horiz-adv-x="722" d="M124 473l38 242h643l-38 -242h-643z" />
<glyph unicode="&#x2013;" horiz-adv-x="927" d="M122 467l39 244h969l-40 -244h-968z" />
<glyph unicode="&#x2014;" horiz-adv-x="1507" d="M125 471l40 244h1425l-39 -244h-1426z" />
<glyph unicode="&#x2018;" horiz-adv-x="528" d="M291 1048l42 272q11 69 46 113t77.5 58.5t83 19t68.5 -0.5l27 -4l-19 -113q-22 0 -38 -6.5t-23.5 -18.5t-10.5 -20.5t-5 -20.5l-6 -43h23q24 0 36.5 -13.5t8.5 -39.5l-28 -183q-9 -58 -64 -58h-177q-50 0 -41 58z" />
<glyph unicode="&#x2019;" horiz-adv-x="528" d="M293 996l18 114q22 0 38 6.5t23.5 18.5t10.5 20.5t5 20.5l7 42h-24q-24 0 -36.5 13.5t-8.5 40.5l30 183q9 58 62 58h177q51 0 42 -58l-44 -272q-8 -50 -29 -87.5t-48 -57t-57.5 -32t-59.5 -14.5t-53 -1.5t-38 3.5z" />
<glyph unicode="&#x201a;" horiz-adv-x="528" d="M99 -223l18 113q22 0 38 6.5t23.5 19t10.5 21t5 20.5l7 42h-24q-24 0 -36 13.5t-8 40.5l29 183q9 58 62 58h177q52 0 43 -58l-44 -272q-8 -50 -29 -87.5t-48 -57t-58 -31.5t-60 -14.5t-53 -2t-38 2.5z" />
<glyph unicode="&#x201c;" horiz-adv-x="866" d="M280 1046l42 271q8 50 29 87.5t48 57t57.5 32t59.5 14.5t53 1.5t39 -3.5l14 -2l-17 -113q-22 0 -38 -6.5t-23.5 -19t-10.5 -21t-5 -20.5l-6 -42h23q24 0 36.5 -13.5t8.5 -39.5l-28 -183q-9 -58 -64 -58h-177q-50 0 -41 58zM643 1046l42 271q8 50 29 87.5t48 57t57.5 32 t59.5 14.5t53 1.5t38 -3.5l15 -2l-17 -113q-22 0 -38 -6.5t-23.5 -19t-10.5 -21t-5 -20.5l-6 -42h23q24 0 36.5 -13.5t8.5 -39.5l-29 -183q-9 -58 -64 -58h-176q-50 0 -41 58z" />
<glyph unicode="&#x201d;" horiz-adv-x="868" d="M281 993l18 115q22 0 38 6.5t23.5 18.5t10.5 20.5t5 20.5l7 42h-24q-24 0 -36.5 13.5t-8.5 40.5l30 182q9 58 62 58h177q52 0 43 -58l-44 -271q-8 -50 -29 -87.5t-48 -57t-58 -32t-60 -15t-53 -2t-38 2.5zM644 993l18 115q22 0 37.5 6.5t23 19t10.5 20t5 20.5l7 42h-23 q-24 0 -36.5 13.5t-8.5 40.5l30 182q9 58 62 58h176q52 0 43 -58l-44 -271q-11 -69 -46 -113.5t-77 -59t-82.5 -19.5t-67.5 -1z" />
<glyph unicode="&#x201e;" horiz-adv-x="866" d="M88 -222l17 113q22 0 38 6.5t23.5 19t10.5 21t5 20.5l7 42h-23q-24 0 -36.5 13.5t-8.5 40.5l29 183q9 58 62 58h177q52 0 43 -58l-44 -272q-8 -50 -29 -87.5t-48 -57t-57.5 -31.5t-59.5 -14.5t-53 -2t-39 3.5zM450 -222l18 113q22 0 38 6.5t23.5 19t10.5 21t5 20.5l7 42 h-24q-24 0 -36.5 13.5t-8.5 40.5l30 183q9 58 62 58h177q51 0 42 -58l-44 -272q-8 -50 -29 -87.5t-48 -57t-57.5 -31.5t-59.5 -14.5t-53 -2t-39 3.5z" />
<glyph unicode="&#x2022;" horiz-adv-x="628" d="M236 659l37 243q5 33 26 52t54 19h230q69 0 60 -71l-37 -243q-11 -66 -84 -66h-230q-31 0 -46 17.5t-10 48.5z" />
<glyph unicode="&#x2026;" horiz-adv-x="1603" d="M273 47l29 184q4 24 19 38t39 14h176q52 0 43 -52l-30 -184q-8 -47 -58 -47h-176q-22 0 -33.5 12.5t-8.5 34.5zM830 47l29 184q4 24 19 38t39 14h176q52 0 43 -52l-30 -184q-8 -47 -58 -47h-176q-22 0 -33.5 12.5t-8.5 34.5zM1387 47l29 184q4 24 19 38t39 14h176 q52 0 43 -52l-30 -184q-8 -47 -58 -47h-176q-22 0 -33.5 12.5t-8.5 34.5z" />
<glyph unicode="&#x202f;" horiz-adv-x="383" />
<glyph unicode="&#x2039;" horiz-adv-x="589" d="M41 725l487 416l135 -157l-312 -265l227 -266l-173 -154z" />
<glyph unicode="&#x203a;" horiz-adv-x="733" d="M192 459l313 268l-224 263l176 151l359 -421l-493 -421z" />
<glyph unicode="&#x2044;" horiz-adv-x="659" d="M-140 0l977 1542h207l-977 -1542h-207z" />
<glyph unicode="&#x205f;" horiz-adv-x="479" />
<glyph unicode="&#x2070;" horiz-adv-x="897" d="M139 973l77 488q41 252 291 252h242q134 0 191.5 -68t39.5 -177l-77 -495q-21 -131 -87.5 -188.5t-190.5 -57.5h-242q-56 0 -102.5 14t-83 42t-52.5 77t-6 113zM368 1019q-8 -55 11 -71t71 -16h132q52 0 75.5 18t31.5 68l70 404q8 48 -7.5 67.5t-66.5 19.5h-143 q-54 0 -75.5 -21.5t-29.5 -65.5z" />
<glyph unicode="&#x2074;" horiz-adv-x="960" d="M210 1024l460 689h239l-374 -573h225l33 209l66 102h165l-49 -311h98l-27 -175l-108 -35l-28 -200h-216l33 199h-475z" />
<glyph unicode="&#x2075;" horiz-adv-x="845" d="M154 753l28 175h392q54 0 77 19t28 63l10 69q1 21 1.5 40t-17.5 33t-54 14h-135q-71 0 -84 -71h-191l129 618h635l-33 -204h-426l-39 -182q10 7 21.5 12.5t22 9.5t25.5 7t24.5 4.5t26.5 2.5t25 1.5t26.5 0t24 -0.5t24.5 -1t21 -1q61 -3 104.5 -28.5t63 -63t28 -84 t-0.5 -92.5l-21 -146q-8 -69 -35.5 -116t-70 -70.5t-87.5 -32.5t-102 -9q-114 1 -158 2t-120.5 8t-162.5 23z" />
<glyph unicode="&#x2076;" horiz-adv-x="833" d="M170.5 1046q-4.5 91 17.5 216q18 111 44 193t55 130.5t66 79t70 42t74 14.5q211 20 477 -27l-27 -171h-364q-37 0 -65 -15t-43 -33t-27.5 -53.5t-16.5 -55t-11 -59.5q115 29 284 31q66 0 114 -22.5t69 -59t30 -82t-1 -91.5l-22 -143q-19 -119 -90.5 -165.5t-200.5 -46.5 h-191q-49 0 -89.5 15.5t-76 52t-53.5 98t-22.5 152.5zM395 1153q-35 -220 84 -220h118q42 0 61.5 16t25.5 55l13 79q7 42 -6 56t-56 14h-240z" />
<glyph unicode="&#x2077;" horiz-adv-x="882" d="M227 1511l33 204h718l42 -95l-516 -892h-244l454 783h-487z" />
<glyph unicode="&#x2078;" horiz-adv-x="868" d="M229.5 908.5q1.5 32.5 3.5 62.5l15 93q18 114 142 138q-109 55 -86 211l14 87q9 56 30 96.5t48 64.5t65.5 38t75.5 18.5t85 4.5h232q113 0 171 -65.5t39 -184.5l-11 -70q-2 -16 -9.5 -34.5t-22.5 -42t-42.5 -41t-62.5 -23.5q32 -8 52 -33t26 -55t7.5 -62t-3.5 -53 l-17 -111q-9 -60 -29.5 -102.5t-44.5 -65.5t-62 -35t-69.5 -15t-80.5 -3h-232q-65 0 -112.5 16.5t-71 42.5t-37.5 58.5t-12.5 65zM460 991q-6 -38 9.5 -53t66.5 -15h139q43 0 63.5 16t25.5 52l11 70q6 38 -9 56.5t-56 18.5h-147q-44 0 -64.5 -17.5t-26.5 -57.5zM525 1399 q-7 -43 11 -59t57 -16h142q27 0 45.5 6t27.5 18t13 23t7 28l8 46q8 50 -9.5 66t-61.5 16h-133q-48 0 -69.5 -16.5t-29.5 -65.5z" />
<glyph unicode="&#x2079;" horiz-adv-x="915" d="M215 746l28 172h364q27 0 49 8t37 18.5t27.5 31.5t19.5 35.5t14.5 43t10 42.5t7.5 44q-115 -29 -284 -31q-54 0 -95.5 15.5t-65 42t-38 61t-15 72t3.5 75.5l19 130q18 122 89.5 173t198.5 49l202 -2q63 0 110.5 -27t83 -91.5t40 -171.5t-17.5 -266q-18 -112 -44.5 -194 t-54.5 -129t-66 -75.5t-70 -38.5t-75 -14q-111 -10 -244 -2t-234 29zM498 1381q-7 -44 5.5 -59t54.5 -15h240q34 216 -86 216h-117q-41 0 -60 -16.5t-26 -58.5z" />
<glyph unicode="&#x2080;" horiz-adv-x="935" d="M194 -166l76 488q41 253 291 253h242q134 0 192 -68.5t40 -177.5l-78 -495q-21 -131 -87.5 -188.5t-190.5 -57.5h-242q-56 0 -102.5 14t-82.5 42t-52 77t-6 113zM422 -120q-8 -55 11 -71t71 -16h132q52 0 75.5 18t31.5 68l70 405q8 48 -7.5 67t-66.5 19h-143 q-54 0 -75 -21t-29 -65z" />
<glyph unicode="&#x2081;" horiz-adv-x="581" d="M62 303l24 152q52 0 133.5 44t111.5 79h217l-157 -989h-221l123 760q-58 -46 -231 -46z" />
<glyph unicode="&#x2082;" horiz-adv-x="897" d="M77 -411l31 196q50 32 73.5 47t89.5 59t105.5 73.5t97 75.5t91.5 81.5t61.5 75.5t32.5 72q10 66 -20.5 91t-117.5 25h-326q-1 0 1.5 17t6.5 41.5t8.5 49t7.5 41.5l3 17q83 14 126 20.5t119 12.5t160 6q74 0 130.5 -29.5t86 -76t40.5 -101t2 -108.5q-7 -49 -27 -97 t-51.5 -91t-61.5 -78.5t-71.5 -72t-67 -58t-63 -50t-45.5 -34.5h309l-33 -205h-698z" />
<glyph unicode="&#x2083;" horiz-adv-x="806" d="M-8 -380l26 164l329 1q74 0 109.5 17.5t42.5 65.5l5 27q8 51 -21.5 70t-96.5 21l-252 10l28 178l257 10q72 3 106 21.5t41 63.5l3 25q9 47 -20.5 64.5t-99.5 17.5h-346l26 162q87 30 191 37.5t253 4.5q117 -1 178 -76t43 -185l-10 -62q-12 -75 -49 -122t-94 -59 q54 -21 73.5 -79.5t7.5 -132.5l-8 -48q-19 -119 -94 -178t-215 -58h-46h-47.5t-43 0.5t-45 1t-40.5 2t-42.5 3.5t-38 5t-39.5 7t-35 9.5t-36 11.5z" />
<glyph unicode="&#x2084;" horiz-adv-x="890" d="M-5 -115l460 690h239l-374 -574h225l33 209l66 102h165l-49 -311h98l-27 -174l-107 -36l-29 -199h-216l33 198h-475z" />
<glyph unicode="&#x2085;" horiz-adv-x="843" d="M6 -386l28 175h393q54 0 77 19t28 63l9 69q1 21 1.5 40t-17 33t-53.5 14h-135q-71 0 -84 -71h-191l129 619h635l-33 -205h-427l-39 -181q12 9 27.5 15t28 10.5t33 7t30.5 3.5t34 1h30t31.5 -1.5t26.5 -1.5q80 -4 129 -46.5t62.5 -99t4.5 -122.5l-22 -146 q-8 -69 -35.5 -116t-70 -70.5t-87.5 -32.5t-102 -9q-114 1 -158 2t-120.5 8t-162.5 23z" />
<glyph unicode="&#x2086;" horiz-adv-x="833" d="M23.5 -92.5q-4.5 91.5 17.5 216.5q22 137 55.5 230t76 139.5t83.5 65.5t93 23q113 10 242 2t236 -28l-28 -171h-363q-37 0 -65 -15t-43 -33t-27.5 -54t-16.5 -55t-11 -60q115 29 283 31q66 0 114 -22.5t69.5 -58.5t30.5 -81.5t-1 -91.5l-23 -144q-19 -119 -90 -165.5 t-200 -46.5h-192q-49 0 -89.5 15.5t-76 52.5t-53 98t-22 152.5zM247 15q-35 -221 85 -221h117q42 0 62 16.5t26 55.5l13 78q7 42 -6 56.5t-56 14.5h-241z" />
<glyph unicode="&#x2087;" horiz-adv-x="882" d="M79 372l33 205h718l42 -96l-515 -892h-244l454 783h-488z" />
<glyph unicode="&#x2088;" horiz-adv-x="868" d="M82 -219.5q-2 27.5 4 51.5l14 93q18 114 143 138q-110 56 -87 212l14 86q11 69 39 115t71 68.5t88 31t106 8.5h233q113 0 170.5 -65.5t38.5 -185.5l-11 -70q-2 -16 -9.5 -34.5t-22 -42t-42 -41t-62.5 -23.5q32 -8 52 -33t26 -55t7.5 -62t-3.5 -53l-17 -111 q-9 -60 -29.5 -102.5t-44.5 -65.5t-62 -35t-69.5 -15t-80.5 -3h-233q-55 0 -97 11.5t-66.5 30.5t-41.5 44.5t-21.5 52.5t-6.5 54.5zM313 -147q-6 -39 9.5 -54t65.5 -15h139q43 0 63.5 16t25.5 53l11 69q6 38 -8.5 56.5t-55.5 18.5h-148q-44 0 -64.5 -17.5t-26.5 -57.5z M377 260q-7 -43 11.5 -59t57.5 -16h142q27 0 45 6t27.5 18t13 23t6.5 28l8 47q8 50 -9 65.5t-61 15.5h-133q-48 0 -70 -16t-30 -65z" />
<glyph unicode="&#x2089;" horiz-adv-x="913" d="M68 -393l28 172h363q21 0 39 5t31.5 11.5t25.5 20t20 24t15.5 30.5t11.5 31t9 34.5t7 33.5t6 34q-115 -29 -283 -31q-54 0 -95.5 15.5t-65 41.5t-38.5 60.5t-15.5 72t3.5 75.5l20 130q18 122 89.5 173t198.5 49l201 -2q63 0 110.5 -27t83 -91.5t40 -171.5t-17.5 -266 q-18 -112 -44.5 -194t-54.5 -129t-65.5 -75.5t-69.5 -38.5t-75 -14q-110 -10 -246 -2t-232 29zM351 242q-7 -44 5 -59t54 -15h241q34 217 -87 217h-116q-41 0 -60.5 -17t-26.5 -59z" />
<glyph unicode="&#x20ac;" horiz-adv-x="1441" d="M115 511l22 141l161 15l22 139l-155 16l21 133l160 19q5 35 9.5 58t16.5 69t25.5 79.5t38 79.5t54 79t74 68.5t96.5 57.5t122 36.5t151 14.5q95 0 257.5 -20t267.5 -53l-33 -211q-296 31 -464 31q-45 0 -82.5 -5t-66 -12t-52 -21t-39.5 -26.5t-29.5 -35t-21.5 -39.5 t-15.5 -46.5t-11.5 -49t-10 -54.5l477 -15l-22 -139l-482 -14l-21 -139l476 -15l-22 -141q-31 -1 -81 -2t-156.5 -3.5t-176 -5t-67.5 -3.5q-5 -44 -7 -79t7 -62.5t19 -47t29.5 -34t38.5 -23t46 -13.5t51.5 -7t55.5 -2q83 0 203.5 11.5t200.5 23.5l79 11l-33 -204 q-207 -83 -556 -83q-59 0 -113 8t-123.5 39t-115 82.5t-68 149.5t-1.5 230z" />
<glyph unicode="&#x2116;" horiz-adv-x="2265" d="M111 0l198 1264q9 54 35 99t63.5 74.5t83 50.5t94.5 26.5t97.5 3t91.5 -20.5t77 -44t54 -67.5t22 -90.5l129 -1013q1 -18 14.5 -22.5t26.5 5t15 24.5q112 708 138 871q28 179 134 260.5t264 83.5l510 -1q152 0 204 -85t21 -285q-13 -79 -26 -129.5t-36.5 -96.5t-58 -70.5 t-87.5 -39.5t-128 -17h-90q-56 2 -97 9.5t-77 25.5t-57.5 49.5t-34 78.5t-11 114.5t15.5 156.5h217q-13 -81 -15 -127.5t9 -68.5t25 -27t44 -5h66q30 0 46 3.5t32.5 17.5t27 44.5t18.5 81.5q7 45 7.5 72.5t-3.5 45t-18 26t-30.5 11t-47.5 3.5q-163 2 -294 2q-122 0 -178 -34 t-72 -136l-141 -890q-12 -75 -61.5 -130.5t-116 -82t-141.5 -27t-138 25.5t-106 85t-45 141l-128 997q-2 22 -27 18q-26 -3 -34 -27l-2 -6l-194 -1227h-285z" />
<glyph unicode="&#x2122;" horiz-adv-x="1286" d="M77 1334l26 165h576l-26 -165h-193l-87 -550h-187l86 550h-195zM601 784l190 715h190l54 -412l168 412h205l-27 -715h-187l21 378l-136 -378h-165l-36 377l-90 -377h-187z" />
<glyph unicode="&#x25fc;" horiz-adv-x="1085" d="M0 0v1085h1085v-1085h-1085z" />
<glyph unicode="&#xfb00;" horiz-adv-x="1636" d="M167 868l30 185l207 34l29 183q7 43 20.5 83.5t40.5 85t64 76.5t94.5 53t128.5 21q160 0 277 -48l-28 -171l-181 1q-32 0 -55 -8t-36 -19t-23 -35.5t-14 -43.5t-10 -55l-20 -123h493l32 203q24 152 111 236t261 84q151 0 265 -49l-28 -170l-193 1q-34 0 -57 -7.5 t-36 -17.5t-23 -36.5t-14 -45t-11 -62.5l-20 -136h245l-35 -219h-247l-137 -868h-287l137 868h-495l-137 -868h-287l138 868h-199z" />
<glyph unicode="&#xfb03;" horiz-adv-x="2062" d="M167 868l30 185l207 34l29 183q7 43 20.5 83.5t40.5 85t64 76.5t94.5 53t128.5 21q160 0 277 -48l-28 -171l-181 1q-38 0 -62.5 -9.5t-38 -31t-21 -46.5t-15.5 -62q0 -4 -0.5 -6.5t-1.5 -5.5l-22 -123h458l12 82q30 193 170 315t344 126q114 1 262.5 -12t205.5 -37 l-27 -170l-373 1q-258 0 -296 -234l-11 -71l705 -20l-168 -1067h-287l137 868h-424l-137 -868h-287l138 868h-456l-138 -868h-288l138 868h-199z" />
<glyph unicode="&#xfb04;" horiz-adv-x="2250" d="M167 868l30 185l207 34l29 183q7 43 20.5 83.5t40.5 85t64 76.5t94.5 53t128.5 21q160 0 277 -48l-28 -171l-181 1q-32 0 -55 -8t-36 -19t-23 -36t-14 -42.5t-11 -55.5l-22 -123h464l14 93q35 223 154 325t316 105l610 -4l-185 -1174q-9 -59 -10 -96.5t8.5 -60.5 t23 -34.5t38.5 -21.5q116 -43 130 -43l-28 -176h-202q-154 0 -220 89.5t-34 297.5l158 1004l-266 1q-91 0 -139 -45t-67 -167l-14 -93h245l-36 -219h-247l-137 -868h-287l137 868h-460l-138 -868h-288l138 868h-199z" />
<glyph unicode="&#xfb06;" horiz-adv-x="1816" d="M114 43l29 180h512q73 0 84 68l10 52q6 36 -7.5 53.5t-55.5 17.5h-243q-148 0 -219 81t-47 234l13 95q18 132 100.5 198t238.5 66h894l95 304h238l-47 -304h243l-35 -217h-243l-68 -438q-10 -64 -11 -102.5t8.5 -61t22.5 -32t40 -19.5q112 -40 121 -40l-29 -179h-207 q-301 0 -240 389l75 471h-816q-50 0 -70 -20.5t-26 -55.5l-9 -50q-2 -13 -2.5 -23.5t1.5 -17.5t4.5 -12.5t8.5 -8.5l10 -5t12 -2.5t12.5 -0.5h13.5h13h251q75 0 130 -25.5t82 -67.5t38 -97t-1 -114l-15 -121q-8 -64 -32 -112t-54 -74.5t-71.5 -42.5t-76.5 -20.5t-78 -4.5 q-175 0 -364 13t-233 46z" />
<glyph horiz-adv-x="1263" d="M169 366l89 552q30 190 132 283t282 93h336q86 0 151 -20t101.5 -55t58.5 -81.5t23 -99.5t-6 -109l-92 -563q-30 -185 -126.5 -275.5t-271.5 -90.5h-336q-180 0 -275 94t-66 272zM460 368q0 -20 2.5 -34t9.5 -25.5t13.5 -19t18.5 -12.5t20.5 -7.5t23 -4t23 -1.5h23.5h198 q75 0 117.5 33.5t55.5 113.5l76 473q12 78 -15 112t-101 34h-215q-37 0 -66 -10t-47 -25t-30.5 -35.5t-18.5 -38t-9 -37.5l-75 -472q-4 -24 -4 -44z" />
<glyph horiz-adv-x="741" d="M158 940l29 188q64 0 168 58.5t149 110.5l285 -3l-193 -1294h-284l151 1003q-48 -34 -135 -48.5t-170 -14.5z" />
<glyph horiz-adv-x="1212" d="M77 0l41 252q322 152 472 238q374 214 398 366q17 102 -28.5 141t-180.5 38l-533 -1l36 214q157 27 291.5 39.5t326.5 12.5q117 0 200 -35.5t125.5 -98.5t56 -141t1.5 -171q-11 -90 -61.5 -177t-113.5 -149t-144.5 -119.5t-139 -88.5t-113.5 -56h457l-43 -264h-1048z" />
<glyph horiz-adv-x="1202" d="M77 -156l35 209h520q108 0 163.5 29t68.5 110l11 66q4 24 4 43t-2 34t-10 26t-15 19t-21.5 13.5t-25 8.5t-31.5 5.5t-34 3.5t-39 2l-406 17l39 231l410 18q109 5 161 36.5t64 110.5l11 72q6 37 -1 63.5t-22 41.5t-42 23.5t-53 11t-62 2.5h-546l32 207q89 29 205.5 43.5 t228.5 14.5t239 -1q160 -3 250 -110.5t64 -272.5l-18 -108q-19 -116 -71 -184t-131 -83q76 -28 102 -116.5t6 -212.5l-15 -87q-54 -344 -441 -344q-286 0 -388 9q-143 13 -240 49z" />
<glyph horiz-adv-x="1255" d="M65 254l698 1040h320l-591 -900h364l55 342l92 157h222l-80 -499h151l-34 -222l-159 -50l-51 -323h-289l50 323h-699z" />
<glyph horiz-adv-x="1226" d="M70 -163l36 225h578q147 0 170 146l21 131q6 24 4 50.5t-10.5 48.5t-35.5 36.5t-70 14.5h-188q-125 0 -145 -119h-274l192 924h912l-43 -264h-632l-70 -338q59 43 161 51q41 3 210 -1q156 -8 230 -116.5t50 -272.5l-33 -228q-13 -81 -45 -142t-72.5 -97t-96.5 -58 t-108 -30t-116 -10q-192 -5 -309 4.5t-316 44.5z" />
<glyph horiz-adv-x="1204" d="M94 525.5q6 125.5 31 283.5q105 665 468 697q237 20 645 -41l-34 -218h-513q-52 0 -94.5 -25t-69.5 -61.5t-48.5 -91.5t-32 -100t-20.5 -102q167 41 421 43q70 0 124 -14.5t87.5 -42.5t55 -62.5t29.5 -78.5t8 -86t-7 -88l-36 -235q-15 -91 -50.5 -152.5t-92.5 -93.5 t-121 -45t-152 -13h-291q-59 0 -106 15.5t-88 51t-66.5 97t-39 149.5t-7.5 213.5zM373.5 455q0.5 -47 9.5 -81t25.5 -60.5t46 -40t69.5 -13.5h162q131 0 151 129l22 137q13 79 -8 105t-96 26h-363q-10 -60 -14.5 -107.5t-4 -94.5z" />
<glyph horiz-adv-x="1163" d="M192 1030l42 264h965l56 -132l-718 -1367h-313l656 1235h-688z" />
<glyph horiz-adv-x="1261" d="M163 312q2 25 7 54l23 150q15 92 70 146.5t138 66.5q-164 74 -123 315l21 134q13 82 42 142.5t67 96t93 57t109.5 28.5t126.5 7h310q170 0 248.5 -97.5t50.5 -280.5l-18 -109q-3 -23 -14 -52.5t-32 -65t-60.5 -63.5t-89.5 -36q44 -11 72.5 -48t37 -81.5t10.5 -92 t-6 -79.5l-27 -176q-10 -66 -29.5 -117t-42 -85.5t-56 -58.5t-62.5 -37t-71.5 -20t-74 -8.5t-77.5 -1.5h-308q-76 0 -135 15t-94.5 38.5t-59.5 58t-33.5 65.5t-12 70.5t-0.5 64.5zM462 376q-11 -69 17.5 -96t109.5 -27h192q137 0 155 123l22 142q10 62 -18 94.5t-91 32.5 h-207q-138 0 -158 -127zM562 1012q-6 -38 1 -64t25.5 -39.5t40 -18.5t50.5 -5h205q80 0 111 33t41 94l15 96q15 90 -12 119t-98 29h-193q-84 0 -121 -31t-50 -117z" />
<glyph horiz-adv-x="1228" d="M162 -170l34 217h513q52 0 94.5 25t69.5 61.5t48.5 91.5t32 100t20.5 102q-167 -41 -422 -43q-70 0 -124 15.5t-87 44.5t-54.5 65.5t-29 81.5t-7 87.5t7.5 89.5l33 212q14 91 49.5 154t91.5 97.5t121.5 49t151.5 14.5h291q73 0 128.5 -24t98.5 -83.5t64 -152.5t19 -238 t-32 -334q-25 -157 -65 -276.5t-84.5 -191t-100.5 -118t-106.5 -65t-109.5 -23.5q-237 -20 -646 41zM542 768q-13 -79 7 -105t95 -26h363q10 60 14.5 107.5t4 94.5t-9.5 81t-25.5 60.5t-46 40t-69.5 13.5h-161q-60 0 -99.5 -27.5t-51.5 -100.5z" />
<glyph horiz-adv-x="1662" d="M128.5 73.5q-2.5 67.5 6.5 140.5l157 992q35 217 163 313.5t360 96.5h745q107 0 181 -36t109.5 -100t47 -151t-6.5 -190l-100 -669q-8 -55 -21.5 -98.5t-42.5 -87.5t-70.5 -73t-107.5 -47.5t-152 -18.5h-190l-48 112q-100 -127 -273 -126q-189 2 -273 148t-39 443 q20 131 59 229.5t84.5 155.5t104.5 91.5t112 46t114 11.5q324 0 464 -135l-107 -745q41 0 64.5 5.5t45 24t34 55.5t21.5 99l89 601q6 43 6.5 76t-3.5 56.5t-15 40t-23.5 26t-32.5 15t-39.5 7t-47.5 1.5h-738q-56 0 -98.5 -15t-67 -36t-42 -53.5t-24 -58t-12.5 -59.5 l-154 -970q-9 -44 -4.5 -82t20.5 -66.5t56.5 -45t104.5 -16.5h791l-29 -176q-281 -55 -598 -55h-189q-98 0 -172.5 25.5t-118.5 69t-71 102.5t-29.5 126.5zM790.5 514q0.5 -72 35 -113t106.5 -40q87 1 147.5 32t107.5 103l80 511q-93 20 -227 20q-45 0 -79.5 -15t-66.5 -52 t-55 -106.5t-37 -171.5q-12 -96 -11.5 -168z" />
<glyph horiz-adv-x="1105" d="M116 317.5q-6 51.5 4 101.5l24 151q32 207 160 289.5t364 62.5l16 90q15 90 14 94h232l-63 -399q-157 3 -235 0q-178 -7 -203 -168l-18 -110q-14 -89 33 -132t164 -43h510l-33 -210q-170 -33 -298 -46t-289 -6q-72 0 -133 17.5t-103.5 48.5t-75.5 72.5t-48.5 88.5 t-21.5 98.5zM707 1274l29 184q7 47 56 47h178q22 0 33.5 -12.5t8.5 -34.5l-29 -184q-7 -51 -57 -51h-178q-49 0 -41 51z" />
<glyph horiz-adv-x="657" d="M167 -303l201 1092h235l-144 -1092h-292zM379 967l28 180q6 43 57 47h174q19 -2 31.5 -17t9.5 -36l-28 -174q-9 -48 -51 -53h-182q-45 2 -39 53z" />
<glyph horiz-adv-x="847" d="M200 758l170 1072h220l-60 -378q122 54 235 54q64 0 108.5 -24t67 -61.5t31 -94t6.5 -111t-11 -123.5q-24 -176 -100 -259t-222 -83q-111 0 -210 92l-59 -84h-176zM457 982q38 -22 71 -32t86 -10q109 0 134 191q14 85 6 129t-25 57t-53 13q-81 0 -168 -28z" />
<glyph horiz-adv-x="729" d="M238 1143q18 112 48.5 184t74.5 106.5t88 46t108 11.5q70 0 171 -12.5t175 -36.5l-23 -139q-124 10 -252 10q-42 0 -62 -3.5t-43.5 -21.5t-37.5 -58.5t-26 -111.5q-8 -51 -8.5 -84t5 -54.5t21.5 -32t36 -14.5t54 -4q59 0 125.5 2.5t103.5 5.5l38 3l-23 -137 q-87 -32 -162.5 -43t-199.5 -10q-123 1 -183 98t-28 295z" />
<glyph horiz-adv-x="847" d="M229.5 1040q1.5 57 9.5 115q13 82 33 140.5t56 109t94 76.5t139 26q114 0 220 -54l60 379h218l-171 -1074h-176l-31 84q-119 -92 -230 -92q-58 0 -102.5 24t-68.5 64t-38 92.5t-12.5 109.5zM462 1132q-15 -110 2 -151t69 -41q55 0 92.5 12t78.5 40l50 316q-77 23 -158 23 q-27 0 -45.5 -7t-36.5 -27.5t-30.5 -61t-21.5 -103.5z" />
<glyph horiz-adv-x="802" d="M243 1158q13 74 29 124t43.5 93.5t68 68t100.5 38.5t142 14q68 0 124 -10.5t103.5 -34t72 -68.5t19.5 -107q-8 -90 -58 -148.5t-116 -79.5t-138 -26t-122 2t-69 15q-11 -70 15.5 -94.5t93.5 -25.5q133 -6 315 21l-26 -155q-187 -60 -407 -43q-134 9 -179.5 111t-10.5 305 zM455 1163q5 -1 14.5 -3t36 -5t51.5 -4t56 3t54.5 13t42.5 28t24 47q6 32 -11 49t-41.5 21.5t-65.5 4.5q-47 0 -77 -10t-46.5 -34t-23.5 -46.5t-14 -63.5z" />
<glyph horiz-adv-x="634" d="M241 1317l23 144l125 29l19 96q51 246 282 246q113 0 198 -35l-24 -133l-139 1q-25 0 -43 -7t-27.5 -15.5t-17 -29t-9.5 -31.5t-6 -40l-9 -55h180l-27 -170h-182l-88 -559h-222l88 559h-121z" />
<glyph horiz-adv-x="827" d="M168 410l25 150h334q61 0 99 31t48 92l19 122q-94 -58 -205 -58q-80 0 -135.5 31.5t-81.5 87t-33 132.5t10 168q32 185 119.5 261.5t234.5 76.5q115 0 236 -14.5t181 -32.5l-128 -810q-24 -148 -117 -217t-245 -53zM459 1035q-1 -27 4.5 -45.5t15.5 -35t29.5 -24.5 t47.5 -8q50 0 79 4.5t80 19.5l61 386h-155q-24 0 -44.5 -7.5t-34 -16.5t-25.5 -29t-18 -31.5t-13 -38t-8.5 -35t-6.5 -35.5q-6 -32 -8.5 -54.5t-3.5 -49.5z" />
<glyph horiz-adv-x="864" d="M207 758l170 1069h221l-68 -426q5 3 15 10q46 30 72.5 45.5t75.5 30.5t103 15q237 0 197 -257l-77 -487h-221l73 468q15 96 -70 96q-55 0 -94 -13t-95 -46l-80 -505h-222z" />
<glyph horiz-adv-x="395" d="M204 758l115 729h221l-114 -729h-222zM334 1595l23 138q7 39 43 39h164q34 0 27 -39l-22 -138q-6 -35 -40 -35h-164q-37 0 -31 35z" />
<glyph horiz-adv-x="395" d="M147 385l174 1099h224l-117 -733q-31 -232 -113 -366h-168zM335 1593l22 140q7 39 43 39h165q35 0 28 -39l-22 -140q-6 -35 -41 -35h-164q-37 0 -31 35z" />
<glyph horiz-adv-x="813" d="M207 758l170 1067h222l-98 -603q95 30 177 104.5t110 161.5h234q-34 -120 -115.5 -208t-162.5 -129l230 -393h-251l-188 336l-53 -1l-53 -335h-222z" />
<glyph horiz-adv-x="495" d="M248 1021l127 806h223l-122 -764q-10 -78 -1.5 -102.5t44.5 -37.5q84 -28 94 -28l-21 -137h-152q-234 0 -192 263z" />
<glyph horiz-adv-x="1353" d="M200 758l114 724h178l23 -89q6 4 29 19t30 19.5t27.5 16t31 16t30.5 12t35.5 10.5t36.5 5.5t43 2.5q155 0 194 -106q160 106 306 106q119 0 169 -71t32 -184l-76 -481h-222l74 462q7 47 -12.5 71t-58.5 24q-111 0 -194 -55q0 -2 -2 -12.5l-4 -21t-2 -13.5l-71 -455h-222 l74 462q7 47 -13.5 71t-59.5 24q-55 0 -94.5 -13t-95.5 -46l-79 -498h-221z" />
<glyph horiz-adv-x="839" d="M148 388l170 1069q161 42 423 42q140 0 196.5 -105.5t30.5 -286.5q-12 -90 -33 -154t-57.5 -116t-95.5 -77.5t-141 -25.5q-55 0 -114 16t-96 46l-64 -408h-219zM455 940q68 -29 151 -29q62 0 92 44t51 172q18 89 1 145t-80 56h-153z" />
<glyph horiz-adv-x="845" d="M246 1154q32 191 120 268.5t236 77.5q115 0 230 -14t175 -32l-169 -1076h-222l66 416q-92 -58 -198 -60q-156 0 -213 113.5t-25 306.5zM455.5 1022.5q-3.5 -48.5 20.5 -80.5t77 -32q47 -1 70.5 4t80.5 24l62 390h-145q-21 0 -39.5 -5t-32.5 -16t-25 -22t-19.5 -29.5 t-14 -31t-10.5 -34.5t-7 -32t-6 -31q-8 -56 -11.5 -104.5z" />
<glyph horiz-adv-x="638" d="M200 758l114 724h188l10 -103q132 111 241 111q63 0 87 -10l-34 -213q-42 4 -109 4q-68 0 -114.5 -15.5t-91.5 -59.5l-70 -438h-221z" />
<glyph horiz-adv-x="741" d="M212 791l21 139h353q51 0 57 43l4 24q2 23 -6.5 33.5t-36.5 10.5h-170q-97 0 -147.5 58.5t-35.5 153.5l10 64q14 89 67 134t156 45q340 0 398 -42l-22 -142h-338q-34 0 -47.5 -10.5t-16.5 -33.5l-4 -27q-4 -28 9 -36.5t41 -8.5h174q100 0 144.5 -57t32.5 -132l-13 -79 q-9 -56 -30 -94t-51 -56.5t-60.5 -25.5t-69.5 -7q-365 0 -419 46z" />
<glyph horiz-adv-x="577" d="M241 1318l20 135l136 37l66 201h183l-32 -202h170l-27 -171h-170l-42 -262q-10 -80 -1.5 -101t45.5 -32q77 -26 84 -26l-22 -138h-152q-100 0 -151.5 61t-30.5 192l49 306h-125z" />
<glyph horiz-adv-x="858" d="M230 1004l77 478h221l-74 -465q-7 -47 12.5 -70.5t58.5 -23.5q54 0 90.5 12t92.5 45l79 502h222l-115 -724h-174l-27 91q-38 -28 -48 -35t-42 -26.5t-51 -25t-51.5 -12t-68.5 -6.5q-243 0 -202 260z" />
<glyph horiz-adv-x="788" d="M265 1482h216l86 -477l172 325q34 61 43 154h208q23 -96 -39 -214l-299 -512h-228z" />
<glyph horiz-adv-x="1214" d="M265 1482h213l85 -472l174 321q34 62 43 153h208q20 -80 -16 -165q-1 -3 -21.5 -37.5t-21.5 -37.5l59 -234l172 320q35 64 44 154h209q23 -94 -40 -214l-298 -512h-222l-66 255l-136 -255h-228z" />
<glyph horiz-adv-x="823" d="M152 751l313 380l-203 350h239l109 -216l172 216h247l-318 -385l199 -345h-234l-107 212l-168 -212h-249z" />
<glyph horiz-adv-x="849" d="M269 1484h222l65 -499q7 -56 60 -58l184 379q28 70 40 178h209q23 -97 -31 -218l-245 -509q-188 -384 -488 -427v140q63 41 121.5 103.5t88.5 106.5t48 80q-84 2 -133.5 50t-57.5 122z" />
<glyph horiz-adv-x="739" d="M198 760l30 186l381 348h-348l31 188h628l-26 -167l-384 -367h324l-30 -188h-606z" />
<glyph d="M146 366l121 756q30 190 132 283.5t282 93.5h336q80 0 142.5 -20t100 -55t61 -81.5t26.5 -99.5t-4 -109l-121 -768q-30 -185 -127 -275.5t-272 -90.5h-336q-180 0 -274.5 94t-66.5 272zM437 368q0 -20 2.5 -34t9.5 -25.5t13.5 -19t18.5 -12.5t20.5 -7.5t23 -4t23 -1.5 h23.5h199q75 0 117 33.5t55 113.5l108 678q12 78 -15.5 112t-101.5 34h-215q-147 0 -170 -146l-107 -677q-4 -24 -4 -44z" />
<glyph d="M246 0l38 245h301l156 959q-88 -62 -301 -62l29 188q65 0 169 59t149 110h285l-199 -1254h296l-38 -245h-885z" />
<glyph d="M101 0l40 252q80 49 177.5 114.5t223.5 159.5t228 183.5t177 183.5t86 161q16 106 -34.5 152.5t-183.5 46.5h-530l34 214q163 27 300.5 40t320.5 13q109 0 190 -40.5t125 -109.5t60 -155.5t3 -184.5q-11 -88 -66 -184.5t-123.5 -173t-163.5 -158.5t-158.5 -129.5 t-135.5 -99.5q-21 -14 -30 -21h550l-43 -264h-1047z" />
<glyph d="M120 43l34 209h521q108 0 163.5 29.5t68.5 110.5l11 65q4 24 4 43t-2 34t-10 26t-15 19t-21.5 13.5t-25 8.5t-31.5 5.5t-34 3.5t-39 2l-406 17l39 231l409 19q110 5 162 36.5t64 109.5l11 73q6 37 -1 63.5t-22 41t-42 23t-53 11t-62 2.5h-546l32 207q89 29 205.5 43.5 t228.5 14.5t239 -1q160 -3 250 -110.5t64 -272.5l-18 -107q-19 -116 -71 -184.5t-131 -83.5q76 -28 102 -116t6 -212l-15 -87q-54 -344 -441 -344h-75.5h-80t-71.5 0.5t-77 2.5t-67 4.5t-72 7t-62 10t-66 14t-57 18.5z" />
<glyph d="M116 459l697 1040h320l-590 -900h363l55 342l92 157h222l-79 -499h150l-34 -222l-159 -50l-50 -323h-290l51 323h-700z" />
<glyph d="M125 44l36 225h578q147 0 170 145l21 131q24 151 -112 151h-188q-57 0 -96 -29.5t-49 -90.5h-274l192 925h912l-43 -264h-632l-70 -338q58 43 159 51q60 3 80.5 3t75.5 -2t56 -2q156 -8 229.5 -117t49.5 -273l-32 -228q-13 -81 -45 -142t-72.5 -96.5t-96.5 -57.5 t-108 -30t-116 -10q-192 -5 -309 4.5t-316 44.5z" />
<glyph d="M187 525.5q6 125.5 31 283.5q105 665 468 697q163 12 328 1t317 -42l-35 -218h-513q-52 0 -94.5 -25t-69.5 -61.5t-48 -91.5t-31.5 -100t-20.5 -102q167 41 421 43q70 0 124 -14.5t87.5 -42.5t55 -62.5t29 -78.5t7.5 -85.5t-7 -88.5l-35 -235q-15 -91 -50.5 -152.5 t-92.5 -93.5t-121 -45t-152 -13h-291q-59 0 -106 15.5t-88 51t-66.5 97t-39 149.5t-7.5 213.5zM466 455q0 -47 9 -81t25.5 -60.5t46 -40t69.5 -13.5h163q131 0 151 129l22 137q13 79 -8 105t-96 26h-363q-10 -60 -14.5 -107.5t-4.5 -94.5z" />
<glyph d="M300 1235l42 264h965l56 -132l-718 -1367h-313l656 1235h-688z" />
<glyph d="M152 247.5q-2 39.5 0 64.5t7 54l23 150q15 92 70 146.5t138 66.5q-164 74 -124 315l22 134q13 82 42 142.5t67 96t93 57t109.5 28.5t126.5 7h310q170 0 248.5 -97.5t50.5 -280.5l-18 -109q-3 -23 -14 -52.5t-32 -65t-60.5 -63.5t-89.5 -36q44 -11 72.5 -48t37 -81.5 t10.5 -92t-6 -79.5l-27 -176q-10 -66 -29.5 -117t-42 -85.5t-56 -58.5t-62.5 -37t-71.5 -20t-74 -8.5t-77.5 -1.5h-309q-76 0 -135 15t-94.5 38.5t-59 58t-33.5 65.5t-12 70.5zM451 376q-11 -69 17 -96t109 -27h193q137 0 155 123l22 142q10 62 -18 94.5t-91 32.5h-207 q-138 0 -158 -127zM551 1012q-6 -38 1 -64t25.5 -39.5t40 -18.5t50.5 -5h205q80 0 111 33t41 94l15 96q15 90 -12.5 119t-98.5 29h-193q-84 0 -120.5 -31t-49.5 -117z" />
<glyph d="M149 40l34 217h513q52 0 94.5 25t69.5 61.5t48.5 91.5t32 100t20.5 102q-167 -41 -422 -43q-70 0 -124 15.5t-87 44.5t-54.5 65.5t-29 81.5t-7 87.5t7.5 89.5l33 212q28 176 132 246t282 70h291q73 0 128.5 -24.5t98.5 -83.5t64 -152.5t19 -238.5t-32 -334 q-25 -157 -65 -276.5t-84.5 -191t-100.5 -118t-106.5 -65t-109.5 -23.5q-160 -13 -333 -1.5t-313 42.5zM529 978q-13 -79 7.5 -105t95.5 -26h363q12 72 16 127.5t0 108.5t-20 86.5t-48.5 54t-80.5 20.5h-161q-60 0 -99.5 -27.5t-51.5 -100.5z" />
<glyph horiz-adv-x="1746" d="M145 573q13 81 30.5 147.5t36.5 116.5t43.5 89t47 65.5t53 45t56 28.5t61 15.5t63 7t66.5 1.5h761l96 303h239l-48 -304h243l-35 -221h-243l-69 -434q-10 -63 -11.5 -102t8.5 -61.5t23.5 -32t40.5 -19.5q112 -40 121 -40l-28 -179h-207q-301 0 -240 389l75 479l-638 -1 h-14q-25 0 -37 -0.5t-33.5 -3t-32.5 -8.5t-28 -17t-27.5 -28t-24 -42t-23.5 -58t-21 -78t-20 -100q-14 -84 -15.5 -140.5t6.5 -91.5t31 -53t51.5 -24t74.5 -6q84 0 183 5t156 9l58 5l-29 -180q-125 -41 -235.5 -55t-282.5 -13q-378 2 -282 586z" />
<glyph horiz-adv-x="1546" d="M168 870l25 160l186 60l96 303h239l-49 -303h494l96 303h239l-48 -303h243l-35 -220h-243l-68 -436q-10 -63 -11 -102.5t9 -61.5t23 -31.5t38 -19.5q112 -40 121 -40l-27 -179h-198q-65 0 -115.5 20.5t-89 66t-49 120t3.5 182.5l76 481h-493l-70 -436q-10 -63 -11 -102.5 t9.5 -61.5t23.5 -31.5t38 -19.5q112 -40 121 -40l-28 -179h-197q-138 0 -209.5 93.5t-39.5 295.5l76 481h-176z" />
<glyph horiz-adv-x="1554" d="M167 868l30 185l177 34l32 203q24 152 111 236t261 84q151 0 265 -49l-28 -170l-193 1q-34 0 -57 -7.5t-36 -17.5t-23 -36.5t-14 -45t-11 -62.5l-20 -133h508l95 303h239l-47 -303h243l-35 -220h-243l-67 -436q-10 -63 -10.5 -102.5t9.5 -61.5t23 -31.5t38 -19.5 q112 -40 121 -40l-28 -179h-197q-65 0 -115.5 20.5t-88.5 66t-49 120t3 182.5l74 481h-510l-137 -870h-287l138 868h-171z" />
<glyph horiz-adv-x="1927" d="M168 870l25 160l186 60l96 303h239l-49 -303h299q165 -1 246 -67.5t93 -200.5l54 -494q8 -76 103 -79h4l278 614q40 94 54 229h265q30 -140 -49 -322l-351 -767q-62 -136 -135 -240t-137.5 -164.5t-138.5 -102t-125.5 -58t-110.5 -26.5v202q87 46 156.5 112.5t111 128.5 t84.5 147q-258 0 -288 277l-61 457q-8 82 -43.5 108t-128.5 26h-214l-70 -437q-10 -63 -10.5 -102.5t10 -61.5t23.5 -31.5t38 -19.5q112 -40 121 -40l-28 -179h-198q-65 0 -115.5 20.5t-88.5 66t-48.5 120t3.5 182.5l76 482h-176z" />
<glyph horiz-adv-x="1949" d="M167 868l30 185l177 34l32 203q24 152 111 236t261 84q151 0 265 -49l-28 -170l-193 1q-34 0 -57 -7.5t-36 -17.5t-23 -36.5t-14 -45t-11 -62.5l-20 -136h325q168 1 251 -67t95 -202l55 -493q9 -76 105 -80h3l271 614q39 96 53 230h265q30 -143 -48 -323l-352 -767 q-62 -136 -135 -240t-137 -164.5t-138 -102t-125.5 -58t-110.5 -26.5v202q66 35 121 79.5t97 96.5t73 101t63 111q-120 0 -194 68t-91 209l-60 458q-9 83 -45.5 109.5t-129.5 25.5h-248l-137 -868h-287l138 868h-171z" />
<glyph horiz-adv-x="552" d="M141 47l30 184q7 52 57 52h181q22 0 32 -14.5t7 -37.5l-30 -184q-6 -47 -53 -47h-181q-22 0 -34 13t-9 34zM213 376l101 791h288l-157 -791h-232z" />
<glyph horiz-adv-x="907" d="M285 819l19 274l23 137h275l-22 -137l-64 -274h-231zM653 819l21 274l23 137h275l-22 -137l-64 -274h-233z" />
<glyph horiz-adv-x="1247" d="M78 309l61 196h246l64 192h-248l60 196h249l98 300h196l-97 -300h196l97 300h196l-96 -300h261l-60 -196h-262l-63 -192l261 -1l-59 -196h-264l-101 -309h-196l99 309l-195 1l-101 -310h-196l99 310h-245zM583 505h196l63 192h-196z" />
<glyph horiz-adv-x="1064" d="M122 28l32 204q7 0 87 -2t190 -3.5t190 -1.5q47 0 82 22t42 66l8 51q8 48 -14.5 68.5t-74.5 20.5h-183q-76 0 -132.5 20t-87.5 54t-49.5 78.5t-18.5 93t5 97.5l11 70q25 161 125 234t271 75l24 154h180l-24 -160q183 -14 328 -38l-32 -207q-324 10 -452 10 q-118 0 -134 -102l-7 -42q-8 -48 15.5 -67.5t79.5 -19.5h200q57 0 102.5 -15t75 -41t50 -60.5t28 -74t9.5 -82t-6 -83.5l-11 -69q-7 -43 -17 -78t-24 -63t-28.5 -49.5t-36.5 -37.5t-41 -27.5t-48 -19t-52 -12t-58.5 -6.5t-62 -2.5t-67.5 -0.5l-24 -147h-179l24 154 q-244 17 -295 39z" />
<glyph horiz-adv-x="1957" d="M155 732l32 204q21 136 87.5 196t221.5 60h166q280 0 237 -279l-31 -204q-15 -94 -46 -148t-93.5 -81t-167.5 -27h-165q-134 0 -197.5 74t-43.5 205zM362 754q-8 -55 9 -77.5t75 -22.5h109q63 0 86.5 22.5t31.5 77.5l21 137q10 61 -6.5 80.5t-76.5 19.5h-109 q-60 0 -85 -20.5t-34 -79.5zM565 0l794 1167h206l-787 -1167h-213zM1245 279l31 204q21 136 87.5 196t221.5 60h165q282 0 239 -278l-32 -204q-21 -140 -86.5 -198t-219.5 -58h-165q-134 0 -197.5 74t-43.5 204zM1451 302q-8 -55 8 -77.5t74 -22.5h109q64 0 88 22.5t32 77.5 l20 136q10 61 -6.5 81t-76.5 20h-109q-59 0 -84.5 -21t-34.5 -80z" />
<glyph horiz-adv-x="1183" d="M102 300.5q-6 65.5 16.5 124t65.5 109.5t109 102l123 93l-42 73q-49 92 -32 170.5t76 132.5t131 63q223 26 451 -40l-32 -199h-235q-68 0 -90 -28.5t9 -84.5l185 -321l233 163l92 -123l-136 -191l-67 -53l177 -291h-294l-85 139l-93 -75q-47 -36 -117 -55.5t-145.5 -17 t-146.5 46t-111 125.5q-36 72 -42 137.5zM377 288q63 -96 159 -24l99 79l-107 181l-105 -75q-100 -73 -46 -161z" />
<glyph horiz-adv-x="538" d="M284 819l20 274l23 137h275l-22 -137l-64 -274h-232z" />
<glyph horiz-adv-x="872" d="M206 819l18 115l293 49l-19 -175zM274 512l94 280l164 -43l-155 -272zM487 615l119 147l199 -185l-80 -92zM518 1134l117 39l98 -251l-172 -66zM621 830l270 160l49 -96l-230 -199z" />
<glyph horiz-adv-x="1157" d="M160 354l76 504q47 309 405 309h258q59 0 106.5 -13t78.5 -34.5t53 -52t33 -62t15.5 -67t3.5 -65.5t-6 -60l-76 -504q-13 -89 -46.5 -150.5t-86.5 -95.5t-116 -48.5t-146 -14.5h-258q-72 0 -130.5 21t-101 63t-59.5 111.5t-3 158.5zM447.5 350.5q-0.5 -18.5 3 -31.5 t8 -23t14 -15.5t17 -9t22 -5t23 -2t25.5 -0.5h129q67 0 99 33.5t43 96.5l59 371q6 42 4.5 73t-26.5 48t-79 17h-129q-77 0 -108 -35.5t-41 -101.5l-59 -373q-4 -24 -4.5 -42.5z" />
<glyph horiz-adv-x="729" d="M189 810l28 188q55 0 150 58.5t140 110.5h283l-179 -1167h-286l134 873q-79 -63 -270 -63z" />
<glyph horiz-adv-x="1054" d="M76 0l41 252q71 29 142.5 61.5t171.5 86.5t176 107.5t134.5 120.5t68.5 129q14 87 -25.5 121.5t-170.5 34.5l-407 -1l34 211q142 33 230.5 44t262.5 11q219 0 307.5 -118t59.5 -317q-12 -74 -49.5 -144.5t-86 -123t-106 -97t-106.5 -71.5t-91 -43h358l-42 -264h-902z" />
<glyph horiz-adv-x="1034" d="M61 33l33 215h462q53 0 86.5 18t41.5 68l5 29q9 54 -16 73.5t-81 21.5l-364 10l37 229l366 8q65 2 93 19.5t37 72.5l6 34q10 52 -13.5 68t-87.5 16h-476l35 213q100 33 245 41t343 5q130 -2 199.5 -89.5t48.5 -217.5l-8 -58q-15 -98 -50 -156t-110 -78q110 -59 81 -256 l-6 -41q-24 -149 -103.5 -216.5t-248.5 -71.5q-414 -9 -555 43z" />
<glyph horiz-adv-x="1138" d="M92 392l507 775h307l-422 -657h278l41 248l104 176h211l-69 -424h139l-34 -222l-145 -39l-39 -245h-287l39 245h-568z" />
<glyph horiz-adv-x="1083" d="M125 47l34 214h480q62 0 89 22.5t36 73.5l10 62q4 29 3.5 50.5t-22.5 33t-71 11.5h-132q-106 0 -122 -97h-245l155 750h786l-42 -264h-540l-48 -219q53 49 152 57q13 2 128 2q172 0 239 -91t44 -245l-17 -107q-14 -88 -47 -148.5t-85 -93t-112 -46t-140 -14.5 q-178 -2 -300 7.5t-233 41.5z" />
<glyph horiz-adv-x="1099" d="M174 439.5q3 89.5 19 197.5q20 131 55.5 229.5t77 157t95 95t103.5 49t108 12.5q119 0 179.5 -1t165 -8t177.5 -22l-37 -237h-460q-130 0 -163 -208q137 23 342 25q139 1 200.5 -89.5t41.5 -218.5l-21 -136q-25 -155 -107 -221t-219 -66h-238q-49 0 -89.5 8t-78.5 28.5 t-66 52.5t-49 82t-30 115.5t-6 155zM453.5 424.5q-2.5 -33.5 1.5 -74t25 -62.5t58 -22h146q43 0 65 16t29 63l13 89q6 44 -9 57t-60 13h-259q-7 -46 -9.5 -79.5z" />
<glyph horiz-adv-x="976" d="M190 903l41 264h801l63 -132l-550 -1035h-310l483 903h-528z" />
<glyph horiz-adv-x="1144" d="M152.5 227q0.5 30 5.5 62l19 121q6 42 23 72.5t43.5 47.5t49 25t54.5 15q-66 24 -92 90t-17 139l11 88q14 89 41.5 147t73 89t99 43t131.5 12h340q131 0 198 -79.5t42 -234.5l-14 -77q-3 -15 -7 -30.5t-15.5 -40.5t-27 -45t-42.5 -38.5t-61 -25.5q56 -15 78 -80t13 -129 l-22 -143q-10 -66 -35 -114t-55 -74.5t-72.5 -42t-78 -20t-80.5 -4.5h-359q-58 0 -102.5 13t-71 36.5t-43 51.5t-22 62t-5 64zM449 325q-8 -50 10 -65.5t78 -15.5h160q48 0 70.5 16t29.5 62l13 77q7 46 -10.5 64t-61.5 18h-178q-43 0 -66 -16t-31 -63zM522 783 q-14 -83 72 -83h182q28 0 46.5 6.5t28 19.5t13 24t6.5 29l11 70q8 51 -8 68t-63 17h-170q-54 0 -76.5 -14.5t-30.5 -70.5z" />
<glyph horiz-adv-x="1097" d="M135 29l37 237h460q131 0 164 208q-163 -23 -356 -25q-57 -1 -101.5 16.5t-71 47.5t-43 70t-18 85t4.5 93l21 136q25 155 105.5 219t217.5 64h241q57 0 103.5 -12t88 -40t69 -77t44 -118.5t15 -170t-20.5 -226.5q-20 -131 -55.5 -229t-76.5 -156t-94.5 -93.5t-103 -47.5 t-107.5 -12q-119 0 -180 1t-165.5 8t-177.5 22zM497 744q-6 -44 8.5 -57t59.5 -13h261q5 35 8 62.5t1.5 62t-9.5 58t-28 39.5t-50 16h-145q-43 0 -64 -16t-28 -63z" />
<glyph horiz-adv-x="929" d="M173 901l37 232q280 47 475 38q180 0 260.5 -95t54.5 -277l-8 -61q-26 -162 -138 -234t-276 -42q0 -1 -3 -22l-6 -42t-3 -23h-224l45 290q120 -3 205 0q51 2 77.5 21.5t34.5 68.5l6 44q8 56 -16.5 79t-96.5 23h-424zM259 47l30 184q7 52 57 52h176q52 0 43 -52l-29 -184 q-8 -47 -59 -47h-176q-22 0 -33.5 12.5t-8.5 34.5z" />
<glyph horiz-adv-x="1835" d="M110.5 -16.5q-2.5 67.5 6.5 140.5l157 992q35 215 161.5 306.5t360.5 91.5h746q399 0 331 -466l-100 -668q-8 -55 -21.5 -98.5t-42.5 -87.5t-70.5 -73t-107.5 -47.5t-152 -18.5h-190l-48 112q-100 -127 -273 -126q-189 2 -273 147.5t-39 442.5q20 131 59 229.5 t84.5 155.5t104.5 91.5t112 46t114 11.5q325 0 464 -134l-107 -745q41 0 64.5 5.5t45 24t34 55.5t21.5 99l89 601q6 43 6.5 76t-3.5 56.5t-15 40t-23.5 26t-32.5 15t-39.5 7t-47.5 1.5h-738q-56 0 -99 -15t-67.5 -36t-42 -53.5t-24.5 -58t-12 -59.5l-153 -970 q-9 -44 -4.5 -82.5t20.5 -67t56.5 -45t104.5 -16.5h791l-29 -175q-281 -55 -598 -55h-189q-98 0 -172.5 25.5t-118.5 69t-71 102.5t-29.5 126.5zM772.5 424q0.5 -72 35 -113t106.5 -40q87 1 147.5 31.5t107.5 102.5l80 512q-93 20 -227 20q-45 0 -79.5 -15t-66.5 -52 t-55 -106.5t-37 -171.5q-12 -96 -11.5 -168z" />
<glyph horiz-adv-x="1241" d="M55 0l594 1167h343l197 -1167h-279l-47 238h-383l-119 -238h-306zM589 468h248l-64 352z" />
<glyph horiz-adv-x="1122" d="M124 0l185 1169h545q187 0 270.5 -86t58.5 -238q-19 -118 -71.5 -179t-129.5 -70q69 -13 106.5 -91.5t18.5 -195.5q-28 -174 -129 -241.5t-302 -67.5h-552zM450 244h243q114 0 130 125q7 66 -12.5 98.5t-77.5 32.5q-209 -2 -242 0zM524 708h243q62 0 88 25.5t36 88.5 q10 61 -12.5 83.5t-77.5 22.5h-243z" />
<glyph horiz-adv-x="1052" d="M159.5 382q-1.5 70 4.5 133.5t18 139.5q21 134 57 227.5t98.5 164t158.5 104t230 33.5q287 0 452 -63l-31 -199q-34 7 -168.5 19t-222.5 12q-62 0 -107 -15.5t-74 -41t-50 -72t-32.5 -95.5t-23.5 -125q-25 -159 -21 -220q9 -122 112 -151q35 -10 81 -11q72 1 171.5 8.5 t163.5 15.5l64 7l-31 -196q-103 -38 -208.5 -51.5t-263.5 -13.5q-84 0 -148.5 20t-106.5 54t-69 85t-39.5 106t-14 125z" />
<glyph horiz-adv-x="1202" d="M124 0l187 1171h546q77 -1 138 -21.5t101.5 -54.5t68.5 -83.5t42 -103.5t19 -119t2 -124.5t-12 -126.5q-15 -112 -44 -200t-60.5 -144t-79.5 -95.5t-83 -58t-91.5 -28.5t-83.5 -11t-78 -1h-21h-551zM451 253h233q59 0 103 26t71.5 74.5t43.5 102t27 124.5 q54 339 -139 339h-233z" />
<glyph horiz-adv-x="1048" d="M157 215l114 725q18 117 96.5 172.5t198.5 56.5q494 -11 595 -30l-36 -220h-504q-43 0 -56.5 -14t-20.5 -54l-24 -146l494 -16l-34 -215l-498 -14l-22 -146q-7 -41 9 -53t54 -12h497l-35 -220q-59 -13 -220.5 -21t-293.5 -10l-132 -2q-100 2 -149.5 57.5t-32.5 161.5z " />
<glyph horiz-adv-x="1050" d="M124 0l149 940q18 117 96.5 172.5t197.5 56.5q495 -11 596 -30l-35 -220h-505q-42 0 -55.5 -14.5t-21.5 -53.5l-27 -171l493 -16l-33 -215l-499 -15l-69 -434h-287z" />
<glyph horiz-adv-x="1161" d="M158.5 425q-0.5 40 4.5 93t7.5 73t7.5 50q45 290 156 414t353 131q122 6 287.5 -8.5t253.5 -42.5l-32 -206q-213 26 -434 26q-51 0 -83.5 -4t-64 -18t-51.5 -37.5t-38.5 -65.5t-32 -99t-26.5 -141q-6 -37 -9 -61.5t-5.5 -63.5t0.5 -65.5t12.5 -57.5t26.5 -49.5t46 -31.5 t68 -13q79 0 148.5 29t91.5 66l22 137h-207l24 156q150 40 364 40q62 0 135 -6l-106 -670h-216l-50 90q-121 -104 -326 -104q-67 0 -120 19.5t-87.5 50t-59 78t-37 91t-17.5 102t-5.5 98.5z" />
<glyph horiz-adv-x="1198" d="M122 -2l185 1169h286l-74 -472h412l74 472h287l-185 -1169h-286l69 433h-412l-69 -433h-287z" />
<glyph horiz-adv-x="501" d="M124 0l185 1167h286l-184 -1167h-287z" />
<glyph horiz-adv-x="686" d="M61 43l39 223q146 -12 201.5 20.5t74.5 141.5l118 739h287l-131 -829q-6 -40 -17.5 -80.5t-32 -85.5t-54.5 -82t-77 -57q-112 -47 -224.5 -42t-183.5 52z" />
<glyph horiz-adv-x="1171" d="M122 -2l185 1169h275l-74 -475h111l366 475h319l-440 -611l267 -558h-314l-220 453h-128l-71 -453h-276z" />
<glyph horiz-adv-x="1026" d="M163 244l146 923h286l-126 -802q-3 -17 -3 -30t1 -23.5t5.5 -18t8.5 -12.5t13.5 -8t15.5 -5t19.5 -3t21.5 -1h24h441l-42 -264h-606q-109 0 -166.5 61.5t-38.5 182.5z" />
<glyph horiz-adv-x="1564" d="M86 0l294 1169h371l94 -765l336 765h378l-76 -1169h-282l45 736l-311 -736h-286l-94 735l-183 -735h-286z" />
<glyph horiz-adv-x="1230" d="M124 0l185 1169h280l346 -681l105 681h285l-185 -1169h-278l-343 680l-108 -680h-287z" />
<glyph horiz-adv-x="1222" d="M157.5 407.5q0.5 86.5 17.5 194.5q17 106 41.5 189t54.5 144t71 104t85 70t103 42.5t118 21t137 5.5q76 0 134.5 -6.5t114.5 -24.5t94.5 -47.5t68.5 -76.5t43 -111.5t12 -152.5t-19 -199q-17 -107 -41.5 -189.5t-54 -143t-71 -102.5t-85 -68.5t-103.5 -41.5t-118.5 -20 t-138.5 -5q-75 0 -133.5 7t-113 25t-93 48t-68 77t-43 110.5t-13 150zM448.5 439.5q-1.5 -56.5 7.5 -94.5t36 -57.5t63 -26.5t95 -7q44 0 74 3.5t62 15t53.5 34t43 59t36.5 91.5t27 131q11 67 14 116t1 84t-14.5 58t-26.5 36.5t-42 20t-53.5 8.5t-69.5 2q-30 0 -49 -1 t-43 -4t-40 -9.5t-35 -18t-32 -28.5t-27.5 -41.5t-25 -57t-21 -75t-18.5 -94.5q-14 -88 -15.5 -144.5z" />
<glyph horiz-adv-x="1081" d="M94 0l184 1165h566q76 0 134 -20.5t100.5 -65t59.5 -121t5 -181.5q-7 -61 -21 -111.5t-31 -86.5t-42 -65t-46 -47t-53 -31.5t-53 -20t-55 -10t-50 -4.5t-47 -1q-32 -1 -163.5 10t-133.5 17l-67 -427h-287zM480 620h240q51 0 84 30.5t48 121.5q14 74 -9 113t-75 39h-241z " />
<glyph horiz-adv-x="1222" d="M157.5 402q0.5 86 17.5 194q17 106 41.5 189.5t54.5 144.5t71 105t85 71.5t103 43.5t118 22t137 6q76 0 134.5 -6.5t114.5 -23.5t94.5 -46t68.5 -75.5t43 -110.5t12 -152t-19 -199q-20 -125 -48.5 -217t-70 -155.5t-88 -103.5t-112.5 -61.5t-133 -29.5t-160 -8 q-75 0 -133 6.5t-113 24.5t-93.5 47t-68 75.5t-43 109.5t-13 149zM448.5 439.5q-1.5 -56.5 7.5 -94.5t36 -57.5t63 -26.5t95 -7q44 0 74 3.5t62 15t53.5 34t43 59t36.5 91.5t27 131q11 67 14 116t1 84t-14.5 58t-26.5 36.5t-42 20t-53.5 8.5t-69.5 2q-30 0 -49 -1t-43 -4 t-40 -9.5t-35 -18t-32 -28.5t-27.5 -41.5t-25 -57t-21 -75t-18.5 -94.5q-14 -88 -15.5 -144.5zM524 -68h163q54 -128 324 -57l-37 -232q-54 -11 -109 -12t-108 8.5t-98 33t-77.5 58t-48 86.5t-9.5 115z" />
<glyph horiz-adv-x="1114" d="M94 0l184 1167h546q57 0 106 -13t92 -43.5t71.5 -76t40.5 -115t2 -156.5q-19 -157 -77.5 -232t-154.5 -94l160 -437h-303l-126 411q-25 2 -105.5 10.5t-81.5 9.5l-68 -431h-286zM479 620h233q50 0 83.5 33t50.5 124q13 78 -16.5 113t-69.5 35h-233z" />
<glyph horiz-adv-x="1101" d="M134 29l32 203q312 -11 518 -11q44 0 65.5 22t26.5 50l14 81q7 44 -7.5 58.5t-61.5 14.5h-260q-305 0 -258 326l14 96q23 144 108.5 224.5t260.5 80.5q104 0 276.5 -12.5t277.5 -34.5l-32 -207q-284 14 -503 14q-87 0 -100 -89l-12 -68q-8 -49 9.5 -63t65.5 -14h271 q65 0 113.5 -18t75.5 -49.5t42.5 -74t14.5 -90.5t-7 -100l-16 -98q-14 -88 -46 -147.5t-79.5 -89.5t-97 -41.5t-113.5 -11.5q-79 0 -183.5 3t-239.5 15t-169 31z" />
<glyph horiz-adv-x="1064" d="M197 903l42 264h959l-43 -264h-336l-144 -903h-286l143 903h-335z" />
<glyph horiz-adv-x="1226" d="M189.5 401q0.5 75 15.5 165l101 601h288l-100 -635q-10 -59 -11 -103.5t7 -75t22.5 -50t39.5 -30.5t53 -15t68 -4q55 0 93 10.5t72 40t56 85.5t36 142l101 635h288l-100 -668q-16 -100 -43 -178.5t-59 -131.5t-77 -90.5t-86 -58.5t-97.5 -32.5t-101 -14.5t-106.5 -3 q-56 0 -103 5t-95.5 16.5t-86 32t-72 51t-56 74.5t-34.5 100.5t-12.5 131.5z" />
<glyph horiz-adv-x="1247" d="M239 1167h299l138 -809l392 809h310l-574 -1167h-343z" />
<glyph horiz-adv-x="1738" d="M239 1167h297l101 -812l346 812h300l-149 -327l92 -485l346 812h300l-525 -1167h-343l-67 381l-177 -381h-345z" />
<glyph horiz-adv-x="1208" d="M55 0l465 597l-275 570h343l150 -352l250 352h354l-479 -600l281 -567h-331l-162 340l-245 -340h-351z" />
<glyph horiz-adv-x="1202" d="M239 1167h301l168 -455l305 455h321l-518 -767l-63 -402h-287l63 402z" />
<glyph horiz-adv-x="1024" d="M55 0l42 264l649 639h-547l40 264h918l-41 -264l-629 -639h528l-43 -264h-917z" />
<glyph horiz-adv-x="505" d="M247 1371h243l159 -284h-186z" />
<glyph horiz-adv-x="915" d="M266 1191q7 49 48.5 84.5t91.5 35.5q49 0 79 -35t22 -85t-49 -85.5t-90 -35.5t-79.5 35.5t-22.5 85.5zM788 1191q7 49 48.5 84.5t91.5 35.5q49 0 79 -35t22 -85t-49 -85.5t-90 -35.5t-79.5 35.5t-22.5 85.5z" />
<glyph horiz-adv-x="751" d="M240 1030l26 163h598l-26 -163h-598z" />
<glyph horiz-adv-x="565" d="M226 959q10 87 78.5 145.5t155.5 58.5q86 0 138.5 -60.5t42.5 -148.5q-10 -87 -77.5 -145t-154.5 -58t-140 60.5t-43 147.5zM346 956q-5 -36 18 -61.5t60 -25.5t64.5 25t32.5 62t-16.5 62.5t-58.5 25.5t-66 -25.5t-34 -62.5z" />
<glyph horiz-adv-x="497" d="M203 1087l230 284h251l-295 -284h-186z" />
<glyph horiz-adv-x="1241" d="M55 0l594 1167h343l197 -1167h-279l-47 238h-383l-119 -238h-306zM589 468h248l-64 352zM747 1290l230 284h251l-295 -284h-186z" />
<glyph horiz-adv-x="1241" d="M55 0l594 1167h343l197 -1167h-279l-47 238h-383l-119 -238h-306zM524 1290l265 278h213l154 -278h-185l-87 134l-148 -134h-212zM589 468h248l-64 352z" />
<glyph horiz-adv-x="1241" d="M55 0l594 1167h343l197 -1167h-279l-47 238h-383l-119 -238h-306zM506 1403q153 143 270 143q51 -2 111.5 -36.5t93.5 -34.5q46 -2 110.5 24t94.5 52l30 -122q-48 -42 -78 -66t-81.5 -48t-96.5 -24q-42 0 -80.5 18t-72 35.5t-65.5 17.5q-40 0 -77.5 -11.5t-59 -22.5 t-67.5 -38zM589 468h248l-64 352z" />
<glyph horiz-adv-x="1241" d="M55 0l594 1167h343l197 -1167h-279l-47 238h-383l-119 -238h-306zM479 1412q7 49 48.5 84t91.5 35q49 0 78.5 -34.5t21.5 -84.5t-49 -86t-90 -36t-79 36t-22 86zM589 468h248l-64 352zM1001 1412q7 49 48.5 84t91.5 35t79 -35t22 -84q-8 -50 -49 -86t-90 -36t-79.5 36 t-22.5 86z" />
<glyph horiz-adv-x="1241" d="M55 0l594 1167h343l197 -1167h-279l-47 238h-383l-119 -238h-306zM589 468h248l-64 352zM630 1367q7 87 73 147t153 60t142 -60t48 -147q-7 -88 -71.5 -147.5t-150.5 -59.5q-87 0 -144 60t-50 147zM750 1367q-4 -36 20.5 -61.5t61.5 -25.5t63.5 25t30.5 62t-19 63t-60 26 t-65 -26t-32 -63z" />
<glyph horiz-adv-x="1609" d="M36 0l556 945q30 53 70.5 92t89.5 62t94.5 37.5t105.5 20.5t100.5 7.5t100.5 2.5h16q457 -11 558 -30l-35 -221h-468q-43 0 -56.5 -13.5t-21.5 -52.5l-24 -150l458 -16l-33 -215l-465 -15l-21 -142q-7 -41 9 -52.5t55 -11.5l461 -1l-35 -220q-59 -13 -207 -21t-266 -10 l-119 -1q-98 -2 -158 49t-45 156l12 83h-246l-169 -283h-317zM639 488h160l61 372z" />
<glyph horiz-adv-x="1048" d="M157 215l114 725q18 117 96.5 172.5t198.5 56.5q494 -11 595 -30l-36 -220h-504q-43 0 -56.5 -14t-20.5 -54l-24 -146l494 -16l-34 -215l-498 -14l-22 -146q-7 -41 9 -53t54 -12h497l-35 -220q-59 -13 -220.5 -21t-293.5 -10l-132 -2q-100 2 -149.5 57.5t-32.5 161.5z M681 1292l231 284h251l-296 -284h-186z" />
<glyph horiz-adv-x="1048" d="M157 215l114 725q18 117 96.5 172.5t198.5 56.5q494 -11 595 -30l-36 -220h-504q-43 0 -56.5 -14t-20.5 -54l-24 -146l494 -16l-34 -215l-498 -14l-22 -146q-7 -41 9 -53t54 -12h497l-35 -220q-59 -13 -220.5 -21t-293.5 -10l-132 -2q-100 2 -149.5 57.5t-32.5 161.5z M395 1398q7 49 48.5 84t91.5 35t79 -35t22 -84q-8 -50 -49 -85.5t-90 -35.5t-79.5 35.5t-22.5 85.5zM918 1398q7 49 48.5 84t91.5 35q49 0 78.5 -34.5t21.5 -84.5t-49 -85.5t-90 -35.5t-79 35.5t-22 85.5z" />
<glyph horiz-adv-x="501" d="M124 0l185 1167h286l-184 -1167h-287zM332 1290l230 284h251l-295 -284h-186z" />
<glyph horiz-adv-x="501" d="M124 0l185 1167h286l-184 -1167h-287zM146 1290l265 278h213l154 -278h-185l-87 134l-149 -134h-211z" />
<glyph horiz-adv-x="1222" d="M157.5 407.5q0.5 86.5 17.5 194.5q17 106 41.5 189t54.5 144t71 104t85 70t103 42.5t118 21t137 5.5q76 0 134.5 -6.5t114.5 -24.5t94.5 -47.5t68.5 -76.5t43 -111.5t12 -152.5t-19 -199q-17 -107 -41.5 -189.5t-54 -143t-71 -102.5t-85 -68.5t-103.5 -41.5t-118.5 -20 t-138.5 -5q-75 0 -133.5 7t-113 25t-93 48t-68 77t-43 110.5t-13 150zM448.5 439.5q-1.5 -56.5 7.5 -94.5t36 -57.5t63 -26.5t95 -7q44 0 74 3.5t62 15t53.5 34t43 59t36.5 91.5t27 131q11 67 14 116t1 84t-14.5 58t-26.5 36.5t-42 20t-53.5 8.5t-69.5 2q-30 0 -49 -1 t-43 -4t-40 -9.5t-35 -18t-32 -28.5t-27.5 -41.5t-25 -57t-21 -75t-18.5 -94.5q-14 -88 -15.5 -144.5zM489 1300l265 278h213l154 -278h-185l-88 134l-148 -134h-211z" />
<glyph horiz-adv-x="1222" d="M157.5 407.5q0.5 86.5 17.5 194.5q17 106 41.5 189t54.5 144t71 104t85 70t103 42.5t118 21t137 5.5q76 0 134.5 -6.5t114.5 -24.5t94.5 -47.5t68.5 -76.5t43 -111.5t12 -152.5t-19 -199q-17 -107 -41.5 -189.5t-54 -143t-71 -102.5t-85 -68.5t-103.5 -41.5t-118.5 -20 t-138.5 -5q-75 0 -133.5 7t-113 25t-93 48t-68 77t-43 110.5t-13 150zM448.5 439.5q-1.5 -56.5 7.5 -94.5t36 -57.5t63 -26.5t95 -7q44 0 74 3.5t62 15t53.5 34t43 59t36.5 91.5t27 131q11 67 14 116t1 84t-14.5 58t-26.5 36.5t-42 20t-53.5 8.5t-69.5 2q-30 0 -49 -1 t-43 -4t-40 -9.5t-35 -18t-32 -28.5t-27.5 -41.5t-25 -57t-21 -75t-18.5 -94.5q-14 -88 -15.5 -144.5zM471 1414q152 142 270 142q51 -2 111.5 -36.5t93.5 -34.5q46 -2 110.5 24.5t94.5 52.5l29 -122q-36 -32 -57.5 -49.5t-58 -42t-71 -36t-69.5 -11.5q-42 0 -80.5 18 t-72 35.5t-65.5 17.5q-40 0 -77.5 -11.5t-58 -22.5t-67.5 -38z" />
<glyph horiz-adv-x="1222" d="M157.5 407.5q0.5 86.5 17.5 194.5q17 106 41.5 189t54.5 144t71 104t85 70t103 42.5t118 21t137 5.5q76 0 134.5 -6.5t114.5 -24.5t94.5 -47.5t68.5 -76.5t43 -111.5t12 -152.5t-19 -199q-17 -107 -41.5 -189.5t-54 -143t-71 -102.5t-85 -68.5t-103.5 -41.5t-118.5 -20 t-138.5 -5q-75 0 -133.5 7t-113 25t-93 48t-68 77t-43 110.5t-13 150zM443 1422q7 49 48.5 84t91.5 35t79 -35t22 -84q-8 -50 -49 -86t-90 -36t-79.5 36t-22.5 86zM448.5 439.5q-1.5 -56.5 7.5 -94.5t36 -57.5t63 -26.5t95 -7q44 0 74 3.5t62 15t53.5 34t43 59t36.5 91.5 t27 131q11 67 14 116t1 84t-14.5 58t-26.5 36.5t-42 20t-53.5 8.5t-69.5 2q-30 0 -49 -1t-43 -4t-40 -9.5t-35 -18t-32 -28.5t-27.5 -41.5t-25 -57t-21 -75t-18.5 -94.5q-14 -88 -15.5 -144.5zM966 1422q7 49 48.5 84t91.5 35q49 0 78.5 -34.5t21.5 -84.5t-49 -86t-90 -36 t-79 36t-22 86z" />
<glyph horiz-adv-x="1222" d="M97 0l128 145q-38 67 -46.5 180.5t16.5 270.5q17 106 42 189.5t55 144.5t71 105t85.5 71.5t103 43.5t118 22t137.5 6q198 0 292 -49l34 39h153l-99 -113q99 -138 43 -490q-20 -125 -48.5 -217t-70 -155.5t-88 -103.5t-112.5 -61.5t-133 -29.5t-160 -8q-218 0 -315 71 l-53 -61h-153zM474 424l421 477q-28 12 -118 12q-33 0 -53.5 -1t-48 -5.5t-44.5 -13.5t-38 -24.5t-35 -40t-29 -58t-26 -80.5t-20 -106q-15 -97 -9 -160zM507 289q36 -35 141 -35q46 0 76 3.5t62 15t53.5 34t42 59t35.5 91.5t27 131q23 138 9 204z" />
<glyph horiz-adv-x="1226" d="M189.5 401q0.5 75 15.5 165l101 601h288l-100 -635q-10 -59 -11 -103.5t7 -75t22.5 -50t39.5 -30.5t53 -15t68 -4q55 0 93 10.5t72 40t56 85.5t36 142l101 635h288l-100 -668q-16 -100 -43 -178.5t-59 -131.5t-77 -90.5t-86 -58.5t-97.5 -32.5t-101 -14.5t-106.5 -3 q-56 0 -103 5t-95.5 16.5t-86 32t-72 51t-56 74.5t-34.5 100.5t-12.5 131.5zM739 1290l231 284h251l-295 -284h-187z" />
<glyph horiz-adv-x="1226" d="M189.5 401q0.5 75 15.5 165l101 601h288l-100 -635q-10 -59 -11 -103.5t7 -75t22.5 -50t39.5 -30.5t53 -15t68 -4q55 0 93 10.5t72 40t56 85.5t36 142l101 635h288l-100 -668q-16 -100 -43 -178.5t-59 -131.5t-77 -90.5t-86 -58.5t-97.5 -32.5t-101 -14.5t-106.5 -3 q-56 0 -103 5t-95.5 16.5t-86 32t-72 51t-56 74.5t-34.5 100.5t-12.5 131.5zM516 1290l265 278h213l154 -278h-185l-87 134l-149 -134h-211z" />
<glyph horiz-adv-x="1226" d="M189.5 401q0.5 75 15.5 165l101 601h288l-100 -635q-10 -59 -11 -103.5t7 -75t22.5 -50t39.5 -30.5t53 -15t68 -4q55 0 93 10.5t72 40t56 85.5t36 142l101 635h288l-100 -668q-16 -100 -43 -178.5t-59 -131.5t-77 -90.5t-86 -58.5t-97.5 -32.5t-101 -14.5t-106.5 -3 q-56 0 -103 5t-95.5 16.5t-86 32t-72 51t-56 74.5t-34.5 100.5t-12.5 131.5zM470 1412q7 49 48.5 84t91.5 35t79 -35t22 -84q-8 -50 -49 -86t-90 -36t-79.5 36t-22.5 86zM993 1412q7 49 48.5 84t91.5 35q49 0 78.5 -34.5t21.5 -84.5t-49 -86t-90 -36t-79 36t-22 86z" />
<glyph horiz-adv-x="2091" d="M106 29l32 203q312 -11 518 -11q44 0 66 22t27 50l13 81q7 44 -7.5 58.5t-61.5 14.5h-260q-305 0 -258 326l15 96q11 69 35 122t66 95.5t109.5 65t157.5 22.5q104 0 276.5 -12.5t277.5 -34.5l-32 -207q-284 14 -503 14q-87 0 -100 -89l-11 -68q-8 -49 9.5 -63t64.5 -14 h271q65 0 113.5 -18t75.5 -49.5t42.5 -74t14.5 -90.5t-7 -100l-16 -98q-14 -88 -46 -147.5t-79.5 -89.5t-97 -41.5t-113.5 -11.5q-79 0 -183.5 3t-239.5 15t-169 31zM1139 30l32 203q312 -11 518 -11q44 0 65.5 22t26.5 51l14 80q7 44 -7.5 58.5t-61.5 14.5h-260 q-305 0 -258 326l14 96q23 144 108.5 224.5t260.5 80.5q104 0 276.5 -12.5t277.5 -34.5l-32 -207q-284 14 -503 14q-87 0 -100 -89l-12 -68q-8 -49 9.5 -63t65.5 -14h271q65 0 113.5 -18t75.5 -49.5t42.5 -74t14.5 -90.5t-7 -100l-16 -98q-14 -88 -46 -147.5t-79.5 -89.5 t-97 -41.5t-113.5 -11.5q-79 0 -183.5 3t-239.5 15t-169 31z" />
<glyph horiz-adv-x="1241" d="M55 0l594 1167h343l197 -1167h-279l-47 238h-383l-119 -238h-306zM531 1574h244l158 -284h-186zM589 468h248l-64 352z" />
<glyph horiz-adv-x="1052" d="M159.5 382q-1.5 70 4.5 133.5t18 139.5q21 134 57 227.5t98.5 164t158.5 104t230 33.5q287 0 452 -63l-31 -199q-34 7 -168.5 19t-222.5 12q-62 0 -107 -15.5t-74 -41t-50 -72t-32.5 -95.5t-23.5 -125q-25 -159 -21 -220q9 -122 112 -151q35 -10 81 -11q72 1 171.5 8.5 t163.5 15.5l64 7l-31 -196q-103 -38 -208.5 -51.5t-263.5 -13.5q-84 0 -148.5 20t-106.5 54t-69 85t-39.5 106t-14 125zM330 -370l20 123l95 31q43 18 58 45t25 91h193q-25 -160 -85 -225t-190 -65h-116z" />
<glyph horiz-adv-x="1247" d="M76 527l22 133h135l81 511h521q89 -1 158 -27.5t111.5 -73.5t69 -106t35 -131.5t6.5 -143.5t-14 -147q-14 -89 -35 -163.5t-45.5 -127.5t-53.5 -95t-59.5 -67.5t-63.5 -45t-65.5 -27t-65 -13.5t-62.5 -4t-58 1h-12h-10.5h-11.5h-530l83 527h-136zM455 253h214 q59 0 103 26t71.5 74.5t43.5 102t27 124.5q54 339 -138 339h-215l-41 -259h154l-20 -133h-156z" />
<glyph horiz-adv-x="1048" d="M157 215l114 725q18 117 96.5 172.5t198.5 56.5q494 -11 595 -30l-36 -220h-504q-43 0 -56.5 -14t-20.5 -54l-24 -146l494 -16l-34 -215l-498 -14l-22 -146q-7 -41 9 -53t54 -12h497l-35 -220q-59 -13 -220.5 -21t-293.5 -10l-132 -2q-100 2 -149.5 57.5t-32.5 161.5z M461 1576h243l159 -284h-187z" />
<glyph horiz-adv-x="1048" d="M157 215l114 725q18 117 96.5 172.5t198.5 56.5q494 -11 595 -30l-36 -220h-504q-43 0 -56.5 -14t-20.5 -54l-24 -146l494 -16l-34 -215l-498 -14l-22 -146q-7 -41 9 -53t54 -12h497l-35 -220q-59 -13 -220.5 -21t-293.5 -10l-132 -2q-100 2 -149.5 57.5t-32.5 161.5z M451 1292l265 278h213l154 -278h-185l-88 134l-148 -134h-211z" />
<glyph horiz-adv-x="501" d="M106 1574h243l159 -284h-186zM124 0l185 1167h286l-184 -1167h-287z" />
<glyph horiz-adv-x="501" d="M28 1412q7 49 48.5 84t91.5 35q49 0 78.5 -34.5t21.5 -84.5t-49 -86t-90 -36t-79 36t-22 86zM101 0l184 1167h287l-185 -1167h-286zM550 1412q7 49 48.5 84t91.5 35t79 -35t22 -84q-8 -50 -49 -86t-90 -36t-79.5 36t-22.5 86z" />
<glyph horiz-adv-x="1230" d="M124 0l185 1169h280l346 -681l105 681h285l-185 -1169h-278l-343 680l-108 -680h-287zM466 1406q152 142 270 142q51 -2 111.5 -36.5t93.5 -34.5q46 -2 110.5 24.5t94.5 52.5l30 -123q-48 -42 -78 -66t-81.5 -48t-96.5 -24q-42 0 -80.5 18t-72 35.5t-65.5 17.5 q-40 0 -77.5 -11.5t-59 -22.5t-67.5 -38z" />
<glyph horiz-adv-x="1222" d="M157.5 407.5q0.5 86.5 17.5 194.5q17 106 41.5 189t54.5 144t71 104t85 70t103 42.5t118 21t137 5.5q76 0 134.5 -6.5t114.5 -24.5t94.5 -47.5t68.5 -76.5t43 -111.5t12 -152.5t-19 -199q-17 -107 -41.5 -189.5t-54 -143t-71 -102.5t-85 -68.5t-103.5 -41.5t-118.5 -20 t-138.5 -5q-75 0 -133.5 7t-113 25t-93 48t-68 77t-43 110.5t-13 150zM448.5 439.5q-1.5 -56.5 7.5 -94.5t36 -57.5t63 -26.5t95 -7q44 0 74 3.5t62 15t53.5 34t43 59t36.5 91.5t27 131q11 67 14 116t1 84t-14.5 58t-26.5 36.5t-42 20t-53.5 8.5t-69.5 2q-30 0 -49 -1 t-43 -4t-40 -9.5t-35 -18t-32 -28.5t-27.5 -41.5t-25 -57t-21 -75t-18.5 -94.5q-14 -88 -15.5 -144.5zM490 1584h243l159 -284h-186z" />
<glyph horiz-adv-x="1222" d="M157.5 407.5q0.5 86.5 17.5 194.5q17 106 41.5 189t54.5 144t71 104t85 70t103 42.5t118 21t137 5.5q76 0 134.5 -6.5t114.5 -24.5t94.5 -47.5t68.5 -76.5t43 -111.5t12 -152.5t-19 -199q-17 -107 -41.5 -189.5t-54 -143t-71 -102.5t-85 -68.5t-103.5 -41.5t-118.5 -20 t-138.5 -5q-75 0 -133.5 7t-113 25t-93 48t-68 77t-43 110.5t-13 150zM448.5 439.5q-1.5 -56.5 7.5 -94.5t36 -57.5t63 -26.5t95 -7q44 0 74 3.5t62 15t53.5 34t43 59t36.5 91.5t27 131q11 67 14 116t1 84t-14.5 58t-26.5 36.5t-42 20t-53.5 8.5t-69.5 2q-30 0 -49 -1 t-43 -4t-40 -9.5t-35 -18t-32 -28.5t-27.5 -41.5t-25 -57t-21 -75t-18.5 -94.5q-14 -88 -15.5 -144.5zM707 1300l230 284h251l-295 -284h-186z" />
<glyph horiz-adv-x="1226" d="M189.5 401q0.5 75 15.5 165l101 601h288l-100 -635q-10 -59 -11 -103.5t7 -75t22.5 -50t39.5 -30.5t53 -15t68 -4q55 0 93 10.5t72 40t56 85.5t36 142l101 635h288l-100 -668q-16 -100 -43 -178.5t-59 -131.5t-77 -90.5t-86 -58.5t-97.5 -32.5t-101 -14.5t-106.5 -3 q-56 0 -103 5t-95.5 16.5t-86 32t-72 51t-56 74.5t-34.5 100.5t-12.5 131.5zM509 1574h244l158 -284h-186z" />
<glyph horiz-adv-x="1202" d="M239 1167h301l168 -455l305 455h321l-518 -767l-63 -402h-287l63 402zM703 1290l230 284h251l-295 -284h-186z" />
<glyph horiz-adv-x="1075" d="M116 0l185 1165h284l-31 -199h232q47 0 88.5 -9t85 -34.5t72 -66t41.5 -111t1 -161.5q-9 -73 -28.5 -131.5t-42 -97t-54.5 -66t-60 -42t-64.5 -23t-62 -10.5t-58.5 -2q-150 0 -264 33l-39 -245h-285zM475 462h186q59 0 85 27t40 111q11 70 -8.5 97t-75.5 27h-186z" />
<glyph horiz-adv-x="503" d="M96 -222l17 113q22 0 38 6.5t23.5 19t10.5 21t5 20.5l7 42h-23q-24 0 -36.5 13.5t-8.5 40.5l29 183q9 58 62 58h177q52 0 43 -58l-44 -272q-8 -50 -29 -87.5t-48 -57t-57.5 -31.5t-59.5 -14.5t-53 -2t-39 3.5z" />
<glyph horiz-adv-x="858" d="M222 713l42 272q8 50 29 87.5t48 57t58 32t60 14.5t53 1.5t38 -3.5l15 -2l-18 -113q-22 0 -37.5 -6.5t-23 -19t-10.5 -20t-5 -20.5l-7 -43h23q24 0 37 -13.5t9 -39.5l-29 -184q-9 -58 -64 -58h-177q-50 0 -41 58zM580 713l43 272q8 50 29 87.5t48 57t57.5 32t59.5 14.5 t53 1.5t38 -3.5l15 -2l-18 -113q-22 0 -37.5 -6.5t-23 -19t-10.5 -20t-5 -20.5l-7 -43h24q24 0 36.5 -13.5t8.5 -39.5l-29 -184q-9 -58 -64 -58h-176q-51 0 -42 58z" />
<glyph horiz-adv-x="858" d="M224 662l18 113q22 0 38 6.5t23.5 18.5t10.5 20.5t5 20.5l8 43h-24q-24 0 -36.5 13.5t-8.5 39.5l29 184q9 58 62 58h177q52 0 43 -58l-43 -272q-8 -50 -29 -87.5t-48 -57t-58 -31.5t-60.5 -14.5t-53.5 -2t-39 3.5zM582 662l18 113q22 0 38 6.5t23.5 18.5t10.5 20.5 t5 20.5l8 43h-24q-24 0 -36.5 13.5t-8.5 39.5l29 184q9 58 62 58h178q51 0 42 -58l-43 -272q-8 -50 -29 -87.5t-48 -57t-58 -31.5t-60.5 -14.5t-53.5 -2t-39 3.5z" />
<glyph horiz-adv-x="856" d="M86 -221l18 113q22 0 37.5 6.5t23 19t10.5 20t5 20.5l8 43h-23q-24 0 -37 13.5t-9 39.5l29 184q9 58 63 58h176q52 0 43 -58l-43 -272q-8 -50 -29 -87.5t-48 -57t-58 -31.5t-60 -14.5t-53 -2t-39 2.5zM444 -221l18 113q22 0 37.5 6.5t23 19t10.5 20t5 20.5l8 43h-23 q-24 0 -37 13.5t-9 39.5l29 184q9 58 63 58h177q51 0 42 -58l-43 -272q-8 -50 -29 -87.5t-48 -57t-58 -31.5t-60 -14.5t-53 -2t-39 2.5z" />
<glyph horiz-adv-x="555" d="M134 0l149 792h232l-93 -792h-288zM286 936l29 184q6 47 54 47h179q22 0 34 -13t9 -34l-30 -184q-7 -51 -57 -51h-179q-22 0 -32 14t-7 37z" />
<glyph horiz-adv-x="845" d="M135 253l22 141h660l-21 -141h-661zM190 820q23 147 68 225.5t124.5 111.5t218.5 34q194 1 266 -88.5t38 -304.5q-22 -136 -64.5 -209.5t-124 -107t-225.5 -33.5q-192 0 -262 88.5t-39 283.5zM404 724q0 -34 5.5 -53.5t23 -29t34.5 -12t50 -2.5q27 0 41.5 1t34 6t31 16.5 t24 31.5t21 52t15.5 76q9 57 10 93t-3 58.5t-20.5 33t-36 14t-56.5 3.5q-56 1 -84 -12t-47.5 -56t-34.5 -134q-8 -52 -8 -86z" />
<glyph horiz-adv-x="841" d="M137 257l21 141h703l-21 -141h-703zM168 463l332 707h269l102 -707h-201l-20 148h-192l-70 -148h-220zM520 765h116l-26 205z" />
<glyph horiz-adv-x="1060" d="M87 402l20 130l120 10l12 76l-115 12l19 124l120 15q6 41 12 71t22 76t37 79.5t58 70.5t83.5 61t116.5 39.5t154 15.5q67 0 200 -14t237 -33l-33 -217q-256 22 -387 22q-104 0 -151 -46t-61 -125l356 -13l-21 -128l-359 -10l-11 -76l354 -10l-20 -130q-10 0 -28 -0.5 t-65 -1.5t-89 -2.5t-85 -2.5t-68 -2.5t-24 -2.5q-9 -51 0.5 -83.5t36.5 -47t53 -19t65 -4.5q71 0 172 7t167 13l66 7l-34 -216q-80 -29 -211.5 -43t-249.5 -14q-56 0 -106 9t-103.5 35.5t-88.5 69t-51.5 116t-3.5 170.5z" />
<glyph horiz-adv-x="976" d="M141 356l9 61q26 164 138.5 243.5t273.5 49.5l8 42q7 43 6 45h223l-45 -290q-120 3 -206 0q-51 -2 -77.5 -21.5t-34.5 -68.5l-5 -44q-8 -56 16.5 -79t95.5 -23h424l-36 -231q-284 -48 -475 -39q-365 0 -315 355zM575 941l30 184q8 47 59 47h176q22 0 33 -12.5t8 -34.5 l-29 -184q-3 -24 -18.5 -38t-39.5 -14h-176q-52 0 -43 52z" />
<glyph horiz-adv-x="1753" d="M133.5 404.5q0.5 86.5 17.5 194.5q20 124 49 216.5t70 156t88 104.5t112.5 63t132.5 30.5t158 8.5q115 0 195 -16.5t134 -59.5q72 70 195 67q492 -11 593 -30l-35 -220h-505q-43 0 -55.5 -13.5t-19.5 -54.5l-23 -146l492 -16l-33 -215l-498 -14l-23 -146q-7 -41 9 -53 t54 -12h497l-35 -220q-59 -13 -220.5 -21t-293.5 -10l-132 -2q-91 -2 -130 55q-108 -61 -329 -61q-75 0 -133.5 7t-113.5 24.5t-93 47.5t-68 76.5t-43.5 109.5t-13 149.5zM424.5 439.5q-1.5 -56.5 7.5 -94.5t36 -57.5t63 -26.5t95 -7q44 0 74 3.5t62 15t53.5 34t43 59 t36.5 91.5t27 131q11 67 14 116t1 84t-14.5 58t-26.5 36.5t-42 20t-53.5 8.5t-69.5 2q-30 0 -49 -1t-43 -4t-40 -9.5t-35 -18t-32 -28.5t-27.5 -41.5t-25 -57t-21 -75t-18.5 -94.5q-14 -88 -15.5 -144.5z" />
<glyph horiz-adv-x="1202" d="M239 1167h301l168 -455l305 455h321l-518 -767l-63 -402h-287l63 402zM444 1412q7 49 48.5 84t91.5 35t79 -35t22 -84q-8 -50 -49.5 -86t-90.5 -36t-79 36t-22 86zM966 1412q7 49 48.5 84t91.5 35t79 -35t22 -84q-8 -50 -49 -86t-90 -36t-79.5 36t-22.5 86z" />
<glyph horiz-adv-x="1050" d="M78 0l32 200l121 41l38 238h-115l23 152l122 32l17 104q11 67 29.5 122t54.5 108.5t86.5 90t128.5 59t176 22.5q26 0 117.5 -6.5t169.5 -12.5l79 -7l-37 -234h-330q-97 0 -137.5 -35.5t-52.5 -110.5l-15 -91l367 -31l-27 -166h-371l-35 -224h496l-40 -251h-897z" />
<glyph horiz-adv-x="1107" d="M209 216l19 130h235l9 52h-234l19 130h186l-228 641h305l132 -442l280 442h330l-438 -641h207l-19 -130h-253l-9 -52h253l-20 -130h-253l-34 -216h-287l34 216h-234z" />
<glyph horiz-adv-x="786" d="M250 1087l264 278h213l154 -278h-188l-94 132l-146 -132h-203z" />
<glyph horiz-adv-x="858" d="M266 1201q37 35 60 54t59.5 44t73.5 36.5t77 11.5q46 0 105.5 -36t99.5 -36q90 -2 205 82l30 -122q-40 -41 -70.5 -67.5t-83.5 -53.5t-102 -27q-46 0 -113.5 36t-106.5 36q-17 0 -32 -1.5t-31 -6t-26 -7.5t-28.5 -12t-25.5 -12.5t-29.5 -16t-29.5 -16.5z" />
<glyph horiz-adv-x="536" d="M217 507l29 184q7 51 58 51h176q52 0 43 -51l-30 -184q-8 -47 -57 -47h-176q-22 0 -34 13t-9 34z" />
<glyph horiz-adv-x="630" d="M218 539l37 243q5 33 26 52t54 19h230q37 0 50.5 -18t8.5 -53l-37 -243q-11 -66 -83 -66h-231q-31 0 -45.5 17.5t-9.5 48.5z" />
<glyph horiz-adv-x="522" d="M234 718l42 272q11 69 46 113t77 58.5t82.5 19t67.5 -0.5l27 -4l-17 -113q-22 0 -38 -6.5t-23.5 -18.5t-10.5 -20.5t-5 -20.5l-6 -43h23q24 0 36.5 -13.5t8.5 -39.5l-28 -183q-9 -58 -65 -58h-176q-50 0 -41 58z" />
<glyph horiz-adv-x="522" d="M235 666l18 114q22 0 38 6.5t23.5 18.5t10.5 20.5t5 20.5l7 42h-24q-24 0 -36.5 13.5t-8.5 40.5l30 183q9 58 62 58h177q51 0 42 -58l-44 -272q-8 -50 -29 -87.5t-48 -57t-57.5 -31.5t-59.5 -14.5t-53 -2t-38 3.5z" />
<glyph horiz-adv-x="2039" d="M134 380q-1 87 14 199q21 131 54.5 226t72.5 151.5t93 89t106 43.5t120 11q96 0 241.5 -17.5t248.5 -49.5l-28 -178q-194 14 -376 14q-30 0 -47 -1t-39.5 -5.5t-36 -13.5t-30.5 -24.5t-28 -40t-23.5 -58.5t-22 -80.5t-19.5 -106.5q-11 -68 -11.5 -119.5t10.5 -86 t27.5 -57t44.5 -35t57 -17.5t70 -6q178 -4 515 180l190 1204h287l-161 -1013q168 121 285 257.5t130 240.5h306q-33 -136 -145.5 -286.5t-243.5 -257.5l323 -543h-319l-229 370q-8 -5 -44 -28t-68 -43t-45 -27l-43 -272h-287l21 126q-287 -132 -481 -132q-92 0 -164 12 t-133 39.5t-100.5 72.5t-65 110t-26.5 152z" />
<glyph horiz-adv-x="948" d="M214 768l76 488q41 253 291 253h242q134 0 192 -68.5t40 -177.5l-78 -495q-21 -131 -87.5 -188.5t-190.5 -57.5h-242q-56 0 -102.5 14t-82.5 42t-52 77t-6 113zM442 814q-8 -55 11 -71t71 -16h132q52 0 75.5 18t31.5 68l70 405q8 48 -7.5 67t-66.5 19h-143q-54 0 -75 -21 t-29 -65z" />
<glyph horiz-adv-x="571" d="M224 1237l24 152q52 0 133.5 44t111.5 79h217l-157 -989h-221l123 760q-58 -46 -231 -46z" />
<glyph horiz-adv-x="815" d="M138 523l31 196q50 32 73.5 47t89.5 59t105.5 73.5t97 75.5t91.5 81.5t61.5 75.5t32.5 72q10 66 -20.5 91t-117.5 25h-325q-1 0 1.5 17t6.5 41.5l8 49t7 41.5l3 17q83 14 126 20.5t119 12.5t160 6q74 0 130.5 -29.5t86 -76t40.5 -101t2 -108.5q-7 -49 -27 -97t-51.5 -91 t-61.5 -78.5t-71.5 -72t-67 -58t-63 -50t-45.5 -34.5h309l-33 -205h-698z" />
<glyph horiz-adv-x="833" d="M141 554l28 164l327 1q74 0 110 17.5t43 65.5l4 27q8 51 -21 70t-96 21l-252 9l28 179l256 10q73 3 107 21.5t41 63.5l2 24q9 47 -20 65t-99 18h-346l25 162q87 30 191 37.5t253 4.5q117 -1 178 -76t43 -185l-10 -62q-12 -75 -49 -122t-94 -59q54 -21 74 -79.5t8 -132.5 l-9 -48q-19 -119 -94 -178t-215 -58h-46h-47.5t-43 0.5t-45 1t-40.5 2t-42.5 3.5t-38 5t-39.5 7t-35 9.5t-36 11.5z" />
<glyph horiz-adv-x="890" d="M154 819l460 690h240l-375 -574h225l33 209l66 102h166l-50 -311h99l-28 -174l-107 -36l-29 -200h-216l33 199h-475z" />
<glyph horiz-adv-x="849" d="M171 548l27 175h393q54 0 77 19t28 63l10 69q1 21 1.5 40t-17.5 33t-54 14h-135q-71 0 -84 -71h-191l129 619h635l-33 -205h-426l-39 -181q12 9 27.5 15t27.5 10.5t32.5 7t31 3.5t34 1t29.5 -0.5t31.5 -1.5t26.5 -1q80 -4 129 -46.5t62.5 -99t4.5 -122.5l-21 -146 q-8 -69 -35.5 -116t-70.5 -70.5t-88 -32.5t-102 -9q-113 1 -157 2t-120.5 8t-162.5 23z" />
<glyph horiz-adv-x="890" d="M226.5 841.5q-4.5 91.5 17.5 216.5q22 137 55.5 230t76.5 139.5t84 65.5t93 23q113 10 242 2t236 -28l-28 -172h-364q-23 0 -42.5 -5t-34.5 -16.5t-26 -21.5t-20 -31t-14 -32t-11 -37.5t-7.5 -36t-6.5 -36.5q115 29 283 31q66 0 114 -22.5t69.5 -58.5t30.5 -81.5 t-1 -91.5l-23 -144q-19 -119 -90 -165.5t-200 -46.5h-192q-49 0 -89.5 15.5t-76 52.5t-53.5 98t-22.5 152.5zM451 948q-35 -220 84 -220h118q42 0 62 16.5t26 55.5l12 78q7 42 -5.5 56t-55.5 14h-241z" />
<glyph horiz-adv-x="821" d="M229 1306l33 204h717l43 -95l-516 -892h-244l454 783h-487z" />
<glyph horiz-adv-x="948" d="M216.5 703.5q1.5 32.5 3.5 62.5l14 93q18 114 143 138q-110 56 -87 212l15 86q9 56 30 96.5t47.5 64.5t65 38.5t75.5 19t85 4.5h233q113 0 171 -65.5t39 -185.5l-12 -70q-2 -16 -9.5 -34.5t-22 -42t-42 -41t-62.5 -23.5q32 -8 52 -33t26 -55t7.5 -62t-3.5 -53l-17 -111 q-9 -60 -29.5 -102.5t-44.5 -65.5t-62 -35t-69.5 -15t-80.5 -3h-232q-65 0 -112.5 16.5t-71 42.5t-37.5 58.5t-12.5 65zM447 786q-6 -38 9.5 -53t66.5 -15h137q43 0 64 16t26 52l11 70q6 38 -8.5 56.5t-55.5 18.5h-148q-44 0 -64 -17.5t-26 -57.5zM512 1194q-7 -43 11 -59 t57 -16h142q27 0 45 6t27.5 18t13 23t6.5 28l8 47q8 50 -9 65.5t-61 15.5h-133q-48 0 -69.5 -16t-29.5 -65z" />
<glyph horiz-adv-x="892" d="M190 541l27 172h364q27 0 49 8t37 18.5t27.5 31.5t19.5 35.5t14.5 43t10 42.5t7.5 44q-111 -28 -283 -30q-54 0 -95.5 15.5t-65 41.5t-38.5 60.5t-15.5 72t3.5 75.5l19 130q18 122 89.5 173t198.5 49l202 -2q63 0 110.5 -27t83 -91.5t40 -171.5t-17.5 -266 q-18 -112 -44.5 -194t-54.5 -129t-66 -75.5t-70 -38.5t-75 -14q-172 -17 -477 27zM472 1176q-7 -44 5.5 -59t54.5 -15h240q34 216 -86 216h-116q-41 0 -60.5 -16.5t-26.5 -58.5z" />
<glyph horiz-adv-x="944" d="M130 244l76 488q41 252 291 252h242q134 0 192 -68t40 -177l-78 -495q-21 -131 -87.5 -188.5t-190.5 -57.5h-242q-56 0 -102.5 14t-82.5 42t-52 77t-6 113zM358 290q-8 -55 11 -71t71 -16h132q52 0 75.5 18t31.5 68l70 404q8 48 -7.5 67.5t-66.5 19.5h-143 q-54 0 -75 -21.5t-29 -65.5z" />
<glyph horiz-adv-x="571" d="M141 713l24 151q51 0 132.5 44t112.5 80h217l-157 -989h-221l123 760q-58 -46 -231 -46z" />
<glyph horiz-adv-x="815" d="M56 -1l31 195q48 30 73.5 46.5t89.5 59.5t105 73.5t97.5 76.5t91 81.5t62 75.5t32.5 72q10 66 -20.5 91t-117.5 25h-325q-1 0 1.5 17t6.5 41.5l8 49t7 41.5l3 17q83 14 126 20.5t119 12.5t160 6q74 0 130.5 -29.5t86 -76t40.5 -101t2 -108.5q-7 -49 -27 -97t-51.5 -91 t-61.5 -78.5t-71.5 -72t-67 -58t-63 -50t-45.5 -34.5h309l-33 -205h-698z" />
<glyph horiz-adv-x="833" d="M59 30l28 163l327 1q74 0 110 18t43 66l4 26q8 51 -21.5 70.5t-95.5 21.5l-252 9l28 178l256 11q73 3 107 21t41 63l2 25q9 47 -20 65t-99 18h-346l25 162q87 30 189.5 37t254.5 4q117 -1 178 -76t43 -185l-10 -61q-12 -75 -49 -122.5t-94 -59.5q54 -21 74 -79t8 -132 l-8 -49q-19 -119 -94.5 -177.5t-215.5 -57.5h-46h-47.5t-43 0.5t-45 1t-40.5 2t-42.5 3.5t-38 5t-39.5 7t-35 9.5t-36 11.5z" />
<glyph horiz-adv-x="890" d="M71 295l460 689h240l-374 -574h224l34 210l65 102h166l-50 -312h99l-28 -174l-107 -35l-29 -200h-216l33 199h-474z" />
<glyph horiz-adv-x="849" d="M89 24l27 175h393q54 0 77 19t28 63l10 68q1 21 1.5 40.5t-17.5 33.5t-54 14h-135q-71 0 -84 -71h-191l129 618h635l-33 -204h-426l-39 -182q10 7 21.5 12.5t22 9.5t25.5 7t24.5 4.5t26.5 2.5t25 1.5t26.5 0t24 -0.5t24.5 -1t21 -1q61 -3 104.5 -28.5t63 -63.5t28 -84.5 t-0.5 -92.5l-21 -145q-8 -69 -35.5 -116t-70 -70.5t-87.5 -32.5t-102 -9q-114 1 -158 2t-120.5 8t-162.5 23z" />
<glyph horiz-adv-x="890" d="M143.5 317q-4.5 91 17.5 216q18 111 44 193t55 130.5t66 79t70 42t74 14.5q172 17 478 -27l-28 -171h-364q-23 0 -42.5 -5t-34.5 -16.5t-26 -21.5t-20 -31t-14 -32t-11 -37.5t-7.5 -36t-6.5 -36.5q115 29 283 31q66 0 114 -22.5t69.5 -59t30.5 -82t-1 -91.5l-23 -143 q-19 -119 -90 -165.5t-200 -46.5h-192q-49 0 -89.5 15.5t-76 52t-53.5 98t-22.5 152.5zM368 424q-35 -220 85 -220h117q42 0 62 16t26 55l12 79q7 42 -5.5 56t-55.5 14h-241z" />
<glyph horiz-adv-x="823" d="M146 781l33 205h717l43 -95l-516 -892h-244l454 782h-487z" />
<glyph horiz-adv-x="944" d="M132.5 179.5q1.5 32.5 3.5 62.5l15 92q19 115 142 139q-110 56 -87 211l15 87q9 56 30 96.5t47.5 64.5t65 38t75.5 18.5t85 4.5h233q113 0 171 -65.5t39 -184.5l-12 -70q-2 -16 -9.5 -34.5t-22 -42t-42 -41t-62.5 -23.5q32 -8 52 -33t26 -55t7.5 -62t-3.5 -53l-17 -111 q-9 -60 -29.5 -102.5t-44.5 -65.5t-62 -35t-69.5 -15t-80.5 -3h-232q-65 0 -112.5 16.5t-71 42.5t-37.5 58.5t-12.5 65zM363 262q-6 -38 9 -53t66 -15h139q43 0 63.5 16t25.5 52l11 70q6 38 -8.5 56.5t-55.5 18.5h-148q-44 0 -64 -17.5t-26 -57.5zM428 670q-7 -43 11 -59.5 t57 -16.5h142q27 0 45 6t27.5 18.5t13 23t6.5 28.5l8 46q8 50 -9 66t-61 16h-133q-48 0 -69.5 -16.5t-29.5 -65.5z" />
<glyph horiz-adv-x="892" d="M106 17l28 172h364q27 0 49 8t37 18.5t27.5 31.5t19.5 35.5t14.5 43t10 42.5t7.5 44q-115 -29 -284 -31q-54 0 -95.5 15.5t-65 42t-38 61t-15 72t3.5 75.5l19 130q18 122 89.5 173t198.5 49l202 -2q63 0 110.5 -27t83 -91.5t40 -171.5t-17.5 -266q-18 -112 -44.5 -194 t-54.5 -129t-66 -75.5t-70 -38.5t-75 -14q-113 -10 -246 -1.5t-232 28.5zM389 651q-7 -44 5 -58.5t55 -14.5h240q34 216 -86 216h-116q-41 0 -60.5 -16.5t-26.5 -58.5z" />
<glyph horiz-adv-x="2183" d="M131.5 369.5q-0.5 90.5 15.5 209.5q21 131 54.5 226t72.5 151.5t93 89t106 43.5t120 11q292 0 490 -67l-28 -178q-193 14 -375 14q-34 0 -53 -1.5t-44.5 -8t-40 -19.5t-32.5 -36.5t-30 -59.5t-24.5 -87t-23.5 -120q-13 -82 -14 -138t8 -92t32 -56t53 -27.5t77 -7.5h39 q88 0 129.5 0.5t109.5 3.5t100 9.5t79.5 19t70 31.5t49.5 47t40.5 66t21.5 87l177 1123h286l-101 -631q45 30 74.5 48t78.5 41t102.5 34t113.5 11q325 0 264 -382l-114 -724h-287l115 728q12 77 -15 112.5t-82 35.5q-87 0 -150 -23.5t-128 -71.5l-51 -322 q-13 -85 -41.5 -154.5t-65.5 -118t-87.5 -85t-101.5 -58.5t-116.5 -36.5t-122.5 -19.5t-128.5 -6t-126 0.5t-123.5 3.5t-114 1q-54 0 -100.5 11t-93.5 37t-78.5 69.5t-55 109.5t-24 156.5z" />
<glyph horiz-adv-x="722" d="M149 616l38 242h643l-38 -242h-643z" />
<glyph horiz-adv-x="722" d="M149 616l38 242h643l-38 -242h-643z" />
<glyph horiz-adv-x="1050" d="M148 610l39 244h969l-39 -244h-969z" />
<glyph horiz-adv-x="1505" d="M149 614l39 244h1425l-39 -244h-1425z" />
<glyph horiz-adv-x="724" d="M121 442l38 242h643l-38 -242h-643z" />
<glyph horiz-adv-x="724" d="M121 442l38 242h643l-38 -242h-643z" />
<glyph horiz-adv-x="1048" d="M120 436l39 244h969l-39 -244h-969z" />
<glyph horiz-adv-x="1505" d="M121 444l39 244h1426l-39 -244h-1426z" />
<glyph horiz-adv-x="770" d="M198.5 418.5q0.5 143.5 22.5 292.5q21 142 61 277.5t88 239t101 196t102 156.5t88.5 110.5t62.5 69.5l24 22h274q-17 -20 -45 -56.5t-104 -153.5t-140 -238t-130 -298.5t-95 -347.5q-31 -196 -26 -363.5t36 -303.5t66 -231.5t63 -147.5l28 -52h-267q-6 8 -16.5 23.5 t-38.5 70.5t-52.5 117t-50 161.5t-39 206t-13 250z" />
<glyph horiz-adv-x="774" d="M-33 -410q16 19 44 53.5t103.5 148.5t139.5 234.5t130 301t97 358.5q30 187 24 352t-36.5 301.5t-65 235t-61.5 153.5l-28 54h268q6 -9 16.5 -25.5t38.5 -74t52 -121t50 -164.5t39 -206.5t12.5 -245t-22.5 -281.5q-22 -148 -62 -287t-86 -243.5t-96.5 -196t-96 -153.5 t-82.5 -107t-59 -66l-22 -21h-297z" />
<glyph horiz-adv-x="679" d="M200 567q62 416 355 727h295q-135 -159 -235 -366t-128 -383q-31 -196 1.5 -391t105.5 -322h-270q-79 131 -118 323.5t-6 411.5z" />
<glyph horiz-adv-x="692" d="M29 -168q122 144 219.5 342.5t126.5 386.5q29 184 -3.5 387.5t-113.5 345.5h268q84 -131 126.5 -331.5t9.5 -423.5q-34 -228 -128 -407.5t-208 -299.5h-297z" />
</font>
</defs>
</svg>
